<?xml version="1.0" encoding="utf-8"?>
<!-- Generator: Adobe Illustrator 25.2.3, SVG Export Plug-In . SVG Version: 6.00 Build 0)  -->
<svg version="1.1" id="Ebene_1" xmlns="http://www.w3.org/2000/svg" xmlns:xlink="http://www.w3.org/1999/xlink" x="0px" y="0px"
	 viewBox="0 0 88.4 36.1" style="enable-background:new 0 0 88.4 36.1;" xml:space="preserve">
<style type="text/css">
	.st0{fill:#FFFFFF;}
</style>
<g id="Gruppe_30" transform="translate(-83.988 -111.143)">
	<g id="Gruppe_21">
		<g id="Gruppe_1">
			<g id="ese">
				<g id="Gruppe_24">
					<path id="Pfad_26" class="st0" d="M87.6,119.5c0,2,1.6,3.6,3.5,3.6c0,0,0,0,0,0c1.2,0.1,2.3-0.6,2.9-1.6h3.7
						c-1,2.8-3.7,4.5-6.6,4.4c-4.5,0-7.1-3.4-7.1-7.4c-0.2-3.8,2.7-7,6.5-7.2c0.2,0,0.3,0,0.5,0c4.3,0,7,3.4,6.9,8.3L87.6,119.5z
						 M87.6,117h6.6c0.1-1.7-1.2-3.1-2.9-3.2c-0.1,0-0.2,0-0.3,0C89.2,113.8,87.7,115.2,87.6,117L87.6,117z"/>
					<path id="Pfad_27" class="st0" d="M107.2,115.7c-0.4-1.3-1.6-2.2-3-2c-1.3,0-2.3,0.5-2.3,1.4c0,0.8,0.5,1.3,1.9,1.6l1.9,0.4
						c2.8,0.6,5.1,1.3,5.1,4.2c0,2.8-2.9,4.5-6.1,4.5c-3.4,0-6-1.8-6.4-5h3.5c0.2,1.5,1.5,2.5,3,2.4c1.5,0,2.5-0.6,2.5-1.6
						c0-1-1.1-1.5-2.3-1.7l-2.1-0.4c-2.6-0.5-4.4-1.6-4.4-4.2c0-2.5,2.7-4.2,5.7-4.2c2.9,0,5.7,1.4,6.2,4.6L107.2,115.7z"/>
					<path id="Pfad_28" class="st0" d="M114.8,119.5c0,2,1.6,3.6,3.5,3.6c0,0,0,0,0,0c1.2,0.1,2.3-0.6,2.9-1.6h3.7
						c-1,2.8-3.7,4.5-6.6,4.4c-4.5,0-7.1-3.4-7.1-7.4c-0.2-3.8,2.7-7,6.5-7.2c0.2,0,0.3,0,0.5,0c4.3,0,7,3.4,6.9,8.3L114.8,119.5z
						 M114.8,117h6.6c0.1-1.7-1.2-3.1-2.9-3.2c-0.1,0-0.2,0-0.3,0C116.4,113.8,114.9,115.2,114.8,117z"/>
				</g>
			</g>
			<g id="agency">
				<g id="Gruppe_25">
					<path id="Pfad_29" class="st0" d="M89.1,142.8c-2.6,0-4.8-1.5-4.8-3.9c0-3.2,3.6-4.1,8.8-4.7v-0.2c0-2.1-1.1-2.8-2.5-2.8
						c-1.2-0.1-2.4,0.8-2.5,2c0,0.1,0,0.1,0,0.2h-3.2c0.2-2.6,2.4-4.6,5.9-4.6c3.2,0,5.8,1.4,5.8,5.9c0,0.4-0.1,2.2-0.1,3.4
						c0,1.5,0.1,3,0.4,4.4h-3.2c-0.1-0.6-0.2-1.1-0.2-1.7C92.5,142.2,90.9,143,89.1,142.8z M93.2,136.3c-3.8,0.4-5.4,0.9-5.4,2.4
						c0,1,0.8,1.8,2.3,1.8c2.1,0,3.1-1.2,3.1-3.1L93.2,136.3z"/>
					<path id="Pfad_30" class="st0" d="M110.7,129.1v12.1c0,4.4-2.5,6-6.6,6c-2.9,0-5.4-1-5.9-4.2h3.3c0.3,1.1,1.2,1.7,2.8,1.7
						c1.8,0,3-0.9,3-2.9V140c-0.8,1.3-2.3,2.1-3.8,2c-3.3,0-5.8-2.7-5.8-6.6c0-3.8,2.5-6.6,5.8-6.6c1.6-0.1,3,0.7,3.8,2.1v-1.8
						H110.7z M107.4,135.4c0-2.4-1.2-4-3.1-4c-1.8,0-3.1,1.8-3.1,4c0,2.2,1.3,4,3.1,4C106.2,139.4,107.4,137.7,107.4,135.4
						L107.4,135.4z"/>
					<path id="Pfad_31" class="st0" d="M115.4,136.7c0,1.9,1.5,3.4,3.4,3.4c0,0,0,0,0,0c1.2,0.1,2.2-0.5,2.8-1.6h3.5
						c-1,2.6-3.5,4.4-6.3,4.2c-4.3,0-6.8-3.2-6.8-7.1c-0.2-3.7,2.6-6.8,6.3-7c0.2,0,0.3,0,0.5,0c4.1,0,6.7,3.2,6.6,8L115.4,136.7z
						 M115.4,134.3h6.4c0.1-1.6-1.2-3-2.8-3.1c-0.1,0-0.2,0-0.3,0C117,131.3,115.5,132.6,115.4,134.3z"/>
					<path id="Pfad_32" class="st0" d="M130,130.8c0.8-1.3,2.3-2.1,3.9-2.1c3.2,0,4.6,2,4.6,5.3v8.5h-3.4v-7.7
						c0-1.8-0.4-3.2-2.3-3.2c-2.3,0-2.8,1.9-2.8,4v7h-3.4v-13.5h3.4L130,130.8z"/>
					<path id="Pfad_33" class="st0" d="M152.4,133.6h-3.3c-0.3-1.3-1.5-2.2-2.8-2.2c-1.8,0-3.2,1.5-3.2,4.3c0,2.8,1.4,4.4,3.2,4.4
						c1.4,0,2.6-0.9,2.9-2.2h3.3c-0.8,3.7-3.6,4.9-6.4,4.9c-4,0-6.6-3-6.6-7c0-4.1,2.7-7,6.7-7C149.1,128.7,152,130.3,152.4,133.6z"
						/>
					<path id="Pfad_34" class="st0" d="M153.2,146.9v-2.6h1.3c1.1,0,1.7,0,2.2-1.4l0.2-0.4l-5.1-13.4h3.8l3,9.7l3.1-9.7h3.5
						l-4.9,13.1c-1.6,4.2-2.3,4.8-5.6,4.8L153.2,146.9z"/>
				</g>
			</g>
		</g>
	</g>
	<g id="TM">
		<g id="Gruppe_26">
			<path id="Pfad_35" class="st0" d="M167.6,129.5h-1v-0.4h2.5v0.4h-1v2.7h-0.5V129.5z"/>
			<path id="Pfad_36" class="st0" d="M170.6,132.2l-0.8-2.6v2.6h-0.5v-3.1h0.8l0.8,2.6l0.8-2.6h0.8v3.1h-0.5v-2.6l-0.8,2.6
				L170.6,132.2z"/>
		</g>
	</g>
</g>
</svg>
