<svg xmlns="http://www.w3.org/2000/svg" width="126.115" height="30.68" viewBox="0 0 126.115 30.68">
  <g id="_6453c1d7a50887b546e95c90_ese-kunden-cchbc" data-name="6453c1d7a50887b546e95c90_ese-kunden-cchbc" transform="translate(0.5 0.5)">
    <path id="Path_687" data-name="Path 687" d="M84.135,71.862a4.1,4.1,0,0,1-.7.752,5.172,5.172,0,0,1-.916.618,4.9,4.9,0,0,1-1.093.412,5.207,5.207,0,0,1-3.145-.213,4.4,4.4,0,0,1-2.47-2.52,5.28,5.28,0,0,1-.348-1.931,5.051,5.051,0,0,1,.348-1.91,4.7,4.7,0,0,1,.973-1.548,4.6,4.6,0,0,1,1.5-1.036,4.768,4.768,0,0,1,1.938-.376,5.045,5.045,0,0,1,2.243.469,4.259,4.259,0,0,1,1.6,1.356L82.637,67.3a3.477,3.477,0,0,0-.98-.93A2.521,2.521,0,0,0,80.3,66.02a2.729,2.729,0,0,0-1.122.227,2.474,2.474,0,0,0-.845.625,3,3,0,0,0-.532.93,3.3,3.3,0,0,0-.185,1.129,3.527,3.527,0,0,0,.185,1.136,2.694,2.694,0,0,0,.532.909,2.485,2.485,0,0,0,1.924.831,3.141,3.141,0,0,0,.866-.106,2.684,2.684,0,0,0,.646-.277,2.542,2.542,0,0,0,.5-.4c.149-.149.291-.305.426-.461l1.42,1.3Z" transform="translate(-44.274 -60.553)" fill="#fff"/>
    <path id="Path_688" data-name="Path 688" d="M92.008,73.176a1.5,1.5,0,0,0,.66-.142,1.548,1.548,0,0,0,.49-.39,1.642,1.642,0,0,0,.3-.561,2.1,2.1,0,0,0,0-1.278,1.61,1.61,0,0,0-.3-.554,1.435,1.435,0,0,0-.49-.383,1.412,1.412,0,0,0-.66-.142,1.559,1.559,0,0,0-.667.142,1.473,1.473,0,0,0-.49.383,1.891,1.891,0,0,0-.3.554,1.984,1.984,0,0,0,.3,1.839,1.33,1.33,0,0,0,.49.39,1.461,1.461,0,0,0,.667.142M88.53,71.437a3.563,3.563,0,0,1,.256-1.349,3.493,3.493,0,0,1,.71-1.1,3.228,3.228,0,0,1,1.1-.738,3.834,3.834,0,0,1,2.825,0,3.268,3.268,0,0,1,1.093.738,3.373,3.373,0,0,1,.71,1.1,3.687,3.687,0,0,1,0,2.7,3.492,3.492,0,0,1-.71,1.1,3.394,3.394,0,0,1-1.093.745,3.743,3.743,0,0,1-2.825,0,3.426,3.426,0,0,1-1.1-.745,3.373,3.373,0,0,1-.71-1.1,3.537,3.537,0,0,1-.256-1.349" transform="translate(-48.066 -61.676)" fill="#fff"/>
    <path id="Path_689" data-name="Path 689" d="M105.545,73.82a3.376,3.376,0,0,1-1.058.76,3.534,3.534,0,0,1-1.555.319,3.812,3.812,0,0,1-1.427-.256,3.143,3.143,0,0,1-1.81-1.817,3.715,3.715,0,0,1-.256-1.4,3.435,3.435,0,0,1,.263-1.349,3.53,3.53,0,0,1,.724-1.1,3.258,3.258,0,0,1,1.107-.738,3.61,3.61,0,0,1,1.4-.27,3.764,3.764,0,0,1,1.533.291,3.315,3.315,0,0,1,1.093.774l-1.2,1.3a2.391,2.391,0,0,0-.54-.44,1.618,1.618,0,0,0-.845-.192,1.411,1.411,0,0,0-.639.142,1.581,1.581,0,0,0-.483.376,1.648,1.648,0,0,0-.305.547,2,2,0,0,0-.106.653,1.968,1.968,0,0,0,.106.632,1.756,1.756,0,0,0,.305.554,1.646,1.646,0,0,0,.483.4,1.367,1.367,0,0,0,.639.149,1.69,1.69,0,0,0,.859-.2,2.242,2.242,0,0,0,.554-.433l1.157,1.3Z" transform="translate(-51.231 -61.673)" fill="#fff"/>
    <path id="Path_690" data-name="Path 690" d="M113,71.823c-.043-.007-.135-.021-.263-.035a4.06,4.06,0,0,0-.44-.021,2.161,2.161,0,0,0-1.171.234.746.746,0,0,0-.348.66c0,.532.319.8.965.8a1.464,1.464,0,0,0,.461-.078,1.258,1.258,0,0,0,.4-.213,1.055,1.055,0,0,0,.284-.348,1.031,1.031,0,0,0,.114-.483v-.525Zm0,2.25a2.2,2.2,0,0,1-.838.6,2.989,2.989,0,0,1-1.129.206,2.65,2.65,0,0,1-.724-.1,1.988,1.988,0,0,1-.7-.327,1.771,1.771,0,0,1-.54-.618,1.982,1.982,0,0,1-.213-.965,2.175,2.175,0,0,1,.227-1.008,2.1,2.1,0,0,1,.632-.738,2.835,2.835,0,0,1,.944-.447,4.465,4.465,0,0,1,1.178-.149c.234,0,.461,0,.7.014a2.294,2.294,0,0,1,.461.043v-.135a.781.781,0,0,0-.106-.419.982.982,0,0,0-.277-.291,1.061,1.061,0,0,0-.39-.163,2.493,2.493,0,0,0-.469-.05,3.241,3.241,0,0,0-1.1.163,3.4,3.4,0,0,0-.738.376l-.816-1.214c.135-.1.3-.2.469-.305a4,4,0,0,1,.625-.277,4.821,4.821,0,0,1,.809-.2,6.269,6.269,0,0,1,1.029-.078,2.751,2.751,0,0,1,2.179.8,3.1,3.1,0,0,1,.7,2.137v3.77h-1.867l-.057-.611Z" transform="translate(-53.961 -61.679)" fill="#fff"/>
    <rect id="Rectangle_1257" data-name="Rectangle 1257" width="4.38" height="1.895" transform="translate(62.84 8.199)" fill="#fff"/>
    <path id="Path_691" data-name="Path 691" d="M137.218,71.862a4.1,4.1,0,0,1-.7.752,5.172,5.172,0,0,1-.916.618,4.9,4.9,0,0,1-1.093.412,4.959,4.959,0,0,1-1.221.149,4.906,4.906,0,0,1-1.917-.362,4.4,4.4,0,0,1-2.47-2.52,5.279,5.279,0,0,1-.348-1.931,5.05,5.05,0,0,1,.348-1.91,4.7,4.7,0,0,1,.973-1.548,4.6,4.6,0,0,1,1.5-1.036,4.8,4.8,0,0,1,1.945-.376,5.045,5.045,0,0,1,2.243.469,4.259,4.259,0,0,1,1.6,1.356l-1.427,1.37a3.477,3.477,0,0,0-.98-.93,2.521,2.521,0,0,0-1.356-.355,2.729,2.729,0,0,0-1.122.227,2.474,2.474,0,0,0-.845.625,2.866,2.866,0,0,0-.532.93,3.484,3.484,0,0,0-.185,1.129,3.527,3.527,0,0,0,.185,1.136,2.694,2.694,0,0,0,.532.909,2.475,2.475,0,0,0,.831.611,2.571,2.571,0,0,0,1.093.22,3.142,3.142,0,0,0,.866-.106,2.684,2.684,0,0,0,.646-.277,2.543,2.543,0,0,0,.5-.4c.149-.149.291-.305.426-.461l1.42,1.3Z" transform="translate(-59.676 -60.553)" fill="#fff"/>
    <path id="Path_692" data-name="Path 692" d="M145.089,73.176a1.5,1.5,0,0,0,.66-.142,1.548,1.548,0,0,0,.49-.39,1.642,1.642,0,0,0,.3-.561,2.1,2.1,0,0,0,0-1.278,1.609,1.609,0,0,0-.3-.554,1.435,1.435,0,0,0-.49-.383,1.412,1.412,0,0,0-.66-.142,1.559,1.559,0,0,0-.667.142,1.473,1.473,0,0,0-.49.383,1.891,1.891,0,0,0-.3.554,1.984,1.984,0,0,0,.3,1.839,1.329,1.329,0,0,0,.49.39,1.461,1.461,0,0,0,.667.142m-3.478-1.739a3.562,3.562,0,0,1,.256-1.349,3.373,3.373,0,0,1,.71-1.1,3.228,3.228,0,0,1,1.1-.738,3.667,3.667,0,0,1,1.42-.27,3.57,3.57,0,0,1,1.406.27,3.268,3.268,0,0,1,1.093.738,3.373,3.373,0,0,1,.71,1.1,3.687,3.687,0,0,1,0,2.7,3.318,3.318,0,0,1-1.8,1.846,3.5,3.5,0,0,1-1.406.277,3.592,3.592,0,0,1-1.42-.277,3.426,3.426,0,0,1-1.1-.745,3.373,3.373,0,0,1-.71-1.1,3.536,3.536,0,0,1-.256-1.349" transform="translate(-63.465 -61.676)" fill="#fff"/>
    <rect id="Rectangle_1258" data-name="Rectangle 1258" width="1.988" height="9.214" transform="translate(86.209 3.791)" fill="#fff"/>
    <path id="Path_693" data-name="Path 693" d="M161.729,71.823c-.043-.007-.135-.021-.263-.035a4.06,4.06,0,0,0-.44-.021,2.161,2.161,0,0,0-1.171.234.746.746,0,0,0-.348.66c0,.532.319.8.965.8a1.464,1.464,0,0,0,.461-.078,1.258,1.258,0,0,0,.4-.213,1.151,1.151,0,0,0,.284-.348,1.031,1.031,0,0,0,.114-.483v-.525Zm0,2.25a2.2,2.2,0,0,1-.838.6,2.978,2.978,0,0,1-1.122.206,2.65,2.65,0,0,1-.724-.1,1.988,1.988,0,0,1-.7-.327,1.7,1.7,0,0,1-.54-.618,1.982,1.982,0,0,1-.213-.965,2.1,2.1,0,0,1,.852-1.746,2.836,2.836,0,0,1,.944-.447,4.465,4.465,0,0,1,1.178-.149c.227,0,.461,0,.7.014a2.3,2.3,0,0,1,.461.043v-.135a.781.781,0,0,0-.106-.419.983.983,0,0,0-.277-.291,1.062,1.062,0,0,0-.39-.163,2.493,2.493,0,0,0-.469-.05,3.241,3.241,0,0,0-1.1.163,3.4,3.4,0,0,0-.738.376l-.816-1.214c.135-.1.291-.2.469-.305a4,4,0,0,1,.625-.277,4.82,4.82,0,0,1,.809-.2,6.333,6.333,0,0,1,1.029-.078,2.777,2.777,0,0,1,2.186.8,3.1,3.1,0,0,1,.7,2.137v3.77h-1.867l-.057-.611Z" transform="translate(-68.101 -61.679)" fill="#fff"/>
    <path id="Pfad_694" data-name="Pfad 694" d="M52.956,87.549c-1.832,0-3.936-.283-3.936-2.488a4.509,4.509,0,0,1,.286-1.416,5.554,5.554,0,0,0,.339-1.828v-.18c0-.2-.019-.365-.029-.486-.007-.085-.013-.148-.013-.2-.007-.149-.142-1.045-.24-1.7-.1-.67-.2-1.3-.225-1.573V77.67a1.913,1.913,0,0,1,.069-.849,11.109,11.109,0,0,1,.319-4.287,2.522,2.522,0,0,1,.355-1.619c.36-.855.789-2.048.852-2.222.045-.178.147-.6.246-1.159.061-.586.071-1.178.073-1.5a.657.657,0,0,1-.241-.507,2,2,0,0,1,.2-.725l-.054-.046v-.23a.955.955,0,0,1,.947-.961H54a.955.955,0,0,1,.947.961v.207l-.052.052a2,2,0,0,1,.215.742.65.65,0,0,1-.241.505c0,.311.017.913.073,1.511.074.452.174.865.245,1.144.065.178.5,1.37.853,2.225a2.52,2.52,0,0,1,.354,1.617,11.109,11.109,0,0,1,.319,4.288,1.891,1.891,0,0,1,.062.854c-.03.273-.128.917-.232,1.6-.1.645-.233,1.527-.241,1.675,0,.058-.006.128-.014.233s-.021.267-.029.447v.181h-1V81.6c.008-.2.022-.371.031-.493.005-.065.011-.138.011-.16,0-.147.06-.562.252-1.821.1-.641.2-1.3.227-1.556a1.351,1.351,0,0,0,0-.358l-.132-.12.049-.273a10.2,10.2,0,0,0-.319-4.185l-.1-.314.14-.121a3.888,3.888,0,0,0-.3-.867l-.009-.02c-.39-.944-.861-2.245-.881-2.3l-.014-.046c-.077-.3-.189-.761-.272-1.272l0-.032c-.075-.776-.08-1.559-.08-1.78a.665.665,0,0,1,.2-.477c-.026-.07-.066-.168-.127-.3a1.192,1.192,0,0,1-.064-.16l-.01-.039a.837.837,0,0,1,.009-.329H52.039a.836.836,0,0,1,.009.329l-.01.039a1.227,1.227,0,0,1-.06.153c-.061.141-.1.241-.127.312a.663.663,0,0,1,.2.477,17.52,17.52,0,0,1-.081,1.778l0,.034c-.077.439-.176.9-.271,1.272l-.013.044c-.02.055-.485,1.359-.883,2.3l-.008.017a3.888,3.888,0,0,0-.295.867l.14.121-.1.314a10.245,10.245,0,0,0-.319,4.185l.049.273-.134.121a1.349,1.349,0,0,0,0,.36c.028.253.126.9.22,1.53.192,1.275.251,1.7.251,1.843,0,.016.005.074.009.12.011.128.028.322.033.558v.195a6.563,6.563,0,0,1-.386,2.132,3.706,3.706,0,0,0-.239,1.112c0,.753.227,1.488,2.936,1.488s2.929-.735,2.929-1.488a3.705,3.705,0,0,0-.238-1.107,6.59,6.59,0,0,1-.387-2.137h1a5.581,5.581,0,0,0,.34,1.834,4.505,4.505,0,0,1,.285,1.41C56.885,87.266,54.785,87.549,52.956,87.549Z" transform="translate(-36.749 -60.542)" fill="#fff"/>
    <path id="Pfad_695" data-name="Pfad 695" d="M34.966,87.548c-1.832,0-3.936-.283-3.936-2.488a4.478,4.478,0,0,1,.285-1.408,5.544,5.544,0,0,0,.34-1.83v-.174c-.008-.183-.02-.342-.029-.459s-.013-.173-.014-.228c-.007-.139-.13-.953-.22-1.549-.111-.736-.217-1.432-.246-1.727a1.863,1.863,0,0,1,.062-.845,11.148,11.148,0,0,1,.319-4.294,2.521,2.521,0,0,1,.355-1.619c.361-.851.792-2.054.852-2.223.082-.318.174-.745.246-1.151.061-.581.071-1.175.073-1.5a.657.657,0,0,1-.241-.507,1.966,1.966,0,0,1,.21-.731l-.047-.04v-.23a.955.955,0,0,1,.947-.961h2.094a.955.955,0,0,1,.947.961v.23l-.056.048a2.026,2.026,0,0,1,.205.723.65.65,0,0,1-.241.5c0,.311.017.913.073,1.51.074.448.174.861.245,1.14.062.173.492,1.373.851,2.222a2.521,2.521,0,0,1,.355,1.619,11.148,11.148,0,0,1,.319,4.294,1.866,1.866,0,0,1,.061.848c-.03.266-.126.9-.228,1.568s-.237,1.554-.244,1.7c0,.059-.006.131-.014.239s-.021.267-.028.44v.181h-1V81.61c.008-.2.021-.363.031-.486,0-.064.011-.145.011-.167,0-.148.061-.57.256-1.849.1-.63.2-1.282.223-1.528a1.318,1.318,0,0,0,0-.35l-.132-.12.049-.273a10.239,10.239,0,0,0-.319-4.192l-.1-.314.14-.121a3.888,3.888,0,0,0-.3-.867l-.007-.016c-.4-.94-.865-2.252-.884-2.307l-.013-.043c-.077-.3-.189-.758-.272-1.264l0-.033c-.075-.776-.08-1.559-.08-1.78a.665.665,0,0,1,.2-.478c-.038-.1-.088-.218-.11-.27a1.053,1.053,0,0,1-.087-.249.85.85,0,0,1,.012-.314H34.056a.74.74,0,0,1-.014.391c-.012.036-.028.072-.057.138-.061.138-.1.236-.128.306a.662.662,0,0,1,.2.475,17.424,17.424,0,0,1-.081,1.778l0,.034c-.079.445-.18.919-.271,1.268l-.012.04c-.02.055-.485,1.367-.884,2.307l-.007.016a3.887,3.887,0,0,0-.295.867l.14.121-.1.314a10.288,10.288,0,0,0-.319,4.192l.049.273-.132.12a1.318,1.318,0,0,0,0,.35v.007c.026.267.135.984.239,1.678.176,1.167.231,1.552.231,1.693,0,.021.006.093.011.156.01.127.023.3.031.5v.205a6.553,6.553,0,0,1-.387,2.133,3.677,3.677,0,0,0-.238,1.1c0,.753.227,1.488,2.936,1.488S37.9,85.813,37.9,85.06a3.677,3.677,0,0,0-.238-1.1,6.553,6.553,0,0,1-.387-2.133h1a5.544,5.544,0,0,0,.34,1.83A4.478,4.478,0,0,1,38.9,85.06C38.9,87.265,36.8,87.548,34.966,87.548Z" transform="translate(-31.53 -60.548)" fill="#fff"/>
    <path id="Pfad_696" data-name="Pfad 696" d="M43.567,89.281a7.147,7.147,0,0,1-3.746-.728,2.543,2.543,0,0,1-1.191-2.342,5.674,5.674,0,0,1,.363-1.779,7.274,7.274,0,0,0,.447-2.41V81.8c-.008-.253-.026-.465-.039-.62-.01-.12-.017-.206-.017-.275-.006-.162-.176-1.281-.3-2.1-.139-.915-.27-1.778-.308-2.137a2.232,2.232,0,0,1,.089-1.062,14.214,14.214,0,0,1,.41-5.568,2.07,2.07,0,0,1,.121-1.2,8.214,8.214,0,0,1,.322-.821c.469-1.114,1.035-2.687,1.107-2.89.093-.366.222-.917.324-1.51.077-.8.092-1.622.095-2.039a.719.719,0,0,1-.312-.585,2.763,2.763,0,0,1,.295-.973l-.1-.074V59.7A1.087,1.087,0,0,1,42.2,58.6h2.7a1.087,1.087,0,0,1,1.075,1.1v.245l-.092.072a2.814,2.814,0,0,1,.3.976.727.727,0,0,1-.312.587c0,.419.018,1.237.095,2.045.08.466.189.972.324,1.5.073.2.639,1.777,1.107,2.89a8.088,8.088,0,0,1,.321.822,2.049,2.049,0,0,1,.116,1.2,14.135,14.135,0,0,1,.416,5.565,2.232,2.232,0,0,1,.089,1.062c-.038.359-.169,1.222-.308,2.137-.124.817-.294,1.937-.3,2.1,0,.071-.008.172-.02.324s-.026.338-.037.557v.236h.014a7.274,7.274,0,0,0,.447,2.41,5.673,5.673,0,0,1,.363,1.779,2.543,2.543,0,0,1-1.191,2.342A7.147,7.147,0,0,1,43.567,89.281ZM39.782,76a1.57,1.57,0,0,0-.012.556c.035.335.171,1.228.3,2.091.216,1.424.311,2.067.311,2.249,0,.027.007.114.014.191.014.168.034.4.043.681v.25a8.218,8.218,0,0,1-.494,2.714,4.854,4.854,0,0,0-.315,1.474c0,1,.3,2.07,3.937,2.07s3.937-1.068,3.937-2.07a4.854,4.854,0,0,0-.315-1.474,8.218,8.218,0,0,1-.494-2.714H46.68v-.273c.012-.238.028-.446.04-.6.008-.105.017-.214.017-.251,0-.182.095-.825.311-2.249.131-.863.267-1.755.3-2.091A1.57,1.57,0,0,0,47.338,76l-.145-.134.048-.269a13.292,13.292,0,0,0-.418-5.476l-.1-.316.169-.144a4.455,4.455,0,0,0-.4-1.24l-.008-.017c-.511-1.213-1.113-2.9-1.139-2.972l-.014-.045c-.146-.572-.263-1.118-.349-1.622l0-.036c-.092-.953-.1-1.92-.1-2.291a.736.736,0,0,1,.279-.576c-.036-.108-.1-.267-.191-.476a1.463,1.463,0,0,1-.087-.224.955.955,0,0,1,.027-.487l.01-.032.014-.031.005-.012a.061.061,0,0,0-.026-.005H42.2a.061.061,0,0,0-.026.005l.005.012.009.021a1,1,0,0,1,.059.476l-.006.045-.014.043c-.012.035-.026.068-.059.142-.115.26-.176.421-.208.52a.736.736,0,0,1,.278.578c0,.372-.01,1.338-.1,2.284l0,.036c-.11.646-.251,1.242-.349,1.629l-.014.045c-.025.071-.628,1.759-1.139,2.972l-.008.017a4.554,4.554,0,0,0-.4,1.244l.163.142-.1.312a13.421,13.421,0,0,0-.411,5.477l.049.27Z" transform="translate(-33.735 -59.1)" fill="#fff"/>
    <path id="Path_697" data-name="Path 697" d="M171.86,64.77h2.073v3.521h3.975V64.77h2.073v9.179h-2.073v-3.77h-3.975v3.77H171.86Z" transform="translate(-72.241 -60.745)" fill="#fff"/>
    <path id="Path_698" data-name="Path 698" d="M185.21,64.77h3.443a4.469,4.469,0,0,1,1.441.2,2.849,2.849,0,0,1,.965.532,1.878,1.878,0,0,1,.532.767,2.6,2.6,0,0,1,.163.9,1.826,1.826,0,0,1-.156.781,2.288,2.288,0,0,1-.369.575,1.709,1.709,0,0,1-.454.376,1.9,1.9,0,0,1-.39.177,4.312,4.312,0,0,1,.554.206,2.108,2.108,0,0,1,.618.4,2.327,2.327,0,0,1,.49.674,2.12,2.12,0,0,1,.2.958,2.644,2.644,0,0,1-.256,1.214,2.133,2.133,0,0,1-.717.809,3.141,3.141,0,0,1-1.129.461,6.9,6.9,0,0,1-1.491.142H185.21V64.77Zm3.244,3.677a2,2,0,0,0,.461-.057,1.183,1.183,0,0,0,.4-.17.959.959,0,0,0,.284-.319,1.04,1.04,0,0,0,.106-.49,1.1,1.1,0,0,0-.106-.5.844.844,0,0,0-.291-.319,1.129,1.129,0,0,0-.4-.163,1.92,1.92,0,0,0-.447-.05h-1.221V68.44h1.221Zm.128,3.9a4.408,4.408,0,0,0,.5-.036,1.532,1.532,0,0,0,.511-.156,1.1,1.1,0,0,0,.39-.355,1.13,1.13,0,0,0,.156-.646,1.1,1.1,0,0,0-.149-.6,1.04,1.04,0,0,0-.383-.362,1.562,1.562,0,0,0-.511-.177,3.443,3.443,0,0,0-.511-.05h-1.349v2.392h1.349Z" transform="translate(-76.114 -60.745)" fill="#fff"/>
    <path id="Path_699" data-name="Path 699" d="M204.952,72.162a4.1,4.1,0,0,1-.7.752,4.785,4.785,0,0,1-.916.611,4.845,4.845,0,0,1-1.086.412,4.9,4.9,0,0,1-1.214.149,5.026,5.026,0,0,1-1.91-.355,4.4,4.4,0,0,1-2.463-2.506,5.521,5.521,0,0,1,0-3.819,4.518,4.518,0,0,1,2.47-2.57,4.879,4.879,0,0,1,1.931-.376,5.034,5.034,0,0,1,2.236.469,4.219,4.219,0,0,1,1.59,1.349l-1.42,1.363a3.477,3.477,0,0,0-.98-.93,2.5,2.5,0,0,0-1.349-.355,2.7,2.7,0,0,0-1.115.227,2.447,2.447,0,0,0-.838.625,3,3,0,0,0-.532.93,3.522,3.522,0,0,0,0,2.25,2.694,2.694,0,0,0,.532.909,2.4,2.4,0,0,0,.823.6,2.539,2.539,0,0,0,1.086.22,3.088,3.088,0,0,0,.859-.106,2.43,2.43,0,0,0,.646-.277,2.765,2.765,0,0,0,.5-.4c.149-.149.291-.305.426-.461l1.42,1.292Z" transform="translate(-79.337 -60.655)" fill="#fff"/>
    <path id="Path_700" data-name="Path 700" d="M76.335,89.8a4.731,4.731,0,0,0,.426.4,3.792,3.792,0,0,0,.54.369,3.154,3.154,0,0,0,.653.27,2.605,2.605,0,0,0,.752.106,1.533,1.533,0,0,0,.469-.071,1.465,1.465,0,0,0,.426-.2,1.031,1.031,0,0,0,.312-.319.779.779,0,0,0,.121-.419.876.876,0,0,0-.5-.8,6.747,6.747,0,0,0-1.576-.561,4.484,4.484,0,0,1-.98-.362,3.03,3.03,0,0,1-.774-.568,2.367,2.367,0,0,1-.5-.76,2.428,2.428,0,0,1-.177-.958,2.936,2.936,0,0,1,.206-1.093,2.563,2.563,0,0,1,.632-.909,3.129,3.129,0,0,1,1.051-.625A4.448,4.448,0,0,1,78.9,83.08a4.747,4.747,0,0,1,1.249.149,4.574,4.574,0,0,1,.923.348A2.981,2.981,0,0,1,81.7,84c.163.142.284.256.369.341l-1.207,1.328c-.1-.085-.22-.17-.355-.27a3.392,3.392,0,0,0-.447-.27,2.915,2.915,0,0,0-.547-.206,2.3,2.3,0,0,0-.632-.085,1.288,1.288,0,0,0-.433.071,1.794,1.794,0,0,0-.39.185.935.935,0,0,0-.277.277.6.6,0,0,0-.106.341.857.857,0,0,0,.5.76,4.893,4.893,0,0,0,1.37.483,6.4,6.4,0,0,1,1,.341,3.259,3.259,0,0,1,.88.561,2.551,2.551,0,0,1,.625.852,2.893,2.893,0,0,1,.234,1.228,2.435,2.435,0,0,1-.277,1.15,2.988,2.988,0,0,1-.752.916,3.62,3.62,0,0,1-1.122.6,4.4,4.4,0,0,1-1.391.213,5.39,5.39,0,0,1-1.264-.135,5.081,5.081,0,0,1-1.022-.348,4.428,4.428,0,0,1-.823-.49A5.015,5.015,0,0,1,75,91.272l1.342-1.455Z" transform="translate(-44.141 -66.057)" fill="#fff"/>
    <path id="Path_701" data-name="Path 701" d="M92.812,92.83a3.461,3.461,0,0,1-1.058.76,3.534,3.534,0,0,1-1.555.319,3.876,3.876,0,0,1-1.434-.256,3.247,3.247,0,0,1-1.1-.717,3.3,3.3,0,0,1-.71-1.1,3.714,3.714,0,0,1-.256-1.4,3.411,3.411,0,0,1,.263-1.349,3.53,3.53,0,0,1,.724-1.1,3.4,3.4,0,0,1,1.107-.738,3.62,3.62,0,0,1,1.406-.27,3.822,3.822,0,0,1,1.54.291,3.315,3.315,0,0,1,1.093.774l-1.207,1.3a2.391,2.391,0,0,0-.54-.44,1.636,1.636,0,0,0-.845-.192,1.376,1.376,0,0,0-.646.149,1.5,1.5,0,0,0-.483.383,1.721,1.721,0,0,0-.305.547,2.011,2.011,0,0,0-.106.66,1.968,1.968,0,0,0,.106.632,1.673,1.673,0,0,0,.788.951,1.376,1.376,0,0,0,.646.149,1.69,1.69,0,0,0,.859-.2,2.116,2.116,0,0,0,.554-.433l1.164,1.3Z" transform="translate(-47.535 -67.188)" fill="#fff"/>
    <path id="Path_702" data-name="Path 702" d="M96.6,83.42h1.981v3.365a2.079,2.079,0,0,1,.845-.575,2.918,2.918,0,0,1,1.065-.2,2.444,2.444,0,0,1,1.8.667,2.652,2.652,0,0,1,.674,1.966v4.018H100.98V88.95a1.284,1.284,0,0,0-.291-.887,1,1,0,0,0-.774-.319,1.289,1.289,0,0,0-.987.433,1.254,1.254,0,0,0-.248.447,1.728,1.728,0,0,0-.085.547v3.493H96.6V83.427Z" transform="translate(-50.407 -66.155)" fill="#fff"/>
    <path id="Path_703" data-name="Path 703" d="M106.407,87.28h2.052l1.136,4.167,1.264-4.167h1.59l1.271,4.167,1.136-4.167h2.009l-2.229,6.5h-1.8l-1.221-3.628L110.4,93.776h-1.775l-2.229-6.5Z" transform="translate(-53.25 -67.275)" fill="#fff"/>
    <path id="Path_704" data-name="Path 704" d="M128.015,92.989c-.071.043-.185.121-.334.227a3.032,3.032,0,0,1-.575.312,5.552,5.552,0,0,1-.838.27,4.767,4.767,0,0,1-1.107.121,4.17,4.17,0,0,1-1.5-.256,3.4,3.4,0,0,1-1.129-.71,2.873,2.873,0,0,1-.7-1.1,3.974,3.974,0,0,1-.241-1.42,3.859,3.859,0,0,1,.227-1.306,3.172,3.172,0,0,1,1.711-1.853,3.349,3.349,0,0,1,1.413-.284,3.256,3.256,0,0,1,1.384.277,2.819,2.819,0,0,1,1,.767,3.386,3.386,0,0,1,.618,1.178,5.283,5.283,0,0,1,.206,1.5v.334h-4.629a1.243,1.243,0,0,0,.461.923,1.813,1.813,0,0,0,1.242.4,3,3,0,0,0,1.264-.227,3.536,3.536,0,0,0,.7-.4L128.007,93Zm-1.746-3.23a1.132,1.132,0,0,0-.085-.419,1.381,1.381,0,0,0-.248-.4,1.314,1.314,0,0,0-.419-.3,1.4,1.4,0,0,0-.6-.121,1.487,1.487,0,0,0-.611.121,1.3,1.3,0,0,0-.433.3,1.212,1.212,0,0,0-.263.4,1.177,1.177,0,0,0-.092.419h2.74Z" transform="translate(-57.657 -67.191)" fill="#fff"/>
    <path id="Path_705" data-name="Path 705" d="M132.41,83.42h2.13v1.789h-2.13Zm.071,2.74h1.995v6.5h-1.995Z" transform="translate(-60.796 -66.155)" fill="#fff"/>
    <path id="Path_706" data-name="Path 706" d="M137.21,92.437l3.187-3.542h-3.045v-1.6h5.566v1.37l-3.2,3.557h3.216v1.562H137.21V92.437Z" transform="translate(-62.189 -67.278)" fill="#fff"/>
  </g>
</svg>
