<svg xmlns="http://www.w3.org/2000/svg" xmlns:xlink="http://www.w3.org/1999/xlink" width="116.422" height="24.917" viewBox="0 0 116.422 24.917">
  <defs>
    <clipPath id="clip-path">
      <rect id="Rectangle_1259" data-name="Rectangle 1259" width="116.422" height="24.917" fill="#fff"/>
    </clipPath>
  </defs>
  <g id="Group_1805" data-name="Group 1805" clip-path="url(#clip-path)">
    <path id="Path_707" data-name="Path 707" d="M144.369,12.4h-1.846l-.923,3.336h2.059c2.13,0,2.84-.852,2.84-1.846s-.923-1.491-2.13-1.491" transform="translate(-41.079 -3.597)" fill="#fff"/>
    <path id="Path_708" data-name="Path 708" d="M20.353,12.7H19.146L17.3,19.657h.994c2.982,0,5.4-1.065,5.4-4.188,0-2.059-1.349-2.769-3.336-2.769" transform="translate(-5.019 -3.684)" fill="#fff"/>
    <path id="Path_709" data-name="Path 709" d="M0,24.917H116.422V0H0ZM12.92,20.8h-7.6L9.8,4.188h5.75c5.466,0,8.945,2.2,8.945,7.028,0,6.318-4.969,9.584-11.571,9.584m25.059-.071H23.71l4.4-16.54H42.239L41.032,8.732h-8.59l-.5,1.775h8.022l-1.065,3.9H30.88l-.5,1.775h8.8Zm13.417.142-3.833-8.519-2.272,8.519H39.825l4.33-16.682h5.253L53.1,12.423l2.2-8.235h5.466L56.294,20.871Zm18.457,0-3.9-8.235-2.2,8.235H58.282l4.4-16.682h5.253L71.7,12.139l2.13-7.951h5.466L74.823,20.871Zm21.155-.142H76.668l4.543-16.54H95.339L94.132,8.732h-8.59l-.5,1.775h8.022L92,14.411H83.98l-.5,1.775h8.732Zm15.476-5.466,2.343,5.466h-6.034l-1.7-4.827H99.6l-1.349,4.827H92.712l4.472-16.54h6.531c4.259,0,7.383,1.349,7.383,5.253,0,2.556-1.349,4.827-4.614,5.821" transform="translate(0 0)" fill="#fff"/>
  </g>
</svg>
