<?xml version="1.0" encoding="UTF-8"?><svg id="Ebene_1" xmlns="http://www.w3.org/2000/svg" viewBox="0 0 240 160"><defs><style>.cls-1{fill:#fff;}</style></defs><polygon class="cls-1" points="88.42 65.08 83.44 70.05 83.44 94.92 92.57 94.92 92.57 84.97 94.24 84.97 94.24 94.92 98.39 94.92 103.38 89.95 103.38 65.08 88.42 65.08"/><polygon class="cls-1" points="120.84 65.08 120.84 75.03 119.16 75.03 119.16 65.08 110.02 65.08 105.04 70.05 105.04 94.92 114.18 94.92 114.18 84.97 115.84 84.97 115.84 94.92 124.16 94.92 124.16 84.97 125.82 84.97 125.82 94.92 129.98 94.92 134.96 89.95 134.96 65.08 120.84 65.08"/><polygon class="cls-1" points="146.59 85.8 146.59 84.15 156.56 84.15 156.56 75.85 146.59 75.85 146.59 74.2 156.56 74.2 156.56 65.08 141.61 65.08 136.62 70.05 136.62 94.92 151.58 94.92 156.56 89.95 156.56 85.8 146.59 85.8"/><path class="cls-1" d="m163.21,65.08l-4.98,4.97v24.86h14.96l4.98-4.97v-24.86h-14.96Zm5.82,19.88h-1.66v-9.93h1.66v9.93Z"/><polygon class="cls-1" points="81.77 79.16 81.77 65.08 66.81 65.08 61.83 70.05 61.83 94.92 76.79 94.92 81.77 89.95 81.77 80.84 72.63 80.84 72.63 84.97 70.97 84.97 70.97 75.03 72.63 75.03 72.63 79.16 81.77 79.16"/></svg>