<?xml version="1.0" encoding="utf-8"?>
<!-- Generator: Adobe Illustrator 26.0.1, SVG Export Plug-In . SVG Version: 6.00 Build 0)  -->
<svg version="1.1" id="Ebene_1" xmlns="http://www.w3.org/2000/svg" xmlns:xlink="http://www.w3.org/1999/xlink" x="0px" y="0px"
	 viewBox="0 0 300 38.6" style="enable-background:new 0 0 300 38.6;" xml:space="preserve">
<style type="text/css">
	.st0{fill:#005EFF;}
	.st1{fill:#FFFFFF;}
</style>
<g>
	<g>
		<path class="st0" d="M22.9,6l-0.4-0.8L3.1,14.9C1.2,15.8,0,17.8,0,20s1.2,4.1,3.1,5.1l18.6,9.3l0.4-0.8c1.7-3.4,0.3-7.5-3-9.1
			L10.2,20l9.6-4.8C23.2,13.5,24.5,9.4,22.9,6z"/>
		<path class="st0" d="M65.4,14.5L46.7,5.2L46.3,6c-0.8,1.6-0.9,3.5-0.4,5.2c0.6,1.7,1.8,3.1,3.4,3.9l8.9,4.5l-9.6,4.8
			c-3.4,1.7-4.7,5.8-3,9.1l0.4,0.8l19.3-9.7c1.9-1,3.1-2.9,3.1-5.1C68.5,17.4,67.3,15.5,65.4,14.5z"/>
		<path class="st0" d="M44.3,0.4c-1.7-0.6-3.6-0.5-5.2,0.3c-1.6,0.8-2.9,2.2-3.5,3.9L23.9,37.9l0.9,0.3c0.7,0.3,1.5,0.4,2.3,0.4
			c1,0,2-0.2,2.9-0.7c1.6-0.8,2.9-2.2,3.5-3.9L45.2,0.7L44.3,0.4z"/>
	</g>
	<g>
		<path class="st1" d="M79.4,19.9v-0.3c0-8.8,6.2-14.8,14.4-14.8c7,0,12.2,3.4,12.8,10.5h-6.7c-0.5-3.5-2.4-5.3-6.1-5.3
			c-4.6,0-7.5,3.6-7.5,9.6v0.3c0,6,2.8,9.5,7.5,9.5c3.6,0,6.1-1.8,6.6-5.6h6.4c-0.7,7.2-5.9,10.9-13,10.9
			C84.5,34.7,79.4,28.9,79.4,19.9z"/>
		<path class="st1" d="M107.8,23.9v-0.3c0-6.6,4.8-11,11.2-11c6.4,0,11.1,4.3,11.1,10.9v0.3c0,6.7-4.8,10.9-11.2,10.9
			C112.6,34.7,107.8,30.5,107.8,23.9z M124.2,23.8v-0.3c0-4.1-1.9-6.5-5.2-6.5c-3.2,0-5.2,2.3-5.2,6.4v0.3c0,4.1,1.9,6.5,5.2,6.5
			C122.3,30.2,124.2,27.8,124.2,23.8z"/>
		<path class="st1" d="M131.2,24v-0.3c0-7,4-11.1,9.3-11.1c3.4,0,5.5,1.5,6.7,3.6V3.5h5.8v30.8h-5.8v-3.5c-1.1,2.1-3.7,4-6.8,4
			C135.2,34.7,131.2,31,131.2,24z M147.3,23.8v-0.3c0-4.2-1.9-6.4-5.1-6.4c-3.3,0-5.1,2.2-5.1,6.4v0.3c0,4.2,2,6.3,4.9,6.3
			C145.2,30.1,147.3,28.1,147.3,23.8z"/>
		<path class="st1" d="M155.3,23.9v-0.3c0-6.7,4.7-11,10.9-11c5.5,0,10.3,3.2,10.3,10.8V25h-15.3c0.2,3.5,2.1,5.6,5.3,5.6
			c2.7,0,4.1-1.2,4.4-3h5.6c-0.7,4.6-4.3,7.1-10.1,7.1C160,34.7,155.3,30.7,155.3,23.9z M170.8,21.4c-0.2-3.2-1.8-4.7-4.6-4.7
			c-2.6,0-4.4,1.7-4.9,4.7C161.3,21.4,170.8,21.4,170.8,21.4z"/>
		<path class="st1" d="M184.7,30.9v3.4h-5.9V3.5h5.9v12.9c1.2-2,3.6-3.8,6.8-3.8c5.2,0,9.2,3.8,9.2,10.9v0.3c0,7-4,10.9-9.2,10.9
			C188.1,34.7,185.8,33.1,184.7,30.9z M194.7,23.8v-0.3c0-4.3-2.1-6.4-5.1-6.4c-3.1,0-5.2,2.1-5.2,6.4v0.3c0,4.3,2,6.3,5.2,6.3
			C192.9,30.1,194.7,27.9,194.7,23.8z"/>
		<path class="st1" d="M203.1,3.5h5.8v30.8h-5.8V3.5z"/>
		<path class="st1" d="M211.4,23.9v-0.3c0-6.6,4.8-11,11.2-11s11.1,4.3,11.1,10.9v0.3c0,6.7-4.8,10.9-11.2,10.9
			C216.2,34.7,211.4,30.5,211.4,23.9z M227.8,23.8v-0.3c0-4.1-1.9-6.5-5.2-6.5c-3.2,0-5.2,2.3-5.2,6.4v0.3c0,4.1,1.9,6.5,5.2,6.5
			C225.9,30.2,227.8,27.8,227.8,23.8z"/>
		<path class="st1" d="M234.7,23.9v-0.3c0-6.8,4.9-11,10.9-11c4.9,0,9.4,2.1,10,8.2H250c-0.4-2.5-1.9-3.6-4.3-3.6
			c-3,0-5.1,2.3-5.1,6.3v0.3c0,4.3,1.9,6.4,5.2,6.4c2.4,0,4.3-1.4,4.5-4.1h5.3c-0.3,5-4,8.5-10.1,8.5
			C239.4,34.7,234.7,30.8,234.7,23.9z"/>
		<path class="st1" d="M257.8,3.5h5.9V22l6.8-9h6.2l-7.7,9.6l8.3,11.5h-6.6l-7-10v10h-5.9L257.8,3.5L257.8,3.5z"/>
		<path class="st1" d="M276.7,27.6h5.5c0.2,1.9,1.2,3,3.7,3c2.3,0,3.3-0.9,3.3-2.3c0-1.5-1.3-2.1-4.3-2.5c-5.6-0.9-7.8-2.5-7.8-6.6
			c0-4.4,4.1-6.6,8.4-6.6c4.7,0,8.2,1.7,8.8,6.6h-5.4c-0.3-1.7-1.3-2.6-3.3-2.6c-1.9,0-3,0.9-3,2.2c0,1.3,1,1.9,4.1,2.3
			c5.3,0.8,8.2,2.1,8.2,6.6c0,4.6-3.3,7-8.9,7C280.3,34.7,276.9,32.2,276.7,27.6z"/>
	</g>
</g>
</svg>
