<?xml version="1.0" encoding="UTF-8"?><svg id="Ebene_1" xmlns="http://www.w3.org/2000/svg" viewBox="0 0 240 160"><defs><style>.cls-1,.cls-2{fill:#fff;}.cls-2{fill-rule:evenodd;}</style></defs><path class="cls-2" d="m47.64,89.42v-7.15c0-2.56-.5-3.99-2.83-3.99-1.06,0-1.79.56-2.39,1.21-.39-.73-1.06-1.21-2.39-1.21-.71,0-1.41.4-1.95.98v-.75h-2.45v10.91h2.45v-7.94c.29-.44.85-.91,1.37-.91.81,0,.96.44.96,1.79v7.07h2.45v-7.94c.29-.44.85-.91,1.37-.91.81,0,.96.44.96,1.79v7.07h2.45Z"/><path class="cls-2" d="m57.98,75.57c0-.81-.69-1.5-1.48-1.5s-1.5.69-1.5,1.5.69,1.48,1.5,1.48,1.48-.69,1.48-1.48h0Zm-3.97,0c0-.81-.69-1.5-1.48-1.5s-1.5.69-1.5,1.5.69,1.48,1.5,1.48,1.48-.69,1.48-1.48h0Zm4.26,13.85v-10.91h-2.45v7.94c-.29.44-.91.91-1.46.91-.87,0-1.04-.44-1.04-1.79v-7.07h-2.45v7.15c0,2.56.58,3.99,2.91,3.99.79,0,1.5-.39,2.04-.98v.75h2.45Z"/><polygon class="cls-1" points="64.27 89.42 64.27 74.26 61.82 75.49 61.82 89.42 64.27 89.42 64.27 89.42"/><polygon class="cls-1" points="70.38 89.42 70.38 74.26 67.92 75.49 67.92 89.42 70.38 89.42 70.38 89.42"/><path class="cls-2" d="m81.53,83.97c0-2.99-1.25-5.7-3.99-5.7-2.37,0-4.03,2.04-4.03,5.7,0,3.37,1.48,5.68,4.18,5.68,1.43,0,2.68-.64,3.49-1.98l-1.75-1.31c-.48.64-.83.96-1.7.96-.96,0-1.64-.75-1.75-2.43h5.51c.02-.29.04-.62.04-.91h0Zm-2.45-1.1h-3.1c.12-1.6.62-2.39,1.54-2.39,1.06,0,1.43,1.06,1.56,2.39h0Z"/><path class="cls-2" d="m90.73,78.84c-.52-.37-1-.56-1.73-.56-.81,0-1.58.5-2,.98v-.75h-2.45v10.91h2.45v-7.8c.42-.6.94-.94,1.58-.94.58,0,1.02.21,1.43.54l.71-2.39h0Z"/><path class="cls-1" d="m112.78,89.42l-2.5-7.36,2.37-3.55h-2.7l-1.52,2.58c-.25.42-.58,1.02-.83,1.56,0-.6.02-.94.02-1.54v-6.84l-2.45,1.23v13.93h2.45v-3.41l.98-1.6,1.62,5.01h2.56Z"/><path class="cls-2" d="m121.71,78.84c-.52-.37-1-.56-1.73-.56-.81,0-1.58.5-2,.98v-.75h-2.45v10.91h2.45v-7.8c.42-.6.94-.94,1.58-.94.58,0,1.02.21,1.43.54l.71-2.39h0Z"/><path class="cls-2" d="m131.34,83.97c0-2.99-1.25-5.7-3.99-5.7-2.37,0-4.03,2.04-4.03,5.7,0,3.37,1.48,5.68,4.18,5.68,1.43,0,2.68-.64,3.49-1.98l-1.75-1.31c-.48.64-.83.96-1.71.96-.96,0-1.64-.75-1.75-2.43h5.51c.02-.29.04-.62.04-.91h0Zm-2.45-1.1h-3.1c.12-1.6.62-2.39,1.54-2.39,1.06,0,1.43,1.06,1.56,2.39h0Z"/><path class="cls-2" d="m146.38,89.42v-7.15c0-2.56-.5-3.99-2.83-3.99-1.06,0-1.79.56-2.39,1.21-.39-.73-1.06-1.21-2.39-1.21-.71,0-1.41.4-1.95.98v-.75h-2.45v10.91h2.45v-7.94c.29-.44.85-.91,1.37-.91.81,0,.96.44.96,1.79v7.07h2.45v-7.94c.29-.44.85-.91,1.37-.91.81,0,.96.44.96,1.79v7.07h2.45Z"/><path class="cls-2" d="m157.45,83.95c0-3.85-1.14-5.68-3.18-5.68-.79,0-1.56.4-2.1.98v-.75h-2.45v14.93l2.45-1.23v-3.39c.48.5,1.16.83,1.89.83,2.39,0,3.39-2.37,3.39-5.7h0Zm-2.49.08c0,2.54-.35,3.33-1.23,3.33-.69,0-1.23-.46-1.56-.94v-4.95c.29-.44.91-.91,1.52-.91,1.02,0,1.27,1.08,1.27,3.47h0Z"/><path class="cls-2" d="m168.13,83.97c0-2.99-1.25-5.7-3.99-5.7-2.37,0-4.03,2.04-4.03,5.7,0,3.37,1.48,5.68,4.18,5.68,1.43,0,2.68-.64,3.49-1.98l-1.75-1.31c-.48.64-.83.96-1.7.96-.96,0-1.64-.75-1.75-2.43h5.51c.02-.29.04-.62.04-.91h0Zm-2.45-1.1h-3.1c.12-1.6.62-2.39,1.54-2.39,1.06,0,1.43,1.06,1.56,2.39h0Z"/><polygon class="cls-1" points="173.71 89.42 173.71 74.26 171.26 75.49 171.26 89.42 173.71 89.42 173.71 89.42"/><polygon class="cls-1" points="95.99 85.03 95.99 89.22 98.36 89.22 98.36 85.03 102.07 85.03 102.07 82.66 98.36 82.66 98.36 78.51 95.99 78.51 95.99 82.66 92.29 82.66 92.29 85.03 95.99 85.03 95.99 85.03"/><path class="cls-1" d="m182.35,84.77c-2.86-4.6-2.29-10.72,1.7-14.71,4.02-4.02,10.21-4.57,14.81-1.63l-2.35,5.14h-7.21c-.96,0-1.73.78-1.73,1.73v7.18s-5.22,2.29-5.22,2.29h0Zm18.54,2.14c-4.05,4.05-10.3,4.57-14.92,1.56l2.41-5.12h7.23c.96,0,1.73-.77,1.73-1.73l-.02-7.14,5.17-2.42c2.95,4.61,2.42,10.81-1.61,14.84h0Z"/></svg>