<?xml version="1.0" encoding="UTF-8"?><svg id="Ebene_1" xmlns="http://www.w3.org/2000/svg" viewBox="0 0 240 160"><defs><style>.cls-1{fill:#fff;}.cls-2{fill:none;stroke:#fff;stroke-miterlimit:10;}</style></defs><path class="cls-1" d="m87.68,75.03c-.27.38-.6.73-.99,1.06-.39.33-.82.62-1.29.87-.47.25-.99.44-1.54.58-.55.14-1.13.21-1.72.21-.99,0-1.89-.17-2.71-.51-.82-.34-1.52-.81-2.11-1.41-.59-.6-1.05-1.32-1.37-2.14-.32-.82-.49-1.73-.49-2.72s.16-1.86.49-2.69c.33-.84.78-1.56,1.37-2.18.59-.62,1.3-1.1,2.12-1.46.82-.36,1.73-.53,2.73-.53,1.21,0,2.26.22,3.16.66.9.44,1.65,1.08,2.25,1.91l-2.01,1.93c-.39-.54-.85-.98-1.38-1.31-.53-.33-1.17-.5-1.91-.5-.58,0-1.11.11-1.58.32-.47.21-.86.51-1.19.88-.32.38-.57.81-.75,1.31-.18.5-.26,1.03-.26,1.59s.09,1.1.26,1.6c.18.49.42.92.75,1.28s.71.65,1.17.86c.45.21.96.31,1.54.31.47,0,.87-.05,1.22-.15.34-.1.65-.23.91-.39.27-.16.5-.35.71-.56.21-.21.41-.43.6-.65l2,1.83Z"/><path class="cls-1" d="m93.43,75.3c.35,0,.66-.07.93-.2.27-.14.5-.32.69-.55.19-.23.33-.5.42-.79.09-.29.14-.59.14-.9s-.05-.61-.14-.9c-.09-.29-.23-.55-.42-.78-.19-.23-.42-.41-.69-.54-.27-.14-.58-.2-.93-.2s-.66.07-.94.2c-.28.14-.51.32-.69.54-.18.23-.32.49-.42.78-.1.29-.15.59-.15.9s.05.61.15.9c.1.29.24.56.42.79.18.23.41.42.69.55.28.14.59.2.94.2m-4.9-2.45c0-.67.12-1.31.36-1.9.24-.59.58-1.11,1-1.55.43-.44.94-.79,1.55-1.04.6-.25,1.27-.38,1.99-.38s1.39.13,1.99.38c.6.25,1.11.6,1.54,1.04.43.44.76.96,1,1.55.24.59.36,1.22.36,1.9s-.12,1.31-.36,1.9c-.24.59-.58,1.11-1,1.55-.43.44-.94.79-1.54,1.05-.6.26-1.26.39-1.99.39s-1.39-.13-1.99-.39c-.6-.26-1.12-.61-1.55-1.05-.43-.44-.76-.96-1-1.55-.24-.59-.36-1.22-.36-1.9"/><path class="cls-1" d="m108.04,76.21c-.38.42-.87.77-1.49,1.07-.62.3-1.35.45-2.19.45-.74,0-1.41-.12-2.01-.36-.6-.24-1.12-.58-1.55-1.01-.43-.43-.76-.95-1-1.55-.24-.6-.36-1.25-.36-1.97,0-.67.12-1.31.37-1.9.25-.59.59-1.11,1.02-1.55.43-.44.95-.79,1.56-1.04.6-.25,1.26-.38,1.97-.38.83,0,1.55.14,2.16.41.61.27,1.12.64,1.54,1.09l-1.69,1.83c-.21-.23-.46-.44-.76-.62-.3-.18-.69-.27-1.19-.27-.34,0-.64.07-.9.2-.27.14-.49.31-.68.53-.19.22-.33.48-.43.77-.1.29-.15.6-.15.92,0,.3.05.59.15.89.1.29.24.55.43.78.19.23.41.41.68.56.27.14.57.21.9.21.48,0,.88-.09,1.21-.28.33-.19.58-.39.78-.61l1.63,1.83Z"/><path class="cls-1" d="m114.69,73.39c-.06-.01-.19-.03-.37-.05-.18-.02-.39-.03-.62-.03-.78,0-1.33.11-1.65.33-.33.22-.49.53-.49.93,0,.75.45,1.13,1.36,1.13.22,0,.44-.04.65-.11.21-.07.4-.17.56-.3.16-.13.3-.29.4-.49.1-.19.16-.42.16-.68v-.74Zm0,3.17c-.31.36-.7.64-1.18.84-.47.19-1,.29-1.59.29-.33,0-.66-.04-1.02-.14-.36-.09-.69-.24-.99-.46-.3-.21-.56-.5-.76-.87-.2-.36-.3-.82-.3-1.36s.11-1.01.32-1.42c.21-.41.51-.76.89-1.04.38-.28.82-.49,1.33-.63.51-.14,1.07-.21,1.66-.21.33,0,.65,0,.98.02.33.01.55.03.65.06v-.19c0-.23-.05-.43-.15-.59-.1-.16-.23-.3-.39-.41-.16-.11-.35-.19-.55-.23-.21-.04-.43-.07-.66-.07-.62,0-1.14.08-1.55.23-.41.16-.76.33-1.04.53l-1.15-1.71c.19-.14.42-.28.66-.43.25-.14.54-.27.88-.39.34-.12.72-.21,1.14-.28.42-.07.9-.11,1.45-.11,1.39,0,2.41.37,3.07,1.12.66.74.99,1.75.99,3.01v5.31h-2.63l-.08-.86Z"/><rect class="cls-1" x="120.05" y="70.65" width="6.17" height="2.67"/><path class="cls-1" d="m140.76,75.03c-.27.38-.6.73-.99,1.06-.39.33-.82.62-1.29.87-.47.25-.99.44-1.54.58-.55.14-1.13.21-1.72.21-.99,0-1.89-.17-2.7-.51-.82-.34-1.52-.81-2.11-1.41-.59-.6-1.05-1.32-1.37-2.14-.32-.82-.49-1.73-.49-2.72s.16-1.86.49-2.69c.33-.84.78-1.56,1.37-2.18.59-.62,1.3-1.1,2.12-1.46.82-.36,1.74-.53,2.74-.53,1.21,0,2.26.22,3.16.66.9.44,1.65,1.08,2.25,1.91l-2.01,1.93c-.39-.54-.85-.98-1.38-1.31-.53-.33-1.17-.5-1.91-.5-.58,0-1.11.11-1.58.32-.47.21-.86.51-1.19.88-.33.38-.57.81-.75,1.31-.17.5-.26,1.03-.26,1.59s.09,1.1.26,1.6c.18.49.42.92.75,1.28.32.36.71.65,1.17.86.45.21.97.31,1.54.31.47,0,.87-.05,1.22-.15.34-.1.65-.23.91-.39.27-.16.5-.35.71-.56.21-.21.41-.43.6-.65l2,1.83Z"/><path class="cls-1" d="m146.51,75.3c.35,0,.66-.07.93-.2.27-.14.5-.32.69-.55.19-.23.33-.5.42-.79.09-.29.14-.59.14-.9s-.05-.61-.14-.9c-.09-.29-.23-.55-.42-.78-.19-.23-.42-.41-.69-.54-.27-.14-.58-.2-.93-.2s-.66.07-.94.2c-.28.14-.51.32-.69.54-.18.23-.32.49-.42.78-.1.29-.15.59-.15.9s.05.61.15.9c.1.29.24.56.42.79.18.23.41.42.69.55.28.14.59.2.94.2m-4.9-2.45c0-.67.12-1.31.36-1.9.24-.59.57-1.11,1-1.55.43-.44.94-.79,1.55-1.04.6-.25,1.27-.38,2-.38s1.39.13,1.98.38c.6.25,1.11.6,1.54,1.04.43.44.76.96,1,1.55.24.59.36,1.22.36,1.9s-.12,1.31-.36,1.9c-.24.59-.57,1.11-1,1.55-.43.44-.94.79-1.54,1.05-.6.26-1.26.39-1.98.39s-1.39-.13-2-.39c-.6-.26-1.12-.61-1.55-1.05-.43-.44-.76-.96-1-1.55-.24-.59-.36-1.22-.36-1.9"/><rect class="cls-1" x="152.97" y="64.44" width="2.8" height="12.98"/><path class="cls-1" d="m163.42,73.39c-.06-.01-.19-.03-.37-.05-.18-.02-.39-.03-.62-.03-.78,0-1.33.11-1.65.33-.33.22-.49.53-.49.93,0,.75.45,1.13,1.36,1.13.22,0,.44-.04.65-.11.21-.07.4-.17.56-.3.16-.13.29-.29.4-.49.1-.19.16-.42.16-.68v-.74Zm0,3.17c-.31.36-.7.64-1.18.84-.47.19-1,.29-1.58.29-.33,0-.66-.04-1.02-.14-.36-.09-.69-.24-.99-.46-.31-.21-.56-.5-.76-.87-.2-.36-.3-.82-.3-1.36s.11-1.01.32-1.42c.21-.41.51-.76.88-1.04.38-.28.82-.49,1.33-.63.51-.14,1.07-.21,1.66-.21.32,0,.65,0,.98.02.33.01.55.03.65.06v-.19c0-.23-.05-.43-.15-.59-.1-.16-.23-.3-.39-.41-.16-.11-.35-.19-.55-.23-.21-.04-.43-.07-.66-.07-.62,0-1.14.08-1.55.23-.41.16-.76.33-1.04.53l-1.15-1.71c.19-.14.41-.28.66-.43.25-.14.54-.27.88-.39.34-.12.72-.21,1.14-.28.42-.07.91-.11,1.45-.11,1.39,0,2.41.37,3.08,1.12.66.74.99,1.75.99,3.01v5.31h-2.63l-.08-.86Z"/><path class="cls-2" d="m58.31,89.06c0-.09,0-.18,0-.27.02-.48.06-.82.06-.95,0-.34.58-3.86.67-4.68.09-.82-.12-1.01-.12-1.01.54-3.01-.47-6.23-.47-6.23.36-.31-.39-1.92-.39-1.92-.55-1.33-1.23-3.21-1.23-3.21h0c-.11-.43-.26-1.05-.37-1.73-.1-1.04-.11-2.1-.11-2.44,0-.27.34-.25.34-.49,0-.28-.34-.96-.36-1.03-.01-.05,0-.17.03-.24.04-.08.1-.14.1-.14,0-.32-.25-.65-.63-.65h-2.95c-.38,0-.63.32-.63.65,0,0,.07.06.11.14.03.07.04.19.03.24-.02.07-.35.75-.35,1.03,0,.24.34.23.34.49,0,.34,0,1.39-.11,2.43-.12.68-.26,1.31-.37,1.74h0s-.67,1.88-1.23,3.21c0,0-.75,1.61-.39,1.92,0,0-1.01,3.22-.47,6.23,0,0-.21.19-.13,1.01.09.82.66,4.34.66,4.68,0,.13.05.48.06.97v.26c0,2.14-.88,3.18-.88,4.57,0,1.84,1.17,2.8,4.84,2.8s4.83-.96,4.83-2.8c0-1.38-.88-2.43-.88-4.57"/><path class="cls-2" d="m40.31,89.07c0-.09,0-.19,0-.27.02-.47.06-.82.06-.95,0-.34.58-3.87.67-4.68.09-.81-.12-1-.12-1,.54-3.01-.47-6.24-.47-6.24.36-.31-.39-1.92-.39-1.92-.56-1.32-1.23-3.21-1.23-3.21h0c-.11-.43-.26-1.05-.37-1.72-.1-1.04-.11-2.1-.11-2.44,0-.27.34-.25.34-.49,0-.28-.34-.96-.35-1.03-.01-.05,0-.17.03-.24.04-.08.11-.14.11-.14,0-.33-.25-.65-.63-.65h-2.95c-.38,0-.63.32-.63.65,0,0,.07.06.11.14.03.07.04.19.02.24-.02.07-.36.75-.36,1.03,0,.24.34.23.34.49,0,.34,0,1.4-.11,2.43-.12.68-.26,1.31-.37,1.73h0s-.67,1.89-1.23,3.21c0,0-.75,1.61-.39,1.92,0,0-1.01,3.23-.47,6.24,0,0-.21.19-.12,1,.08.82.66,4.34.66,4.68,0,.12.04.48.06.96v.26c0,2.14-.88,3.18-.88,4.56,0,1.84,1.17,2.8,4.84,2.8s4.84-.96,4.84-2.8c0-1.38-.88-2.42-.88-4.56"/><path class="cls-2" d="m50.47,91.39c0-.12,0-.24,0-.35.03-.61.08-1.06.08-1.23,0-.43.75-4.99.86-6.04.11-1.05-.16-1.3-.16-1.3.7-3.89-.61-8.05-.61-8.05.47-.4-.5-2.48-.5-2.48-.72-1.71-1.59-4.15-1.59-4.15h0c-.14-.55-.33-1.35-.48-2.23-.13-1.35-.14-2.72-.14-3.16,0-.34.44-.33.44-.64,0-.36-.44-1.24-.46-1.33-.02-.07,0-.21.03-.31.05-.11.14-.18.14-.18,0-.42-.32-.84-.81-.84h-3.81c-.49,0-.81.42-.81.84,0,0,.09.07.14.18.04.1.05.24.04.31-.03.09-.46.98-.46,1.33,0,.31.44.29.44.64,0,.44-.01,1.81-.14,3.15-.15.88-.34,1.69-.48,2.24h0s-.87,2.44-1.59,4.15c0,0-.97,2.08-.51,2.48,0,0-1.3,4.17-.6,8.05,0,0-.27.25-.16,1.3.11,1.05.86,5.61.86,6.04,0,.17.06.62.08,1.25v.33c0,2.77-1.14,4.11-1.14,5.9,0,2.38,1.51,3.62,6.25,3.62s6.25-1.24,6.25-3.62c0-1.79-1.14-3.13-1.14-5.9"/><path class="cls-1" d="m171.86,64.77h2.92v4.96h5.6v-4.96h2.92v12.93h-2.92v-5.31h-5.6v5.31h-2.92v-12.93Z"/><path class="cls-1" d="m185.21,64.77h4.85c.8,0,1.48.09,2.03.28.55.19,1.01.44,1.36.75.35.31.6.67.75,1.08.15.41.23.83.23,1.27,0,.41-.07.78-.22,1.1-.15.32-.32.59-.52.81-.2.23-.41.4-.64.53-.23.13-.41.21-.55.25.22.06.48.16.78.29.31.13.6.32.87.57.27.25.5.57.69.95.19.38.28.83.28,1.35,0,.67-.12,1.24-.36,1.71-.24.47-.58.85-1.01,1.14-.43.3-.96.51-1.59.65-.63.14-1.33.2-2.1.2h-4.85v-12.93Zm4.57,5.18c.22,0,.44-.03.65-.08.21-.05.4-.13.56-.24.16-.11.29-.26.4-.45.1-.19.15-.42.15-.69s-.05-.52-.15-.71c-.1-.19-.24-.34-.41-.45-.17-.11-.36-.19-.57-.23-.21-.05-.42-.07-.63-.07h-1.72v2.91h1.72Zm.18,5.5c.21,0,.44-.02.7-.05.26-.03.5-.11.72-.22.22-.12.4-.28.55-.5.15-.22.22-.52.22-.91,0-.35-.07-.63-.21-.85-.14-.22-.32-.39-.54-.51-.22-.12-.46-.21-.72-.25s-.5-.07-.72-.07h-1.9v3.37h1.9Z"/><path class="cls-1" d="m208.48,75.31c-.27.38-.6.73-.99,1.06-.39.33-.82.62-1.29.86-.47.25-.98.44-1.53.58-.55.14-1.12.21-1.71.21-.98,0-1.88-.17-2.69-.5-.81-.34-1.51-.8-2.1-1.4-.59-.6-1.04-1.31-1.37-2.13-.32-.82-.48-1.72-.48-2.7s.16-1.85.48-2.68c.32-.83.78-1.56,1.37-2.17.59-.61,1.29-1.1,2.11-1.45.82-.35,1.73-.53,2.72-.53,1.2,0,2.25.22,3.15.66.9.44,1.64,1.07,2.24,1.9l-2,1.92c-.39-.54-.85-.98-1.38-1.31-.53-.33-1.16-.5-1.9-.5-.58,0-1.1.11-1.57.32-.46.21-.86.51-1.18.88-.32.38-.57.81-.75,1.31-.17.5-.26,1.02-.26,1.58s.09,1.1.26,1.59c.18.49.42.92.75,1.28.32.36.71.65,1.16.85.45.21.96.31,1.53.31.46,0,.87-.05,1.21-.15s.65-.22.91-.39c.26-.16.5-.35.71-.56.21-.21.41-.43.6-.65l2,1.82Z"/><path class="cls-1" d="m76.88,92.55c.17.18.37.37.6.56.23.19.48.36.76.52.28.16.59.28.92.38.33.1.69.15,1.06.15.22,0,.44-.03.66-.1.22-.06.42-.16.6-.28.18-.12.33-.27.44-.45.11-.18.17-.37.17-.59,0-.48-.23-.85-.7-1.12-.47-.27-1.21-.53-2.22-.79-.49-.12-.95-.29-1.38-.51-.42-.22-.79-.49-1.09-.8-.31-.31-.54-.67-.71-1.07-.17-.4-.25-.85-.25-1.35,0-.55.1-1.06.29-1.54.2-.48.49-.91.89-1.28.4-.37.89-.66,1.48-.88.59-.21,1.29-.32,2.1-.32.66,0,1.25.07,1.76.21s.94.3,1.3.49.65.38.88.59c.23.2.4.36.52.48l-1.7,1.87c-.14-.12-.31-.24-.5-.38-.19-.14-.4-.26-.63-.38-.23-.12-.49-.21-.77-.29-.28-.08-.58-.12-.89-.12-.21,0-.41.03-.61.1-.2.07-.38.15-.55.26s-.29.24-.39.39c-.1.15-.15.31-.15.48,0,.44.23.8.7,1.07.47.27,1.11.5,1.93.68.48.12.95.28,1.41.48s.87.46,1.24.79c.36.32.66.72.88,1.2.22.47.33,1.05.33,1.73,0,.59-.13,1.12-.39,1.62-.26.49-.61.92-1.06,1.29-.45.36-.98.65-1.58.85-.6.2-1.26.3-1.96.3-.65,0-1.24-.06-1.78-.19-.53-.12-1.01-.29-1.44-.49s-.82-.43-1.16-.69c-.34-.26-.64-.53-.89-.8l1.89-2.05Z"/><path class="cls-1" d="m95.31,95.22c-.38.42-.88.77-1.49,1.07-.62.3-1.35.45-2.19.45-.74,0-1.41-.12-2.02-.36-.6-.24-1.12-.58-1.55-1.01-.43-.44-.76-.95-1-1.55-.24-.6-.36-1.25-.36-1.97,0-.68.12-1.31.37-1.9.25-.59.59-1.11,1.02-1.55.44-.44.96-.79,1.56-1.04.6-.25,1.26-.38,1.98-.38.83,0,1.55.14,2.17.41.61.27,1.12.64,1.54,1.09l-1.7,1.83c-.21-.23-.46-.44-.76-.62-.3-.18-.7-.27-1.19-.27-.34,0-.64.07-.91.21-.27.14-.49.31-.68.54s-.33.48-.43.77c-.1.29-.15.6-.15.93,0,.3.05.59.15.89.1.29.24.55.43.78s.42.41.68.56c.27.14.57.21.91.21.48,0,.88-.09,1.21-.28s.59-.39.78-.61l1.64,1.83Z"/><path class="cls-1" d="m96.6,83.42h2.79v4.74c.3-.35.7-.62,1.19-.81.49-.19.99-.28,1.5-.28,1.05,0,1.89.31,2.53.94.63.62.95,1.55.95,2.77v5.66h-2.79v-5.23c0-.53-.14-.95-.41-1.25-.27-.3-.64-.45-1.09-.45-.3,0-.57.06-.8.17-.23.11-.43.26-.59.44-.16.18-.27.39-.35.63-.08.24-.12.5-.12.77v4.92h-2.81v-13.01Z"/><path class="cls-1" d="m106.41,87.28h2.89l1.6,5.87,1.78-5.87h2.24l1.79,5.87,1.6-5.87h2.83l-3.14,9.15h-2.54l-1.72-5.11-1.7,5.11h-2.5l-3.14-9.15Z"/><path class="cls-1" d="m130.64,95.44c-.1.06-.26.17-.47.32-.21.15-.48.3-.81.44s-.73.27-1.18.38c-.46.11-.98.17-1.56.17-.78,0-1.48-.12-2.11-.36-.62-.24-1.15-.58-1.59-1s-.77-.95-.99-1.55c-.23-.61-.34-1.27-.34-2,0-.64.11-1.25.32-1.84.21-.59.52-1.11.93-1.55.4-.44.9-.8,1.48-1.06.59-.27,1.25-.4,1.99-.4s1.39.13,1.95.39c.56.26,1.03.62,1.41,1.08.38.46.67,1.01.87,1.66.19.64.29,1.35.29,2.12v.47h-6.52c.01.49.23.93.65,1.3.42.37,1,.56,1.75.56s1.32-.11,1.78-.32c.46-.21.79-.4.99-.56l1.15,1.77Zm-2.46-4.55c0-.19-.04-.39-.12-.59s-.2-.39-.35-.56c-.16-.17-.35-.31-.59-.42s-.51-.17-.84-.17-.61.06-.86.17c-.25.11-.45.25-.61.42-.16.17-.29.35-.37.56s-.13.4-.13.59h3.86Z"/><path class="cls-1" d="m132.41,83.42h3v2.52h-3v-2.52Zm.1,3.86h2.81v9.15h-2.81v-9.15Z"/><path class="cls-1" d="m137.21,94.54l4.49-4.99h-4.29v-2.26h7.84v1.93l-4.51,5.01h4.53v2.2h-8.06v-1.89Z"/></svg>