<?xml version="1.0" encoding="utf-8"?>
<!-- Generator: Adobe Illustrator 23.0.6, SVG Export Plug-In . SVG Version: 6.00 Build 0)  -->
<svg version="1.1" id="Ebene_1" xmlns="http://www.w3.org/2000/svg" xmlns:xlink="http://www.w3.org/1999/xlink" x="0px" y="0px"
	 viewBox="0 0 240 160" style="enable-background:new 0 0 240 160;" xml:space="preserve">
<style type="text/css">
	.st0{fill:#FFFFFF;}
</style>
<g>
	<path class="st0" d="M168.6,91H168v2.2h0.6c0.7,0,0.9-0.5,0.9-1.1C169.6,91.4,169.3,90.9,168.6,91 M160.7,91.1l-0.5,1.6h0.9
		L160.7,91.1z M154,90.9h-0.9v1h0.9c0.3,0,0.5-0.1,0.5-0.5C154.5,91,154.3,90.9,154,90.9 M115.6,91H115v2.2h0.6
		c0.7,0,0.9-0.5,0.9-1.1C116.5,91.4,116.3,90.9,115.6,91 M111.8,91.1l-0.5,1.6h0.9L111.8,91.1z M101.6,90.9h-0.7V92V92h0.8
		c0.4,0,0.6-0.3,0.6-0.6C102.2,91.1,102,90.9,101.6,90.9 M96.3,92c0,0.6,0.2,1.2,0.9,1.2c0.7,0,0.9-0.6,0.9-1.2
		c0-0.6-0.2-1.2-0.9-1.2C96.7,90.9,96.3,91.2,96.3,92 M89.2,90.9h-0.7V92V92h0.8c0.4,0,0.6-0.3,0.6-0.6
		C89.8,91.1,89.6,90.9,89.2,90.9 M114.5,73.7c0-0.4,0-1.4-1.7-1.4h-4.6l-1,4.6h4.3C113.3,76.9,114.5,75.6,114.5,73.7 M176.4,71.3
		l-6.2,3.9l-0.4-0.6c-1-1.6-2.7-2.5-4.9-2.5c-1.2,0-3,0.8-3,1.9c0,0.6,1.1,0.9,2.1,1.1c0.3,0.1,0.7,0.1,1.1,0.2
		c3.5,0.6,8.7,1.4,8.7,6.1c0,0.5-0.1,0.9-0.2,1.5c-0.5,2.2-1.6,4.1-3.1,5.6l-0.2,0.2h-17.7l-0.2-0.2c-0.6-0.6-1-1.1-1.5-1.8
		l-0.1-0.1c-0.6,0.7-1.3,1.4-2.1,2l-0.2,0.1h-15.4l-0.2-0.2c-1.4-1.7-2.2-4-2.2-6.7c0-0.9,0.1-1.9,0.3-3c1.5-7.4,7.4-12.5,14.3-12.5
		c4.5,0,7.4,2.1,8.9,6.4l0.2,0.6L148,76l-0.1-0.9c-0.3-1.7-1.6-2.8-3.2-2.8c-4.6,0-6,4.6-6.4,6.6c-0.2,0.7-0.2,1.4-0.2,2.2
		c0,2.7,1.3,4.1,3.8,4.1c1.8,0,3.9-1.5,4.7-2.9l0.4-0.6l5.4,2.9l-0.2,0.3l4.6-2.6l0.4,0.4c1.7,1.9,3.2,2.6,5.4,2.6
		c1.4,0,4.1-0.7,4.1-2.3c0-0.3-0.2-0.6-1.6-0.9c-0.7-0.1-1.4-0.2-2.2-0.4s-1.6-0.2-2.4-0.4c-3.9-0.7-5.9-2.7-5.9-5.6
		c0-0.5,0.1-1,0.2-1.6c1.1-5.1,5.6-8.3,11.6-8.3c4.1,0,7.7,1.7,9.7,4.7L176.4,71.3z M132.2,66.6l-4.6,21.8h-7.2l4.6-21.8
		C125,66.6,132.2,66.6,132.2,66.6z M121.8,72.7c0,4-2.4,7.4-6.1,8.7l2.5,7.1h-7.9l-2-5.9h-2.5l-1.2,5.9h-7.1l4.4-20.8L90.8,79.8
		l-1.9,8.7h-7.2l1.9-8.9l-6.4-12.9h8.4l2.9,7.1l5.9-7.1h19.8C119.1,66.6,121.8,68.8,121.8,72.7 M74,66.6l-3.8,17.9H79l-0.8,3.9h-16
		l4.6-21.8C66.8,66.6,74,66.6,74,66.6z M81.6,90.2h0.9v1.4H84v-1.4h0.9v3.7H84v-1.6h-1.4v1.6h-0.9V90.2z M85.7,90.2h0.9v3.7h-0.9
		V90.2z M87.5,90.1h1.9c1,0,1.4,0.6,1.4,1.3c0,0.5-0.3,1.3-1.6,1.3h-0.7v1.2h-0.9C87.5,93.9,87.5,90.1,87.5,90.1z M91.3,90.2h0.9
		v1.4h1.4v-1.4h0.9v3.7h-0.9v-1.6h-1.4v1.6h-0.9V90.2z M95.3,92c0-1.1,0.7-2,1.9-2c1.2,0,1.9,0.9,1.9,2s-0.7,2-1.9,2
		C96,94,95.3,93.1,95.3,92 M99.8,90.1h1.9c1,0,1.4,0.6,1.4,1.3c0,0.5-0.3,1.3-1.6,1.3h-0.7v1.2h-0.9V90.1z M105.2,90.2h1.4l0.7,2.8
		l0.7-2.8h1.4v3.7h-0.9V91l-0.7,2.9h-0.8l-0.8-2.9v2.9h-0.9V90.2z M109.9,93.9l1.4-3.7h1l1.4,3.7h-1l-0.2-0.6h-1.4l-0.2,0.6H109.9z
		 M114.2,90.2h1.4c1.1,0,1.9,0.6,1.9,1.9s-0.7,1.9-1.9,1.9h-1.4V90.2z M118.2,90.1h2.8v0.7h-1.8v0.7h1.7v0.7h-1.7v0.9h2v0.7h-2.9
		L118.2,90.1L118.2,90.1z M123.3,90.2h0.9v3.7h-0.9V90.2z M125.1,90.2h0.9l1.4,2.4v-2.4h0.9v3.7h-0.9l-1.4-2.4v2.4h-0.9V90.2z
		 M130.5,93.2l0.7-0.5c0.3,0.3,0.7,0.5,1.1,0.5c0.2,0,0.7-0.1,0.7-0.4c0-0.2-0.1-0.3-0.4-0.3l-0.8-0.1c-0.7-0.1-1.1-0.5-1.1-1
		c0-0.9,0.7-1.3,1.6-1.3c0.7,0,1.2,0.2,1.7,0.7l-0.7,0.5c-0.2-0.3-0.6-0.5-1-0.5c-0.2,0-0.6,0.1-0.6,0.4c0,0.2,0.2,0.3,0.6,0.3
		l0.4,0.1c0.7,0.1,1.4,0.3,1.4,1.1c0,1.1-1,1.4-1.7,1.4C131.5,94,131,93.8,130.5,93.2 M134.1,90.2h0.9l0.6,2.7l0.7-2.7h0.9l0.7,2.7
		l0.6-2.7h0.9l-1,3.7h-1l-0.7-2.6l-0.7,2.6h-0.9L134.1,90.2z M139.9,90.2h0.9v3.7h-0.9V90.2z M141.4,90.1h2.9v0.7h-1v3.1h-0.9v-3.1
		h-1V90.1z M144.7,93.2l2.1-2.3h-1.9v-0.7h3.1v0.7l-2.1,2.3h2.1v0.7h-3.2L144.7,93.2L144.7,93.2z M148.6,90.1h2.8v0.7h-1.8v0.7h1.7
		v0.7h-1.7v0.8h2v0.7h-3V90.1z M152.1,90.1h1.9c0.8,0,1.4,0.4,1.4,1.2c0,0.5-0.3,0.9-0.7,1l0.9,1.5h-1.1l-0.7-1.4h-0.6v1.3h-1V90.1z
		 M156.1,90.2h0.9v2.9h1.4v0.8h-2.4V90.2z M158.8,93.9l1.4-3.7h1l1.4,3.7h-1l-0.2-0.6H160l-0.2,0.6H158.8z M163.1,90.2h0.9l1.4,2.4
		v-2.4h0.9v3.7h-0.9l-1.4-2.4v2.4h-0.9V90.2z M167.1,90.2h1.4c1.2,0,1.9,0.6,1.9,1.9s-0.7,1.9-1.9,1.9h-1.4V90.2z M190,56.7H50v46.7
		h140V56.7z"/>
</g>
</svg>
