<?xml version="1.0" encoding="utf-8"?>
<!-- Generator: Adobe Illustrator 26.0.1, SVG Export Plug-In . SVG Version: 6.00 Build 0)  -->
<svg version="1.1" id="Ebene_1" xmlns="http://www.w3.org/2000/svg" xmlns:xlink="http://www.w3.org/1999/xlink" x="0px" y="0px"
	 viewBox="0 0 300 43.4" style="enable-background:new 0 0 300 43.4;" xml:space="preserve">
<style type="text/css">
	.st0{fill:#FFFFFF;}
	.st1{fill:#F50057;}
</style>
<g>
	<path class="st0" d="M76,9.9l1.7-6.4c-1.3-0.7-3.5-1.3-5.9-1.3c-5.6,0-9.7,3.8-9.7,9v1.1h-4.2v8.2h4.2v17.1h9.4V20.5h5.2v-8.2h-5.2
		v-0.9c0-1.4,1-2.3,2.5-2.3C74.7,9.3,75.4,9.5,76,9.9 M96.9,37.8h9.4V12.6h-9.4v15.6c-0.7,0.9-1.9,2-4.1,2c-2.3,0-3.6-1-3.6-3.6v-14
		h-9.4v18c0,4.3,2.5,7.8,8.4,8c4.5,0,7.2-1.9,8.7-3.5V37.8z M123,27.8v-7.1h5.2v-8.2H123V5.6h-9.4v6.9h-4.2v8.2h4.2v9.8
		c0,5.4,3,8,8.7,8c3.2,0,5.4-0.7,6.4-1.7l-1.7-7.1c-0.1,0.1-1,0.4-1.9,0.4C123.8,30.1,123,29.1,123,27.8 M148.9,37.8h9.4V12.6h-9.4
		v15.6c-0.7,0.9-1.9,2-4.1,2c-2.3,0-3.6-1-3.6-3.6v-14h-9.4v18c0,4.3,2.5,7.8,8.4,8c4.5,0,7.2-1.9,8.7-3.5L148.9,37.8L148.9,37.8z
		 M177.5,20.7c0.9,0,1.7,0.1,2.2,0.3v-9c-2.9,0-6.2,1.7-7.8,3.5v-2.9h-9.4v25.2h9.4V22.4C173,21.3,175.6,20.7,177.5,20.7
		 M200.1,25.2c0,2.9-1.6,5.1-4.6,4.9c-2.9,0-4.5-2.2-4.5-5.1c0-2.7,1.6-4.9,4.5-4.9C198.5,20.3,200.1,22.4,200.1,25.2 M209.8,25.2
		c0-7.1-5.2-13.2-14.3-13.2c-9,0-14.2,6.2-14.3,13.2c0,7.1,5.2,13.2,14.2,13.2C204.6,38.6,209.8,32.3,209.8,25.2"/>
	<g>
		<path class="st1" d="M10.5,34.5c-2,2-2,5.4,0,7.4s5.4,2,7.4,0l3.6-3.6l3.6,3.6c2,2,5.4,2,7.4,0s2-5.4,0-7.4l-7.4-7.3
			c-2-2-5.4-2-7.4,0L10.5,34.5z"/>
		<path class="st1" d="M16.1,18.1l-7.4-7.3c-2-2-5.2-2-7.2,0s-2,5.4,0,7.4l3.6,3.6l-3.6,3.6c-2,2-2,5.4,0,7.4s5.4,2,7.4,0l7.4-7.5
			C18.2,23.4,18.2,20.1,16.1,18.1"/>
		<path class="st1" d="M32.8,8.9c2-2,2-5.4,0-7.4s-5.4-2-7.4,0l-3.8,3.8L18,1.7c-2-2-5.4-2-7.4,0s-2,5.2,0,7.2l7.4,7.4
			c2,2,5.4,2,7.4,0L32.8,8.9z"/>
		<path class="st1" d="M41.9,25.3l-3.8-3.6l3.6-3.6c2-2,2-5.4,0-7.4s-5.4-2-7.4,0L27,18.1c-2,2-2,5.4,0,7.4l7.4,7.4c2,2,5.4,2,7.4,0
			C43.9,30.7,43.9,27.3,41.9,25.3"/>
	</g>
</g>
</svg>
