<?xml version="1.0" encoding="utf-8"?>
<!-- Generator: Adobe Illustrator 24.3.0, SVG Export Plug-In . SVG Version: 6.00 Build 0)  -->
<svg version="1.1" id="Ebene_1" xmlns="http://www.w3.org/2000/svg" xmlns:xlink="http://www.w3.org/1999/xlink" x="0px" y="0px"
	 viewBox="0 0 240 160" style="enable-background:new 0 0 240 160;" xml:space="preserve">
<style type="text/css">
	.st0{fill:#FFFFFF;}
</style>
<g id="Backround">
	<rect x="39.4" y="62.4" class="st0" width="164" height="35.1"/>
</g>
<g id="DENNER">
	<path d="M183.9,79.5c3,0,4-1.2,4-2.6s-1.3-2.1-3-2.1h-2.6l-1.3,4.7H183.9L183.9,79.5z M176.3,68.3h9.2c6,0,10.4,1.9,10.4,7.4
		c0,3.6-1.9,6.8-6.5,8.2l3.3,7.7h-8.5l-2.4-6.8h-2.1l-1.9,6.8H170L176.3,68.3z M153.8,68.3h19.9l-1.7,6.4h-12.1l-0.7,2.5h11.3
		l-1.5,5.5h-11.3l-0.7,2.5h12.3l-1.7,6.4h-20.2L153.8,68.3z M127.7,68.3h7.4l5.3,11.2l3-11.2h7.7l-6.3,23.5h-7l-5.5-11.6l-3.1,11.6
		h-7.7L127.7,68.3z M101.6,68.3h7.4l5.2,11.6l3.1-11.6h7.7l-6.3,23.5h-6.9l-5.4-12l-3.2,12h-7.7L101.6,68.3z M79,68.3h19.9l-1.7,6.4
		H85.1l-0.7,2.5h11.3l-1.5,5.5H82.9l-0.7,2.5h12.4l-1.7,6.4H72.8L79,68.3z M58.1,84.9c4.2,0,7.6-1.5,7.6-5.9c0-2.9-1.9-3.9-4.7-3.9
		h-1.7l-2.6,9.8H58.1z M53.2,68.3h8.1c7.7,0,12.6,3.1,12.6,9.9c0,8.9-7,13.5-16.3,13.5H46.9L53.2,68.3z"/>
</g>
</svg>
