<?xml version="1.0" encoding="UTF-8"?><svg id="Ebene_1" xmlns="http://www.w3.org/2000/svg" xmlns:xlink="http://www.w3.org/1999/xlink" viewBox="0 0 240 160"><defs><style>.cls-1{fill:#fff;}.cls-2{fill:url(#Unbenannter_Verlauf_70);}.cls-3{fill:url(#Unbenannter_Verlauf_69);}</style><linearGradient id="Unbenannter_Verlauf_70" x1="-54.91" y1="138.34" x2="-54.91" y2="194.62" gradientTransform="translate(174.51 277.5) scale(1 -1)" gradientUnits="userSpaceOnUse"><stop offset=".27" stop-color="#fff" stop-opacity="0"/><stop offset=".35" stop-color="#fff" stop-opacity=".03"/><stop offset=".45" stop-color="#fff" stop-opacity=".1"/><stop offset=".57" stop-color="#fff" stop-opacity=".22"/><stop offset=".69" stop-color="#fff" stop-opacity=".39"/><stop offset=".81" stop-color="#fff" stop-opacity=".61"/><stop offset="1" stop-color="#fff" stop-opacity=".87"/></linearGradient><linearGradient id="Unbenannter_Verlauf_69" x1="-2459.27" y1="619.85" x2="-2459.27" y2="676.13" gradientTransform="translate(-2339.67 -599.01) rotate(-180) scale(1 -1)" gradientUnits="userSpaceOnUse"><stop offset=".27" stop-color="#fff" stop-opacity="0"/><stop offset=".34" stop-color="#fff" stop-opacity=".02"/><stop offset=".44" stop-color="#fff" stop-opacity=".08"/><stop offset=".54" stop-color="#fff" stop-opacity=".19"/><stop offset=".65" stop-color="#fff" stop-opacity=".33"/><stop offset=".77" stop-color="#fff" stop-opacity=".52"/><stop offset="1" stop-color="#fff" stop-opacity=".75"/></linearGradient></defs><rect class="cls-2" x="91.5" y="80" width="56.2" height="42.67"/><rect class="cls-3" x="91.5" y="37.34" width="56.2" height="42.66"/><path class="cls-1" d="m68.78,74.07h-.23v-1.85h.15c.87,0,1.58.08,1.58.91s-.53.94-1.51.94h0Zm-.23-4.87h.11c.75,0,1.06.26,1.06.87,0,.64-.26.87-1.09.87h-.08v-1.74Zm2.3,2.15c.45-.38.61-.95.61-1.4,0-1.4-.87-2.11-2.6-2.11h-2.15v7.59h2.68c1.74,0,2.76-.83,2.76-2.19,0-.8-.38-1.62-1.28-1.89h0Z"/><path class="cls-1" d="m82.56,69.24h.11c1.02,0,1.44.26,1.44.98s-.45,1.02-1.44,1.02h-.11v-2h0Zm3.36.94c0-1.51-1.02-2.34-2.87-2.34h-2.3v7.59h1.81v-2.76l1.96,2.76h2.19l-2.38-3.14c1.09-.26,1.59-1.24,1.59-2.11Z"/><path class="cls-1" d="m98.67,66.97c.53,0,.94-.38.94-.87s-.42-.91-.94-.91-.98.41-.98.91.45.87.98.87Z"/><path class="cls-1" d="m96.45,66.97c.53,0,.94-.38.94-.87s-.42-.91-.94-.91-.98.41-.98.91.45.87.98.87Z"/><path class="cls-1" d="m98.82,72.07c0,1.1-.15,2.11-1.28,2.11s-1.28-1.02-1.28-2.11v-4.23h-1.78v4.53c0,2.11,1.1,3.25,3.06,3.25s3.06-1.13,3.06-3.25v-4.53h-1.77v4.23h0Z"/><polygon class="cls-1" points="114.45 70.75 111.77 70.75 111.77 67.84 110.04 67.84 110.04 75.43 111.77 75.43 111.77 72.15 114.45 72.15 114.45 75.43 116.23 75.43 116.23 67.84 114.45 67.84 114.45 70.75"/><polygon class="cls-1" points="129.96 73.96 127.78 73.96 127.78 67.84 126 67.84 126 75.43 129.96 75.43 129.96 73.96"/><path class="cls-1" d="m141.59,72.67h1.7c-.08.83-.83,1.47-1.7,1.47-1.4,0-2.15-1.24-2.15-2.49s.76-2.53,2.15-2.53c.72,0,1.36.45,1.7,1.13l.04.08,1.58-.75-.04-.11c-.64-1.13-1.85-1.81-3.25-1.81-2.3,0-4,1.74-4,4s1.66,3.97,3.89,3.97c2.76,0,3.74-2.15,3.74-4.04v-.26h-3.66v1.36h0Z"/><path class="cls-1" d="m155.9,75.62c1.96,0,3.06-1.13,3.06-3.25v-4.53h-1.78v4.23c0,1.1-.15,2.11-1.28,2.11s-1.32-1.02-1.32-2.11v-4.23h-1.77v4.53c0,2.11,1.09,3.25,3.1,3.25h0Z"/><polygon class="cls-1" points="169.03 75.43 170.8 75.43 170.8 69.31 172.39 69.31 172.39 67.84 167.41 67.84 167.41 69.31 169.03 69.31 169.03 75.43"/><path class="cls-1" d="m69.76,87.29c-.68-.23-1.17-.42-1.17-.87,0-.42.45-.72.91-.72s.83.19,1.17.57l.08.11.83-1.25c-.53-.53-1.62-.87-2.34-.87-1.44,0-2.53,1.02-2.53,2.34,0,1.17.75,1.7,2.04,2.15.6.19,1.24.42,1.24,1.06,0,.49-.34.94-.94.94-.72,0-1.21-.49-1.4-.98l-.08-.15-1.17,1.13c.64.98,1.55,1.51,2.64,1.51,1.7,0,2.83-1.06,2.83-2.64s-1.17-1.96-2.11-2.34h0Z"/><polygon class="cls-1" points="80.86 85.93 82.48 85.93 82.48 92.08 84.25 92.08 84.25 85.93 85.84 85.93 85.84 84.49 80.86 84.49 80.86 85.93"/><rect class="cls-1" x="96.56" y="84.49" width="1.78" height="7.59"/><polygon class="cls-1" points="111.24 92.08 112.98 92.08 112.98 88.8 115.24 88.8 115.24 87.36 112.98 87.36 112.98 85.93 115.39 85.93 115.39 84.49 111.24 84.49 111.24 92.08"/><polygon class="cls-1" points="125.47 85.93 127.1 85.93 127.1 92.08 128.87 92.08 128.87 85.93 130.45 85.93 130.45 84.49 125.47 84.49 125.47 85.93"/><path class="cls-1" d="m142.91,88.72c0,1.06-.15,2.08-1.28,2.08s-1.32-1.02-1.32-2.08v-4.23h-1.74v4.49c0,2.11,1.06,3.29,3.06,3.29s3.06-1.17,3.06-3.29v-4.49h-1.78v4.23Z"/><polygon class="cls-1" points="157.74 89.25 153.63 84.26 152.42 84.26 152.42 92.08 154.2 92.08 154.2 87.21 158.27 92.19 159.52 92.19 159.52 84.49 157.74 84.49 157.74 89.25"/><path class="cls-1" d="m169.94,87.93v1.39h1.7c-.11.8-.87,1.44-1.74,1.44-1.4,0-2.11-1.25-2.11-2.45s.72-2.53,2.11-2.53c.72,0,1.4.42,1.74,1.09l.04.12,1.59-.8-.08-.11c-.61-1.13-1.81-1.81-3.25-1.81-2.26,0-4,1.74-4,4.04,0,1.93,1.4,3.97,3.93,3.97,2.76,0,3.74-2.19,3.74-4.04v-.3h-3.66,0Z"/></svg>