<?xml version="1.0" encoding="utf-8"?>
<!-- Generator: Adobe Illustrator 23.0.6, SVG Export Plug-In . SVG Version: 6.00 Build 0)  -->
<svg version="1.1" id="Ebene_1" xmlns="http://www.w3.org/2000/svg" xmlns:xlink="http://www.w3.org/1999/xlink" x="0px" y="0px"
	 viewBox="0 0 240 160" style="enable-background:new 0 0 240 160;" xml:space="preserve">
<style type="text/css">
	.st0{fill:#FFFFFF;}
</style>
<g>
	<rect x="67.4" y="82.4" class="st0" width="104.5" height="21.3"/>
	<g>
		<path class="st0" d="M134.8,59.9c-2,2.1-3.1,4.9-3.1,7.8c0,3.2,1.1,5.9,3.4,8.1c2.2,2,5,3.1,7.9,3.1c1.7,0,3-0.4,4.8-1v-6.6
			c-1.1,1.4-2.9,2.3-4.7,2.3c-3.4,0-5.7-2.4-5.7-5.8c0-3.3,2.3-5.9,5.6-5.9c1.9,0,3.7,0.8,4.8,2.3v-6.6c-1.6-0.7-3.2-1.1-5-1.1
			C139.9,56.5,136.9,57.8,134.8,59.9z"/>
		<path class="st0" d="M161,56.3c-6,0-11.6,4.5-11.6,11c0,6.9,4.9,11.8,11.6,11.8c6.7,0,11.6-4.9,11.6-11.8
			C172.6,60.9,167,56.3,161,56.3z M161,73.7c-3.3,0-5.9-2.7-5.9-6.4c0-2.9,2.7-5.6,5.9-5.6c3.3,0,5.9,2.7,5.9,5.6
			C166.9,71,164.2,73.7,161,73.7z"/>
		<path class="st0" d="M75.5,57l-8.1,21.3h5.8l1.4-3.7h7.5l1.4,3.7h5.8L81.4,57H75.5z M76.2,70.4l2.3-6.8h0.1l2.2,6.8H76.2z"/>
		<polygon class="st0" points="96.8,57 91.3,57 91.3,78.3 103.3,78.3 103.3,73.7 96.8,73.7 		"/>
		<polygon class="st0" points="111.5,70 106.4,57 100.5,57 109.3,78.3 113.5,78.3 122.5,57 116.6,57 		"/>
		<rect x="123.8" y="57" class="st0" width="5.5" height="21.3"/>
	</g>
</g>
</svg>
