<?xml version="1.0" encoding="utf-8"?>
<!-- Generator: Adobe Illustrator 25.3.1, SVG Export Plug-In . SVG Version: 6.00 Build 0)  -->
<svg version="1.1" id="Ebene_1" xmlns="http://www.w3.org/2000/svg" xmlns:xlink="http://www.w3.org/1999/xlink" x="0px" y="0px"
	 viewBox="0 0 35 26" style="enable-background:new 0 0 35 26;" xml:space="preserve">
<style type="text/css">
	.st0{fill:none;stroke:#FFFFFF;stroke-width:9;stroke-linejoin:round;stroke-miterlimit:10;}
	.st1{fill:none;stroke:#FFFFFF;stroke-width:9.6989;stroke-linecap:round;stroke-linejoin:round;stroke-miterlimit:10;}
	.st2{fill:#FFFFFF;}
	.st3{fill:#282828;}
</style>
<g>
	<path class="st2" d="M16.6,0.2C16.1,0,15.5,0,15.1,0.4l-7.8,7H2.1c-1.1,0-2,0.9-2,2v7.2c0,1.1,0.9,2,2,2h5.1l7.8,7
		c0.3,0.2,0.6,0.4,0.9,0.4c0.2,0,0.4,0,0.6-0.1c0.5-0.2,0.8-0.7,0.8-1.3V1.4C17.4,0.9,17.1,0.4,16.6,0.2z M16,24.5l-8-7.1
		c-0.1-0.1-0.3-0.2-0.5-0.2H2.1c-0.3,0-0.6-0.3-0.6-0.6V9.4c0-0.3,0.3-0.6,0.6-0.6h5.4c0.2,0,0.3-0.1,0.5-0.2l8-7.1V24.5z"/>
	<path class="st2" d="M29.7,13l5-5c0.3-0.3,0.3-0.8,0-1.1c-0.3-0.3-0.8-0.3-1.1,0l-5,5l-5-5c-0.3-0.3-0.8-0.3-1.1,0
		c-0.3,0.3-0.3,0.8,0,1.1l5,5l-5,5c-0.3,0.3-0.3,0.8,0,1.1c0.1,0.1,0.3,0.2,0.5,0.2c0.2,0,0.4-0.1,0.5-0.2l5-5l5,5
		c0.1,0.1,0.3,0.2,0.5,0.2c0.2,0,0.4-0.1,0.5-0.2c0.3-0.3,0.3-0.8,0-1.1L29.7,13z"/>
</g>
</svg>
