<?xml version="1.0" encoding="utf-8"?>
<!-- Generator: Adobe Illustrator 25.2.3, SVG Export Plug-In . SVG Version: 6.00 Build 0)  -->
<svg version="1.1" id="Ebene_1" xmlns="http://www.w3.org/2000/svg" xmlns:xlink="http://www.w3.org/1999/xlink" x="0px" y="0px"
	 viewBox="0 0 300 55.2" style="enable-background:new 0 0 300 55.2;" xml:space="preserve">
<style type="text/css">
	.st0{fill:#005EFF;}
	.st1{fill:#263238;}
	.st2{fill:#F50057;}
	.st3{fill:#EA0036;}
	.st4{fill:#FFFFFF;}
</style>
<g>
	<rect class="st3" width="165.5" height="55.2"/>
	<g>
		<path class="st4" d="M139.2,39.9h-1.4v3.9h0.9v-3l0,0l0.8,3h0.9l0.8-3l0,0v3h0.9v-3.9h-1.4l-0.7,2.9l0,0L139.2,39.9z M135.6,40.6
			c0.3,0,0.6,0.2,0.6,0.6s-0.2,0.6-0.6,0.6h-0.9v-1L135.6,40.6L135.6,40.6z M135.7,39.9h-2v3.9h1v-1.4h0.6l0.8,1.4h1.1l-0.9-1.6
			c0.5-0.2,0.8-0.6,0.8-1C137.1,40.3,136.6,39.9,135.7,39.9 M130.2,41.8c0-0.9,0.4-1.3,1-1.3c0.7,0,1,0.6,1,1.3c0,0.6-0.3,1.3-1,1.3
			C130.4,43.1,130.2,42.4,130.2,41.8 M129.2,41.8c0,1.1,0.7,2.1,2,2.1s2-1,2-2.1s-0.7-2.1-2-2.1C129.9,39.8,129.2,40.7,129.2,41.8
			 M128.9,39.9h-3v3.9h1v-1.6h1.9v-0.8h-1.9v-0.8h2L128.9,39.9C129,39.9,128.9,39.9,128.9,39.9z M125.4,39.9h-3v0.8h1v3.1h1v-3.1h1
			L125.4,39.9L125.4,39.9z M119.1,40.7h1v3.1h1v-3.1h1v-0.8h-3L119.1,40.7L119.1,40.7z M116.9,42.5l0.5-1.6l0,0l0.5,1.6H116.9z
			 M116.9,39.9l-1.4,3.9h1l0.2-0.6h1.4l0.2,0.6h1l-1.5-3.9H116.9z M113.6,39.9h-1v3.9h2.5V43h-1.5V39.9z M110.5,40.6
			c0.4,0,0.7,0.2,0.7,0.6c0,0.3-0.2,0.6-0.6,0.6h-0.8v-1.2H110.5z M110.6,39.9h-1.9v3.9h1v-1.3h0.8c1.3,0,1.7-0.8,1.7-1.3
			C112.1,40.4,111.7,39.9,110.6,39.9 M107.9,41.9h-1.4v0.8h1.4V41.9z M104.6,40.6c0.4,0,0.7,0.2,0.7,0.6c0,0.3-0.2,0.6-0.6,0.6h-0.8
			v-1.2H104.6z M104.7,39.9h-1.9v3.9h1v-1.3h0.8c1.3,0,1.7-0.8,1.7-1.3C106.2,40.4,105.8,39.9,104.7,39.9 M99.2,41.8
			c0-0.9,0.4-1.3,1-1.3c0.7,0,1,0.6,1,1.3c0,0.6-0.3,1.3-1,1.3C99.4,43.1,99.2,42.4,99.2,41.8 M98.2,41.8c0,1.1,0.7,2.1,2,2.1
			s2-1,2-2.1s-0.7-2.1-2-2.1S98.2,40.7,98.2,41.8 M95.1,39.9h-1v3.9h1v-1.7h1.5v1.7h1v-3.9h-1v1.4h-1.5V39.9z M92,40.6
			c0.4,0,0.7,0.2,0.7,0.6c0,0.3-0.2,0.6-0.6,0.6h-0.8v-1.2H92z M92.2,39.9h-1.9v3.9h1v-1.3H92c1.3,0,1.7-0.8,1.7-1.3
			C93.7,40.4,93.3,39.9,92.2,39.9 M89.5,39.9h-1v3.9h1V39.9z M85.3,39.9h-1v3.9h1v-1.7h1.5v1.7h1v-3.9h-1v1.4h-1.5V39.9z M80.6,40.6
			c0.3,0,0.6,0.2,0.6,0.6s-0.2,0.6-0.6,0.6h-0.9v-1L80.6,40.6L80.6,40.6z M80.7,39.9h-2v3.9h1v-1.4h0.6l0.8,1.4h1.1l-0.9-1.6
			c0.5-0.2,0.8-0.6,0.8-1C82.1,40.3,81.6,39.9,80.7,39.9 M78,39.9H75v3.9h3V43H76v-0.9h1.8v-0.7H76v-0.7h1.9L78,39.9
			C77.9,39.9,78,39.9,78,39.9z M73.2,40.7L71,43.1v0.7h3.4V43h-2.1l2.2-2.4v-0.8h-3.2v0.8L73.2,40.7L73.2,40.7z M70.5,39.9h-1v3.9h1
			V39.9z M68.7,39.9h-2.9v3.9h3V43h-2.1v-0.9h1.8v-0.7h-1.8v-0.7h1.9V39.9z M60.9,39.9h-1l1,3.9h1l0.7-2.7l0,0l0.7,2.7h1l1-3.9h-1
			l-0.6,2.8l0,0l-0.7-2.8h-0.9l-0.7,2.8l0,0L60.9,39.9z M57.1,39.9h-1v3.9h1v-1.7h1.5v1.7h1v-3.9h-1v1.4h-1.5V39.9z M52,41.8
			c0,1.1,0.7,2.1,2,2.1c0.7,0,1.3-0.4,1.6-1l-0.8-0.4c-0.2,0.3-0.6,0.6-0.8,0.6c-0.8,0-1-0.7-1-1.3c0-0.9,0.4-1.3,1-1.3
			c0.3,0,0.7,0.2,0.8,0.6l0.8-0.4c-0.4-0.7-0.9-1-1.7-1C52.7,39.8,52,40.7,52,41.8 M48.8,42.7L48,43.2c0.6,0.6,1.1,0.8,1.8,0.8
			c0.7,0,1.8-0.2,1.8-1.4c0-0.8-0.7-1-1.4-1.1l-0.4-0.1c-0.4-0.1-0.6-0.2-0.6-0.4c0-0.3,0.3-0.4,0.6-0.4c0.4,0,0.8,0.2,1,0.5
			l0.7-0.6c-0.4-0.5-1.1-0.8-1.7-0.8c-0.8,0-1.6,0.4-1.6,1.3c0,0.6,0.4,1,1.1,1.1l0.8,0.1c0.3,0.1,0.4,0.2,0.4,0.3
			c0,0.3-0.5,0.4-0.7,0.4C49.4,43.2,49.2,42.9,48.8,42.7 M46.2,39.9h-2.9v3.9h3V43h-2.1v-0.9H46v-0.7h-1.8v-0.7h1.9V39.9z
			 M42.5,39.9h-1v3.9h1V39.9z M38.4,40.7h0.6c0.7,0,1,0.5,1,1.2s-0.3,1.2-1,1.2h-0.6V40.7z M38.8,39.9h-1.5v3.9h1.5c1.2,0,2-0.6,2-2
			C40.9,40.4,40.1,39.9,38.8,39.9 M23.8,33.2L28.3,12h-8.4l-5.5,25.8h18.9l1-4.7L23.8,33.2L23.8,33.2z M76.3,20.4
			c0,2.3-1.4,3.9-3.6,3.9h-5.1l1.2-5.5h5.5C76.3,18.8,76.3,19.9,76.3,20.4 M84.9,19.3c0-4.6-3.2-7.2-9-7.2H52.3l-7,8.4L41.9,12h-9.8
			l7.6,15.3l-2.2,10.5H46l2.2-10.3l13.3-14.4l-5.2,24.7h8.4l1.4-7h2.9l2.3,7h9.3l-3-8.4C82.1,27.9,84.9,24,84.9,19.3 M91.7,37.9
			L97.1,12h-8.5l-5.5,25.8H91.7z M149.4,17.5l-0.5-0.7c-2.4-3.5-6.6-5.5-11.4-5.5c-7.2,0-12.5,3.8-13.7,9.8
			c-0.2,0.7-0.2,1.2-0.2,1.8c0,3.5,2.5,5.8,7,6.6c0.9,0.2,1.9,0.3,2.8,0.4c0.9,0.2,1.7,0.3,2.6,0.4c1.7,0.3,1.8,0.7,1.8,1
			c0,1.9-3.1,2.7-4.9,2.7c-2.6,0-4.4-0.9-6.4-3.1l-0.4-0.5l-5.5,3.1l0.3-0.4l-6.3-3.4l-0.4,0.7c-1,1.6-3.5,3.4-5.6,3.4
			c-3,0-4.5-1.7-4.5-4.9c0-0.8,0.1-1.7,0.3-2.6c0.5-2.4,2.2-7.8,7.6-7.8c2,0,3.5,1.3,3.9,3.3l0.2,1.1l7.7-3.5l-0.3-0.7
			c-1.8-5.1-5.2-7.6-10.5-7.6c-8.2,0-15.1,6.1-16.9,14.8c-0.3,1.3-0.4,2.5-0.4,3.5c0,3.1,0.9,5.8,2.6,7.9l0.3,0.3h18.1l0.2-0.2
			c0.9-0.7,1.7-1.5,2.4-2.3l0.1,0.2c0.6,0.8,1.2,1.5,1.8,2.1l0.3,0.3h20.9l0.2-0.2c1.9-1.7,3.1-3.9,3.7-6.6c0.2-0.7,0.2-1.2,0.2-1.8
			c0-5.5-6.2-6.5-10.3-7.1c-0.4-0.1-0.8-0.1-1.3-0.2c-1.2-0.2-2.5-0.5-2.5-1.3c0-1.3,2.1-2.3,3.5-2.3c2.5,0,4.6,1.1,5.7,3l0.4,0.8
			L149.4,17.5z"/>
	</g>
</g>
</svg>
