<?xml version="1.0" encoding="UTF-8"?><svg id="Ebene_1" xmlns="http://www.w3.org/2000/svg" viewBox="0 0 240 160"><defs><style>.cls-1{fill:#fff;}</style></defs><path class="cls-1" d="m99.96,79.34v-9.19c5.77,0,7.89-.29,8.89,6.77h.61v-7.86h-15.69v1.09h2.72v20.22h-2.99v1.07h16.16v-8.26h-.81c-.8,6.25-2.39,7.2-6.83,7.2h-2.06v-9.82h1.19c1.99.05,3.13,1.21,3.54,4.64h.73v-10.16s-.73,0-.73,0c0,.05-.14,4.37-3.63,4.31h-1.11Z"/><path class="cls-1" d="m93.55,79.74h-8.85v1h3.03v7.27c-.51,1.85-3.23,2.62-4.04,2.62-5.65,0-5.25-8.27-5.25-10.48,0-2.02-.2-10.49,5.25-10.49,3.84,0,5.86,3.82,6.67,7.26h.61c0-1.42.02-8.15,0-8.13.01-.05-2.63,1.9-2.64,1.87.06-.01-1.21-1.81-4.65-1.81-6.67,0-9.12,6.66-9.1,11.3.03,4.25,1.99,11.49,9.1,11.49,2.23,0,3.81-1.14,4.65-2.43,0-.03,2.82,2.22,2.83,2.22v-10.69h2.39v-1Z"/><path class="cls-1" d="m170.87,83.36l3.23-9.67,3.44,9.67h-6.66Zm-12.53-3.86h-3.63v-9.37h4.64c2.72.41,2.84,3.56,2.84,4.56,0,2.42-1.01,4.81-3.85,4.81m38.63,3.67c-.81,6.25-2.39,7.18-6.83,7.18h-.27v-20.22h2.82v-1.09h-9.29v1.09h2.83v20.22h-2.24l-8.26-21.91h-1.21s-6.86,19.88-6.88,19.94c.01-.06-.52,1.71-1.66,1.93-1.04.05-.97-.5-.97-.69v-3.83c0-1-.08-3.29-1.12-4.34-1.17-1.18-3.17-1.27-3.13-1.31,0,0,5.08-1.05,5.08-5.87,0-3.38-2.35-5.07-6.28-5.21h-11.16v1.09h2.85v20.22h-2.85v1.07h9.15v-1.07h-2.86v-9.72h3.81c6.6.55-1.13,10.81,7.52,10.79h5.46v-1.08c-.3,0-2.3.06-2.43-1.33-.08-1.01,1.32-4.63,1.32-4.63h7.43s2.31,5.96,2.33,5.96h-2.59v1.07h20.24v-8.26h-.81Z"/><path class="cls-1" d="m137.38,70.13c5.76,0,7.89-.28,8.89,6.79h.61v-7.86h-22.87v1.07h.6c.81,0,2.72.06,2.83,1.75h0v12.9l-10.7-15.72h-5.83v1.07h.97c1.15,0,2.76.05,2.83,1.75v16.53c0,1.61-2.41,2.23-3.42,2.23h-.01v.8h7.88v-.8c-1.01,0-3.44-.61-3.44-2.23l.03-14.55c4.24,6.05,12.23,17.59,12.31,17.58h.4v-19.55c.11-1.69,2.03-1.75,2.83-1.75h2.63v20.23h-2.99v1.07h16.16v-8.26h-.81c-.81,6.25-2.39,7.2-6.83,7.2h-2.06v-9.82h1.19c1.99.05,3.13,1.21,3.53,4.64h.74v-10.16s-.73,0-.73,0c0,.05-.14,4.37-3.63,4.31h-1.11v-9.2Z"/><polygon class="cls-1" points="207.93 70.14 207.93 69.05 198.81 69.05 198.81 70.14 201.67 70.14 201.68 90.35 198.81 90.35 198.81 91.43 207.93 91.43 207.93 90.35 205.07 90.35 205.07 70.14 207.93 70.14"/><path class="cls-1" d="m61.57,88c.08-.2.23-.33.45-.37l2.16-.48-.2-1.93v-.04c-.06-.25-.22-1.02-1.22-1.1-3.86-.31-4.76-.88-5.7-1.49,0,0,0,0,0,0h0s-.06-.04-.06-.04c-1-.65-2-.65-2.1-.65-1.09,0-2.48.43-2.59.47-.33.1-.65.2-.95.3-1.21.39-2.25.73-4.01.67h-.32s-.08.3-.08.3c-.06.24-.55,2.18-.08,3.43-.43.33-.42.72-.42.77.02.43-.08.53-.12.57-.2.21-.88.24-1.44.24h-.21l-.12.17c-.35.48-1.1.59-1.59.47-.21-.65-.22-1.14-.01-1.44.24-.35.76-.38.96-.38h.12c.51,0,.93-.42.93-.94v-3.47c.16-.24.28-.52.39-.83.85-.13,1.5-.85,1.5-1.72,0-.33-.1-.65-.27-.93.78-.38,1.45-1.15,1.45-2.16s-.51-1.47-.99-1.78c.14-.39.36-1.07.51-1.76l.68-2.43c.3-.95,1.1-1.57,2.02-1.57h11.94c-.51.71-1.22,1.05-2.22,1.05h-7.23l-.38.81h6.48c-.51.81-1.26,1.19-2.31,1.19h-4.7l-.38.81h4.19c-.51.78-1.24,1.15-2.28,1.15h-2.56l-.38.81h2.68s.09.16.09.48c0,.52-.44.94-.97.94-.19,0-.34-.04-.62-.15-.12-.05-.24-.1-.36-.15l-.62.56c.12.05.23.1.35.15h0c.54.23.84.36,1.25.36.49,0,.94-.2,1.25-.53.46.03,1.2.09,1.92.15.86.07,1.67.14,2.09.16.21.01.41.02.59.03.36.02.68.03,1.01.06,1.63,2.65,2.46,3,5.62,3.37.23.41.43.84.63,1.27v5.18c.02.24.02.32-.01.36-.11.14-.6.35-.77.42l-2.66,1c-.35-.48-.48-.98-.34-1.34m-.58,1.4h-5.26l2.25-2.38c.45-.47.6-1.04.41-1.59-.11-.32-.41-.93-.72-1.56.9.42,2.25.79,5.01,1.01.33.03.42.14.49.44l.12,1.19-1.44.32c-.48.1-.86.41-1.04.87-.2.51-.13,1.11.18,1.69m-9.49,0c-.15-.57-.09-1.03.17-1.33.25-.28.63-.37.91-.33l1.54.29h.04s.22,0,.22,0l1.09-1.17h.01c.19-.23.75-.88.17-1.72l-1.45-2.39c.24-.03.48-.06.7-.06h0s.74-.01,1.52.44c.11.23.25.52.42.86.31.62.69,1.39.79,1.7.03.1.14.39-.23.77l-2.78,2.94h-3.11Zm-.44-1.86c-.29.34-.58.92-.39,1.86h-4.95c.53-.05.92-.18,1.19-.45.32-.34.35-.8.34-1.13.01-.03.06-.14.31-.25l.43-.19-.26-.39c-.42-.65-.24-2.07-.07-2.84h.04c1.68,0,2.77-.35,3.91-.72.3-.1.61-.19.93-.29h.01s.34-.11.8-.22l1.61,2.66v.02c.18.23.2.38-.1.72l-.81.87-1.33-.25h-.01c-.6-.09-1.25.14-1.64.6m-8.79-.18c-.35.49-.39,1.18-.13,2.03h-.84v-6.53c.3-.05.62-.13.92-.27-.02.29-.06.51-.11.81-.01.07-.03.14-.04.22l-.08.47h.48c.72,0,1.25-.11,1.66-.32v2.73c0,.07-.05.13-.12.13h-.12c-.71,0-1.31.27-1.63.73m-1.77,1.33l-3.81-.99-3.81.99v-6.82l3.81-.99,3.81.99v6.82Zm-7.14.71l3.32-.86,3.32.86h-6.65Zm1.33-10.04c.16-.24.53-.45.98-.38l.35.06.11-.33c.03-.09.07-.15.12-.21.1-.09.24-.14.43-.13.49.02,1.1.36,1.59.89.18.19.34.42.48.64.03.05.06.1.09.14.04.06.07.11.08.13.02.03.26.4.25.42.17-.24.33-.47.5-.71,0,0,0-.03-.02-.06-.04-.08-.13-.22-.18-.3-.01-.02-.03-.04-.04-.06,0,0,0,0,0,0,0,0-.03-.04-.06-.09-.05-.09-.14-.21-.17-.28l1.05-1.69c.26.05.49.06.59.06h.03c1.49,0,3.03-.86,3.03-2.3v-.04c-.02-.39-.09-.76-.15-1.06-.04-.2-.08-.38-.08-.48,0-.16.22-.33.54-.33h.48l-.22-1.25c.68-.5,1.09-1.31,1.07-2.09.73.56,1.24,1.53,1.34,2.56.03.3-.03.72-.13,1.16l-.05.18h0c-.17.72-.43,1.46-.56,1.81l-.13.33.3.17c.54.31.88.53.88,1.25,0,.82-.74,1.45-1.45,1.58l-.98.18.83.55c.26.18.42.46.42.77,0,.51-.44.93-.98.93h-.31l-.09.29c-.3.99-.63,1.47-1.69,1.57.05-.3.08-.59.08-.99,0-.1,0-.36-.01-.45l-.05-.92-.65.66c-.22.22-.61.4-1.04.48v-.8l-4.62-1.2-1.64.43c-.37-.37-.44-.97-.35-1.11m4.99-2.97c.01-.06.06-.1.1-.1l.7.02c.85-.03,1.71-.38,1.81-1.26,0-.6-.43-1.18-1.03-1.18-.32,0-.68.22-1.09.49-.26.18-.47.31-.63.31-.11,0-.19-.07-.19-.13,0,0,0-.02,0-.03l.45-.59-.38-.26c-.08-.05-.21-.15-.22-.23,0-.04.04-.1.06-.12.16-.19.34-.41.53-.69.11-.16.18-.25.37-.25s.34.15.34.34c0,.12.13.22.3.22s.24-.12.34-.22c0,0,.4-.36.19-.54-.24-.2-1.2.2-.93-.68l.07-.13c.1-.14.56-.48,1.51-.48.18,0,.37.01.56.04l.14.02,2.02-1.24s.02.07.02.07h0c.11.62-.28,1.35-.89,1.7l-.25.14.16.91c-.52.16-.88.57-.88,1.07,0,.17.04.38.09.63.06.29.12.61.14.94,0,.94-1.31,1.57-2.41,1.54h-.03s-.75-.06-.92-.19c-.03-.03-.06-.08-.05-.12m1.67-6.31c.13-.16.33-.34.58-.51.19-.13.44-.24.69-.31.39-.11.84-.12,1.3-.03l-1.43.88c-.18-.02-.35-.03-.52-.03-.24,0-.46.02-.67.05.02-.02.03-.04.05-.06m21.78-.21h5.39c-.51.71-1.22,1.05-2.22,1.05h-3.98c.32-.28.59-.63.81-1.05m-.27,3.05h-3.98c.35-.31.65-.71.88-1.19h5.41c-.51.81-1.25,1.19-2.31,1.19m-3.17,1.96h-3.98c.34-.3.63-.68.86-1.15h5.41c-.51.78-1.24,1.15-2.28,1.15m.91,3.04c1.26.21,2.29.78,3.07,1.69.16.2.32.4.48.63-2.12-.28-2.86-.59-4.04-2.39.16.02.32.04.49.07m8.46,8.72c.08.12.14.24.21.36.08.14.16.28.25.42-.61-.04-1.08-.38-1.51-1.02.4-.14.88-.04,1.05.25m-5.04,2.77l.83-.31h.01c1.17-.49,1.34-.79,1.28-1.57v-3.16c.89,2.27,1.74,3.86,3.47,3.86.23,0,.49-.03.76-.09l.67-.15-.46-.51c-.3-.33-.44-.58-.61-.87-.07-.12-.14-.24-.22-.38-.41-.66-1.37-.88-2.15-.53-.35-.7-.71-1.62-1.14-2.75l-.1-.22c-.07-.17-.15-.34-.22-.51v-.03h-.01c-.27-.6-.55-1.2-.89-1.76-.31-.51-.62-.95-.96-1.35-.9-1.06-2.1-1.72-3.55-1.96-1-.17-1.72-.2-2.62-.25-.19,0-.38-.02-.59-.03-.41-.02-1.25-.09-2.07-.16-.55-.04-1.11-.09-1.56-.12.03-.13.05-.25.05-.39,0-.18-.02-.34-.05-.48h5.79c1.49,0,2.57-.66,3.21-1.96,1.48-.01,2.55-.69,3.19-2h.21c1.54,0,2.65-.7,3.28-2.09l.26-.57h-19.6c-1.29,0-2.39.84-2.79,2.14v.04c-.35-.93-.96-1.72-1.74-2.18-1.09-.65-2.32-.86-3.31-.58-.33.09-.65.24-.91.42-.23.15-.54.39-.77.68-.25.32-.49.71-.67,1.07-.11.09-.2.19-.26.28l-.23.44v.02c-.29.63-.64,1.07-.9,1.39-.26.31-.28.6-.24.79.04.21.15.38.27.51h0c-.08.15-.12.3-.12.46,0,.52.45.91,1,.91.4,0,.73-.19,1.08-.42.14-.09.52-.34.64-.35.16,0,.3.14.3.3,0,.42-.55.65-.94.68l-.8.09c-.57.05-.85.36-.85.63s.13.43.22.52l.06.06.2.18-.84,1.36c-.6-.56-1.31-.89-1.93-.91-.4-.01-.75.11-1.01.35-.07.07-.14.15-.19.24h-.02c-.67,0-1.2.36-1.47.76-.28.44-.18,1.2.18,1.78l-2.13.55v10.19h39.08v-2.03h-7.12Z"/><polygon class="cls-1" points="39.66 82.92 37.11 82.26 37.11 83.09 39.66 83.75 39.66 82.92"/><polygon class="cls-1" points="33.72 83.75 36.27 83.09 36.27 82.26 33.72 82.92 33.72 83.75"/><polygon class="cls-1" points="33.72 85.43 36.27 84.77 36.27 83.94 33.72 84.6 33.72 85.43"/><polygon class="cls-1" points="39.66 84.6 37.11 83.94 37.11 84.77 39.66 85.43 39.66 84.6"/><polygon class="cls-1" points="39.66 86.28 37.11 85.62 37.11 86.45 39.66 87.11 39.66 86.28"/><polygon class="cls-1" points="33.72 87.11 36.27 86.45 36.27 85.62 33.72 86.28 33.72 87.11"/></svg>