<?xml version="1.0" encoding="utf-8"?>
<!-- Generator: Adobe Illustrator 25.3.1, SVG Export Plug-In . SVG Version: 6.00 Build 0)  -->
<svg version="1.1" id="Ebene_1" xmlns="http://www.w3.org/2000/svg" xmlns:xlink="http://www.w3.org/1999/xlink" x="0px" y="0px"
	 viewBox="0 0 240 160" style="enable-background:new 0 0 240 160;" xml:space="preserve">
<style type="text/css">
	.st0{fill-rule:evenodd;clip-rule:evenodd;fill:#FFFFFF;}
	.st1{fill:#FFFFFF;}
</style>
<g id="layer1_1_">
	<path id="polygon3036_1_" class="st0" d="M67.1,94V77.8l-6.9,16.1h-3.8l-6.9-16.1v16.1h-7.1V66H52l6.6,15.8L65.4,66h8.8v27.9
		L67.1,94L67.1,94z M79.7,94V66h6.1c0.5,0,1.1,0.5,1.1,1.1v26.8L79.7,94L79.7,94z M106.7,77.9h9.1c0.7,0,1.1,0.6,1.1,1.3v14.4
		c-2.5,0.5-6.5,0.9-9.5,0.9c-10.4,0-15.9-5-15.9-14.5c0-8.5,5.5-14.5,14.6-14.5c4,0,7.6,1.1,9.8,2.6l-2.8,4.8
		c-2-0.9-4.6-1.5-6.5-1.5c-5.3,0-7.7,3.5-7.7,8.5c0,5.4,2.8,8.7,8.1,8.7c1,0,2.2,0,3.1-0.2v-4.9h-3.5v-5.6H106.7z M132.9,71.4h-3.5
		v7h3.5c2.1,0,3.7-1.1,3.7-3.8C136.6,72,134.9,71.4,132.9,71.4z M138.1,94l-3.3-7.7c-0.7-1.6-1.1-2.3-2.6-2.3h-2.9v10h-7V67.2
		c0-0.6,0.6-1.1,1.1-1.1h9.9c5.4,0,10,1.1,10,8.1c0,3.1-1.7,6.3-5,6.9c1.6,0.5,3.2,2.6,4.1,4.8l3.2,8.1H138.1z M161.2,71.4
		c-3.8,0-6.4,2.7-6.4,8.5c0,5.9,2.7,8.6,6.4,8.6c3.2,0,5.9-2.7,5.9-8.6C167.1,74.1,164.4,71.4,161.2,71.4z M161.2,94.5
		c-9.1,0-14-6.5-14-14.5s4.8-14.5,14-14.5c8.6,0,13.4,6.5,13.4,14.5S169.7,94.5,161.2,94.5z M188.3,94.5c-4.7,0-9.1-1.7-11.1-3
		l3.2-5.6c1.8,1.1,5.2,2.7,8.4,2.7c1.8,0,4.1-0.3,4.1-2.3c0-1.9-2.5-2.5-5.9-3.4c-4-1.2-8.7-2.8-8.7-8.2c0-5.8,5.2-9.1,11.9-9.1
		c4.5,0,7.9,1.6,9.7,3.3l-3.9,4.4c-1.9-1.1-3.9-2-6.1-2c-2.6,0-4.1,1-4.1,2.5c0,1.4,1.9,2.2,4.3,2.9c4.3,1.3,10.1,2.7,10.1,8.3
		C200.3,90.5,195.7,94.5,188.3,94.5z"/>
</g>
</svg>
