<?xml version="1.0" encoding="utf-8"?>
<!-- Generator: Adobe Illustrator 23.0.6, SVG Export Plug-In . SVG Version: 6.00 Build 0)  -->
<svg version="1.1" id="Ebene_1" xmlns="http://www.w3.org/2000/svg" xmlns:xlink="http://www.w3.org/1999/xlink" x="0px" y="0px"
	 viewBox="0 0 240 160" style="enable-background:new 0 0 240 160;" xml:space="preserve">
<style type="text/css">
	.st0{fill:#FFFFFF;}
</style>
<g>
	<path class="st0" d="M129.4,79.5h-4.5l29.7-38.6H81v67.8l0.1-0.1h0.1v-0.1l0.2-0.2l0.1-0.1c0.3-0.3,0.5-0.7,0.8-1
		c0.8-1,1.6-2.1,2.4-3.1c2.3-2.9,4.5-5.8,6.8-8.8c3.1-4.3,7.3-8.7,9.4-13.5h5.9c0.1,3.2,1,4.8,1.9,7.8c0.5,1.6,1,3.3,1.5,4.9
		l0.2,0.6l0.3,1l0.1,0.3l0.1,0.3l0.1,0.3l0.1,0.2l0.1,0.1v0.1l2-2.6c-1.2-2.9-2.4-9.2-4.5-13h7c-0.1,1.5,0.6,2.7,0.9,4.2
		c0.4,1.3,0.7,2.7,1.2,4c0.9-1.2,1.9-2.4,2.8-3.6c1-1.5,2.7-2.7,2.9-4.7h5.8c-3.4,3.2-6.7,8.1-9.8,11.8c0.3,1,0.6,2.2,0.9,3.2
		c1.9-2.4,3.8-4.9,5.6-7.3c1.7-2.4,4-5,5.2-7.7h5.7v0.3l0.1,0.7l0.1,0.7l0.1,0.6l3.6,12.4c1,2.6,1.7,5.4,2.6,8.1
		c0.6,1.7,1.5,5,2.6,6.4h-7.3c0-2.1-0.8-4-1.4-6c-0.5-1.4-0.8-2.8-1.3-4.2l-0.1-0.6l-0.1-0.4l-0.1-0.5l-0.1-0.4l-0.1-0.2l-0.1-0.1
		v-0.1h-11.6l-1.9,2.6l0.1,0.1l0.1,0.2l0.1,0.3l0.1,0.4l0.2,0.6c0.3,1,0.7,2.2,1,3.2c0.8,2.4,0.8,2.6,2.1,4.9h-7.2
		c-0.1-1.5-0.4-2.4-0.9-3.8c-1.2,1.3-2,2.2-2.7,3.8h-5.5c-0.3-1.6-0.4-2.4-1-4c-1.2,1.7-1.7,2-2.6,4h-5.4c2.4-2.2,4.4-5,6.4-7.6
		l-1.4-4.7H93.5v0.1L93.3,99L93,99.3l-0.2,0.2l-0.3,0.3l-0.3,0.4l-0.3,0.4c-1,1.4-2.1,2.7-3.1,4.1c-1.5,2-3.3,4-4.4,6.1H81v8.1h78
		V40.9L129.4,79.5z"/>
	<path class="st0" d="M102,87.4L102,87.4c-0.9,1.5-2,3.1-3.1,4.4c-0.6,0.8-1.2,1.5-1.7,2.2l-0.3,0.3l-0.2,0.3l-0.2,0.2L96.4,95
		l-0.1,0.1v0.1h7.8c-0.4-1.2-0.8-2.5-1.2-3.8l-0.2-0.6l-0.2-0.6l-0.1-0.4l-0.1-0.3l-0.1-0.9l-0.1-0.8V87.4L102,87.4z"/>
	<path class="st0" d="M114.5,98.8l-2.1,2.7l1.3,4.2l2.2-3C115.3,101.4,114.9,100.1,114.5,98.8z"/>
	<path class="st0" d="M131.9,87.5c-1.5,2.6-3.8,5.4-5.8,7.8h7.8c-0.3-1.3-0.8-2.5-1.2-3.8l-0.2-0.6l-0.2-0.6l-0.1-0.4l-0.1-0.3
		l-0.1-0.9L131.9,87.5L131.9,87.5v-0.1V87.5z"/>
</g>
</svg>
