<svg id="Ebene_1" data-name="Ebene 1" xmlns="http://www.w3.org/2000/svg" viewBox="0 0 240 160"><defs><style>.cls-1{fill:#fff;}</style></defs><polygon class="cls-1" points="40.3 74.75 51.7 74.75 51.7 73.25 38.5 73.25 38.5 94.75 40.3 94.75 40.3 84.95 50 84.95 50 83.45 40.3 83.45 40.3 75.05 40.3 74.75"/><path class="cls-1" d="M64.2,86.65H60v8.1H55.8V73.25h8.4c4.5,0,7.1,3.1,7.1,6.7S68.6,86.65,64.2,86.65ZM64,77H60.1v5.9H64A2.84,2.84,0,0,0,67.1,80,2.91,2.91,0,0,0,64,77Z"/><path class="cls-1" d="M86.3,94.85l-4.2-8.6h-3v8.6H74.9V73.25h8.5c4.4,0,7,3,7,6.6a5.88,5.88,0,0,1-3.9,5.7l4.8,9.3ZM83,77H79v5.7h4a2.87,2.87,0,0,0,3.1-2.8A2.84,2.84,0,0,0,83,77Z"/><path class="cls-1" d="M94.7,94.85V73.25h14.2v3.8h-10v5.1h8.5V86H98.9v5.2h10V95H94.7Z"/><path class="cls-1" d="M113.7,94.85V73.25h4.2v21.6Z"/><path class="cls-1" d="M129.4,95c-3.3,0-5.8-.7-7.9-2.8l2.7-2.7a6.93,6.93,0,0,0,5.2,1.8c2.5,0,3.8-.9,3.8-2.7a2.14,2.14,0,0,0-.7-1.8,3.38,3.38,0,0,0-1.9-.8l-2.6-.4a7.4,7.4,0,0,1-4.2-1.8,5.68,5.68,0,0,1-1.5-4.2c0-3.8,2.8-6.5,7.5-6.5a9.29,9.29,0,0,1,7,2.5l-2.7,2.6a6.06,6.06,0,0,0-4.4-1.5c-2.2,0-3.3,1.2-3.3,2.7a2.2,2.2,0,0,0,.6,1.5,3.37,3.37,0,0,0,2,.8l2.5.4a6.8,6.8,0,0,1,4.1,1.7,6,6,0,0,1,1.7,4.6C137.4,92.65,133.9,95,129.4,95Z"/><path class="cls-1" d="M141.7,94.85V73.25h4.2v21.6Z"/><path class="cls-1" d="M164.2,92.55a8,8,0,0,1-6.1,2.5,7.54,7.54,0,0,1-5.8-2.4c-2.2-2.2-2.1-4.9-2.1-8.6s-.1-6.4,2.1-8.6a7.91,7.91,0,0,1,5.8-2.4c5,0,7.5,3.3,8.1,6.9H162a3.72,3.72,0,0,0-3.9-3.2,3.45,3.45,0,0,0-2.7,1.2c-.8.9-1,1.9-1,6.1s.2,5.2,1,6.1a3.39,3.39,0,0,0,2.7,1.1,4.13,4.13,0,0,0,3-1.2,4.27,4.27,0,0,0,1-2.9v-.8h-4v-3.5h8.2v3.2C166.3,89.05,165.7,91,164.2,92.55Z"/><path class="cls-1" d="M178,73.25h-1.6l-7.9,21.6h1.9l1.8-5h10.1l1.8,5H186Zm-4.9,15.1h-.4l4.6-13,4.6,13Z"/><path class="cls-1" d="M201.5,87.25a6.21,6.21,0,0,1-1.3,4.2,5.71,5.71,0,0,1-4.4,2,5.83,5.83,0,0,1-4.1-1.7c-1.5-1.5-1.7-3.2-1.6-7.8s.1-6.3,1.6-7.8a5.5,5.5,0,0,1,4.1-1.7,5.57,5.57,0,0,1,5.6,4.5h1.8a7.19,7.19,0,0,0-7.4-6,8,8,0,0,0-5.5,2.2c-2,2-2,4-2,8.8s0,6.8,2,8.8a7.79,7.79,0,0,0,5.5,2.2,7.37,7.37,0,0,0,5.7-2.5c1.3-1.4,1.8-3,1.8-5.5v-3.2h-7.2v1.5h5.5v2Z"/><rect class="cls-1" x="113.7" y="64.85" width="4.2" height="4.2"/><rect class="cls-1" x="141.6" y="98.95" width="4.2" height="4.2"/></svg>