<svg id="Ebene_1" data-name="Ebene 1" xmlns="http://www.w3.org/2000/svg" viewBox="0 0 240 160"><defs><style>.cls-1{fill:#fff;}.cls-2{stroke:#fff;stroke-width:0.5px;}</style></defs><path class="cls-1" d="M74.79,57.67A2,2,0,0,0,76,58a1,1,0,0,0,1.18-1.07c0-1-2.4-1.16-2.4-2.53A1.48,1.48,0,0,1,76.39,53a3.28,3.28,0,0,1,1,.17l-.08.47a2.09,2.09,0,0,0-1-.2c-.54,0-1.13.23-1.13.9,0,1,2.4,1.06,2.4,2.59a1.54,1.54,0,0,1-1.72,1.48,2.85,2.85,0,0,1-1.19-.23Z"/><path class="cls-1" d="M81.71,55a2.18,2.18,0,0,0-.82-.19,1.43,1.43,0,0,0-1.44,1.6A1.46,1.46,0,0,0,80.84,58a2.53,2.53,0,0,0,.86-.17l0,.44a2.87,2.87,0,0,1-1,.13,1.81,1.81,0,0,1-1.83-2,1.85,1.85,0,0,1,1.89-2,2.66,2.66,0,0,1,.92.15Z"/><path class="cls-1" d="M83.14,52.71h.47v2.45h0a1.3,1.3,0,0,1,1.19-.74c1,0,1.31.68,1.31,1.63v2.29h-.47V56.06c0-.66-.13-1.23-.91-1.23s-1.13.8-1.13,1.46v2.05h-.47V52.71Z"/><path class="cls-1" d="M91.83,58.34h-.57l-1-3.31h0l-1,3.31h-.57l-1.23-3.83h.52l1,3.31h0L90,54.51h.57l1,3.31h0l1.06-3.31h.47Z"/><path class="cls-1" d="M96.88,58.22a3,3,0,0,1-1.11.21c-1.27,0-1.74-.86-1.74-2s.65-2,1.61-2,1.52.87,1.52,1.9v.24H94.54A1.29,1.29,0,0,0,95.8,58a2.32,2.32,0,0,0,1.07-.29v.48Zm-.23-2.07c0-.67-.27-1.33-1-1.33a1.25,1.25,0,0,0-1.13,1.33Z"/><path class="cls-1" d="M99.13,53.49h-.47v-.63h.47Zm-.48,1h.47v3.83h-.47Z"/><path class="cls-1" d="M100.55,57.94l2.3-3h-2.21v-.41h2.76v.41l-2.3,3h2.3v.41h-2.85v-.41Z"/><path class="cls-1" d="M107.39,58.22a3,3,0,0,1-1.11.21c-1.27,0-1.74-.86-1.74-2s.65-2,1.61-2,1.52.87,1.52,1.9v.24h-2.62A1.29,1.29,0,0,0,106.31,58a2.32,2.32,0,0,0,1.07-.29v.48Zm-.23-2.07c0-.67-.27-1.33-1-1.33a1.25,1.25,0,0,0-1.13,1.33Z"/><path class="cls-1" d="M109.16,55.37a7,7,0,0,0,0-.86h.47v.74h0a1.14,1.14,0,0,1,1-.83,1.57,1.57,0,0,1,.33,0V55a1.29,1.29,0,0,0-.35-.05c-.75,0-.95.84-.95,1.53v1.89h-.47v-3Z"/><path class="cls-1" d="M112.72,53.49h-.47v-.63h.47Zm-.48,1h.47v3.83h-.47Z"/><path class="cls-1" d="M114.2,57.78a2.3,2.3,0,0,0,1,.24c.45,0,.85-.25.85-.68,0-.91-1.84-.77-1.84-1.88,0-.76.62-1,1.25-1a3,3,0,0,1,1,.17l0,.41a2.31,2.31,0,0,0-.85-.18c-.49,0-.83.15-.83.64,0,.71,1.88.62,1.88,1.88,0,.81-.76,1.09-1.34,1.09a2.74,2.74,0,0,1-1.07-.18Z"/><path class="cls-1" d="M120.49,55a2.18,2.18,0,0,0-.82-.19,1.43,1.43,0,0,0-1.44,1.6,1.46,1.46,0,0,0,1.39,1.6,2.53,2.53,0,0,0,.86-.17l0,.44a2.87,2.87,0,0,1-1,.13,1.81,1.81,0,0,1-1.83-2,1.85,1.85,0,0,1,1.89-2,2.66,2.66,0,0,1,.92.15Z"/><path class="cls-1" d="M121.92,52.71h.47v2.45h0a1.3,1.3,0,0,1,1.19-.74c1,0,1.31.68,1.31,1.63v2.29h-.47V56.06c0-.66-.13-1.23-.91-1.23s-1.13.8-1.13,1.46v2.05h-.47V52.71Z"/><path class="cls-1" d="M129.24,58.22a3,3,0,0,1-1.11.21c-1.27,0-1.74-.86-1.74-2s.65-2,1.61-2,1.52.87,1.52,1.9v.24H126.9A1.29,1.29,0,0,0,128.16,58a2.32,2.32,0,0,0,1.07-.29v.48ZM129,56.15c0-.67-.27-1.33-1-1.33a1.25,1.25,0,0,0-1.13,1.33Z"/><path class="cls-1" d="M133.51,53.1h2.57v.45H134v1.87H136v.45H134v2h2.14v.45h-2.66Z"/><path class="cls-1" d="M138.27,53.49h-.47v-.63h.47Zm-.48,1h.47v3.83h-.47Z"/><path class="cls-1" d="M143.08,58.34h-.47v-.61h0a1.23,1.23,0,0,1-1.19.7c-1,0-1.58-.87-1.58-2s.45-2,1.58-2a1.27,1.27,0,0,1,1.19.74h0V52.72h.47ZM141.47,58c.84,0,1.13-.9,1.13-1.6s-.29-1.6-1.13-1.6-1.13.86-1.13,1.6S140.57,58,141.47,58Z"/><path class="cls-1" d="M147.83,58c0,1.07-.48,1.94-1.79,1.94a4.08,4.08,0,0,1-1.16-.2l0-.47a2.58,2.58,0,0,0,1.13.27c1.22,0,1.32-.89,1.32-2h0a1.18,1.18,0,0,1-1.16.75c-1.22,0-1.61-1.07-1.61-1.91,0-1.16.45-2,1.58-2a1.26,1.26,0,0,1,1.19.53h0v-.44h.47Zm-1.63-.09c.86,0,1.16-.81,1.16-1.51,0-.92-.27-1.6-1.13-1.6s-1.13.86-1.13,1.6S145.39,57.93,146.2,57.93Z"/><path class="cls-1" d="M152.13,58.22a3,3,0,0,1-1.11.21c-1.27,0-1.74-.86-1.74-2s.65-2,1.61-2,1.52.87,1.52,1.9v.24h-2.62A1.29,1.29,0,0,0,151.05,58a2.32,2.32,0,0,0,1.07-.29v.48Zm-.24-2.07c0-.67-.27-1.33-1-1.33a1.25,1.25,0,0,0-1.13,1.33Z"/><path class="cls-1" d="M153.9,55.41c0-.29,0-.59,0-.9h.46v.68h0a1.21,1.21,0,0,1,1.24-.77c.95,0,1.31.63,1.31,1.47v2.45h-.47V56c0-.72-.25-1.19-.91-1.19-.86,0-1.13.76-1.13,1.4v2.12h-.47V55.41Z"/><path class="cls-1" d="M160.15,54.42a2,2,0,1,1-1.79,2A1.79,1.79,0,0,1,160.15,54.42Zm0,3.6c.83,0,1.27-.71,1.27-1.6s-.44-1.6-1.27-1.6-1.27.71-1.27,1.6S159.32,58,160.15,58Z"/><path class="cls-1" d="M163.12,57.78a2.3,2.3,0,0,0,1,.24c.45,0,.85-.25.85-.68,0-.91-1.84-.77-1.84-1.88,0-.76.62-1,1.25-1a3,3,0,0,1,1,.17l0,.41a2.27,2.27,0,0,0-.85-.18c-.49,0-.83.15-.83.64,0,.71,1.88.62,1.88,1.88,0,.81-.76,1.09-1.34,1.09a2.74,2.74,0,0,1-1.07-.18Z"/><path class="cls-1" d="M166.62,57.78a2.3,2.3,0,0,0,1,.24c.45,0,.85-.25.85-.68,0-.91-1.84-.77-1.84-1.88,0-.76.62-1,1.25-1a3,3,0,0,1,1,.17l0,.41a2.27,2.27,0,0,0-.85-.18c-.49,0-.83.15-.83.64,0,.71,1.88.62,1.88,1.88,0,.81-.76,1.09-1.34,1.09a2.74,2.74,0,0,1-1.07-.18Z"/><path class="cls-1" d="M173,58.22a3,3,0,0,1-1.11.21c-1.27,0-1.74-.86-1.74-2s.65-2,1.61-2,1.52.87,1.52,1.9v.24h-2.62A1.29,1.29,0,0,0,171.91,58a2.32,2.32,0,0,0,1.07-.29v.48Zm-.24-2.07c0-.67-.27-1.33-1-1.33a1.25,1.25,0,0,0-1.13,1.33Z"/><path class="cls-1" d="M174.76,55.41c0-.29,0-.59,0-.9h.46v.68h0a1.21,1.21,0,0,1,1.24-.77c1,0,1.31.63,1.31,1.47v2.45h-.47V56c0-.72-.25-1.19-.91-1.19-.86,0-1.13.76-1.13,1.4v2.12h-.47V55.41Z"/><path class="cls-1" d="M179.22,57.78a2.3,2.3,0,0,0,1,.24c.45,0,.85-.25.85-.68,0-.91-1.84-.77-1.84-1.88,0-.76.62-1,1.25-1a3,3,0,0,1,1,.17l0,.41a2.27,2.27,0,0,0-.85-.18c-.49,0-.83.15-.83.64,0,.71,1.88.62,1.88,1.88,0,.81-.76,1.09-1.34,1.09a2.74,2.74,0,0,1-1.07-.18Z"/><path class="cls-1" d="M185.51,55a2.18,2.18,0,0,0-.82-.19,1.43,1.43,0,0,0-1.44,1.6,1.46,1.46,0,0,0,1.39,1.6,2.53,2.53,0,0,0,.86-.17l0,.44a2.87,2.87,0,0,1-1,.13,1.81,1.81,0,0,1-1.83-2,1.85,1.85,0,0,1,1.89-2,2.66,2.66,0,0,1,.92.15Z"/><path class="cls-1" d="M186.94,52.71h.47v2.45h0a1.3,1.3,0,0,1,1.19-.74c1,0,1.31.68,1.31,1.63v2.29h-.47V56.06c0-.66-.13-1.23-.91-1.23s-1.13.8-1.13,1.46v2.05H187V52.71Z"/><path class="cls-1" d="M193.89,57.72h0a1.35,1.35,0,0,1-1.22.71c-1.09,0-1.26-.74-1.26-1.08,0-1.28,1.37-1.34,2.36-1.34h.09v-.2c0-.65-.23-1-.87-1a2,2,0,0,0-1.13.32v-.46a3.06,3.06,0,0,1,1.13-.26c1,0,1.34.43,1.34,1.43v1.69a5,5,0,0,0,0,.8h-.47v-.63Zm0-1.31h-.13c-.82,0-1.79.08-1.79.92,0,.5.36.69.79.69,1.11,0,1.13-1,1.13-1.38Z"/><path class="cls-1" d="M196.35,54.92h-.77v-.41h.77v-.28c0-.8,0-1.61,1-1.61a1,1,0,0,1,.44.08l0,.41a.89.89,0,0,0-.38-.08c-.65,0-.58.7-.58,1.16v.33h.86v.41h-.86v3.42h-.47V54.92Z"/><path class="cls-1" d="M200.76,54.92h-.87V57.4c0,.35.13.63.51.63a1.09,1.09,0,0,0,.43-.09l0,.39a1.84,1.84,0,0,1-.58.1c-.84,0-.87-.58-.87-1.28V54.91h-.75V54.5h.75v-.92l.47-.17V54.5h.87v.42Z"/><path class="cls-1" d="M78.47,64a2.75,2.75,0,0,0-1.17-.23,2.26,2.26,0,0,0,0,4.52,2.45,2.45,0,0,0,1.17-.23l0,.45a2.88,2.88,0,0,1-1.2.23,2.5,2.5,0,0,1-2.64-2.71,2.53,2.53,0,0,1,2.64-2.71,3.22,3.22,0,0,1,1.2.2Z"/><path class="cls-1" d="M81.72,64.77a2,2,0,1,1-1.79,2A1.79,1.79,0,0,1,81.72,64.77Zm0,3.6c.83,0,1.27-.71,1.27-1.6s-.44-1.6-1.27-1.6-1.27.71-1.27,1.6S80.89,68.37,81.72,68.37Z"/><path class="cls-1" d="M85,65.76c0-.29,0-.59,0-.9h.46v.68h0a1.21,1.21,0,0,1,1.24-.77c1,0,1.31.63,1.31,1.47v2.45h-.47V66.36c0-.72-.25-1.19-.91-1.19-.86,0-1.13.76-1.13,1.4v2.12H85V65.76Z"/><path class="cls-1" d="M90.06,65.27h-.77v-.41h.77v-.28c0-.8,0-1.61,1-1.61a1.13,1.13,0,0,1,.44.07l0,.41a.89.89,0,0,0-.38-.08c-.65,0-.58.7-.58,1.16v.33h.86v.41h-.86v3.42h-.47V65.27Z"/><path class="cls-1" d="M95.39,68.57a3,3,0,0,1-1.11.21c-1.27,0-1.74-.86-1.74-2s.65-2,1.61-2,1.52.87,1.52,1.9v.24H93.05a1.29,1.29,0,0,0,1.26,1.46,2.32,2.32,0,0,0,1.07-.29v.48Zm-.23-2.07c0-.67-.27-1.33-1-1.33a1.25,1.25,0,0,0-1.13,1.33Zm-.79-3.12H95L94,64.46h-.35Z"/><path class="cls-1" d="M100.19,68.69h-.47v-.61h0a1.23,1.23,0,0,1-1.19.7c-1,0-1.58-.87-1.58-2s.45-2,1.58-2a1.27,1.27,0,0,1,1.19.74h0V63.07h.47Zm-1.6-.32c.84,0,1.13-.9,1.13-1.6s-.29-1.6-1.13-1.6-1.13.86-1.13,1.6S97.69,68.37,98.59,68.37Z"/><path class="cls-1" d="M104.49,68.57a3,3,0,0,1-1.11.21c-1.27,0-1.74-.86-1.74-2s.65-2,1.61-2,1.52.87,1.52,1.9v.24h-2.62a1.29,1.29,0,0,0,1.26,1.46,2.32,2.32,0,0,0,1.07-.29v.48Zm-.24-2.07c0-.67-.27-1.33-1-1.33a1.25,1.25,0,0,0-1.13,1.33Zm-.79-3.12h.59l-1,1.08h-.34Z"/><path class="cls-1" d="M106.26,65.72a7,7,0,0,0,0-.86h.47v.74h0a1.14,1.14,0,0,1,1-.83,1.57,1.57,0,0,1,.33,0v.5a1.29,1.29,0,0,0-.35,0c-.75,0-1,.84-1,1.53v1.89h-.47v-3Z"/><path class="cls-1" d="M111.54,68.07h0a1.35,1.35,0,0,1-1.22.71c-1.09,0-1.26-.74-1.26-1.08,0-1.28,1.37-1.34,2.36-1.34h.09v-.2c0-.65-.23-1-.87-1a2,2,0,0,0-1.13.32V65a3.06,3.06,0,0,1,1.13-.26c.95,0,1.34.43,1.34,1.43V67.9a5,5,0,0,0,0,.8h-.47v-.63Zm-.05-1.31h-.14c-.82,0-1.79.08-1.79.92,0,.5.36.69.8.69,1.11,0,1.13-1,1.13-1.38v-.23Z"/><path class="cls-1" d="M115.33,65.27h-.87v2.48c0,.35.13.63.51.63a1.19,1.19,0,0,0,.44-.09l0,.39a1.9,1.9,0,0,1-.58.1c-.84,0-.87-.58-.87-1.28V65.26h-.75v-.41H114v-.92l.47-.17v1.09h.87Z"/><path class="cls-1" d="M117.23,63.84h-.47v-.63h.47Zm-.47,1h.47v3.83h-.47Z"/><path class="cls-1" d="M120.51,64.77a2,2,0,1,1-1.79,2A1.79,1.79,0,0,1,120.51,64.77Zm0,3.6c.83,0,1.27-.71,1.27-1.6s-.44-1.6-1.27-1.6-1.27.71-1.27,1.6S119.68,68.37,120.51,68.37Z"/><path class="cls-1" d="M123.77,65.76c0-.29,0-.59,0-.9h.46v.68h0a1.21,1.21,0,0,1,1.24-.77c1,0,1.31.63,1.31,1.47v2.45h-.47V66.36c0-.72-.25-1.19-.91-1.19-.86,0-1.13.76-1.13,1.4v2.12h-.47V65.76Z"/><path class="cls-1" d="M130.83,68.13a2.3,2.3,0,0,0,1,.24c.45,0,.85-.25.85-.68,0-.91-1.84-.77-1.84-1.88,0-.76.62-1,1.25-1a3,3,0,0,1,.95.17l0,.41a2.31,2.31,0,0,0-.85-.18c-.49,0-.83.15-.83.64,0,.71,1.88.62,1.88,1.88,0,.81-.76,1.09-1.34,1.09a2.74,2.74,0,0,1-1.07-.18Z"/><path class="cls-1" d="M137.61,67.79c0,.29,0,.59,0,.9h-.46V68h0a1.22,1.22,0,0,1-1.24.77c-1,0-1.31-.63-1.31-1.47V64.86h.47v2.33c0,.72.26,1.19.91,1.19.86,0,1.13-.76,1.13-1.4V64.86h.47v2.93Z"/><path class="cls-1" d="M139.86,63.84h-.47v-.63h.47Zm-.48,1h.47v3.83h-.47Z"/><path class="cls-1" d="M141.34,68.13a2.3,2.3,0,0,0,1,.24c.45,0,.85-.25.85-.68,0-.91-1.84-.77-1.84-1.88,0-.76.62-1,1.25-1a3,3,0,0,1,1,.17l0,.41a2.27,2.27,0,0,0-.85-.18c-.49,0-.83.15-.83.64,0,.71,1.88.62,1.88,1.88,0,.81-.76,1.09-1.34,1.09a2.74,2.74,0,0,1-1.07-.18Z"/><path class="cls-1" d="M144.85,68.13a2.3,2.3,0,0,0,1,.24c.45,0,.85-.25.85-.68,0-.91-1.84-.77-1.84-1.88,0-.76.62-1,1.25-1a3,3,0,0,1,.95.17l0,.41a2.31,2.31,0,0,0-.85-.18c-.49,0-.83.15-.83.64,0,.71,1.88.62,1.88,1.88,0,.81-.76,1.09-1.34,1.09a2.74,2.74,0,0,1-1.07-.18Z"/><path class="cls-1" d="M151.21,68.57a3,3,0,0,1-1.11.21c-1.27,0-1.74-.86-1.74-2s.65-2,1.61-2,1.52.87,1.52,1.9v.24h-2.62a1.29,1.29,0,0,0,1.26,1.46,2.32,2.32,0,0,0,1.07-.29v.48ZM151,66.5c0-.67-.27-1.33-1-1.33a1.25,1.25,0,0,0-1.13,1.33Z"/><path class="cls-1" d="M78.47,74.39a2.75,2.75,0,0,0-1.17-.23,2.26,2.26,0,0,0,0,4.52,2.45,2.45,0,0,0,1.17-.23l0,.45a2.88,2.88,0,0,1-1.2.23,2.5,2.5,0,0,1-2.64-2.71,2.53,2.53,0,0,1,2.64-2.71,3.43,3.43,0,0,1,1.2.19Z"/><path class="cls-1" d="M81.72,75.12a2,2,0,1,1-1.79,2A1.79,1.79,0,0,1,81.72,75.12Zm0,3.6c.83,0,1.27-.71,1.27-1.6s-.44-1.6-1.27-1.6-1.27.71-1.27,1.6S80.89,78.72,81.72,78.72Z"/><path class="cls-1" d="M85,76.11c0-.29,0-.59,0-.9h.46v.68h0a1.21,1.21,0,0,1,1.24-.77c1,0,1.31.63,1.31,1.47V79h-.47V76.71c0-.72-.25-1.19-.91-1.19-.86,0-1.13.76-1.13,1.4V79H85V76.11Z"/><path class="cls-1" d="M90.06,75.62h-.77v-.41h.77v-.28c0-.8,0-1.61,1-1.61a1,1,0,0,1,.44.08l0,.41a.89.89,0,0,0-.38-.08c-.65,0-.58.7-.58,1.16v.33h.86v.41h-.86v3.42h-.47V75.62Z"/><path class="cls-1" d="M95.39,78.92a3,3,0,0,1-1.11.21c-1.27,0-1.74-.86-1.74-2s.65-2,1.61-2,1.52.87,1.52,1.9v.24H93.05a1.29,1.29,0,0,0,1.26,1.46,2.32,2.32,0,0,0,1.07-.29v.48Zm-.23-2.07c0-.67-.27-1.33-1-1.33a1.25,1.25,0,0,0-1.13,1.33Z"/><path class="cls-1" d="M100.19,79h-.47v-.61h0a1.23,1.23,0,0,1-1.19.7c-1,0-1.58-.87-1.58-2s.45-2,1.58-2a1.27,1.27,0,0,1,1.19.74h0V73.42h.47Zm-1.6-.32c.84,0,1.13-.9,1.13-1.6s-.29-1.6-1.13-1.6-1.13.86-1.13,1.6S97.69,78.72,98.59,78.72Z"/><path class="cls-1" d="M104.49,78.92a3,3,0,0,1-1.11.21c-1.27,0-1.74-.86-1.74-2s.65-2,1.61-2,1.52.87,1.52,1.9v.24h-2.62a1.29,1.29,0,0,0,1.26,1.46,2.32,2.32,0,0,0,1.07-.29v.48Zm-.24-2.07c0-.67-.27-1.33-1-1.33a1.25,1.25,0,0,0-1.13,1.33Z"/><path class="cls-1" d="M106.26,76.07a7,7,0,0,0,0-.86h.47V76h0a1.14,1.14,0,0,1,1-.83,1.57,1.57,0,0,1,.33,0v.5a1.29,1.29,0,0,0-.35,0c-.75,0-1,.84-1,1.53V79h-.47v-3Z"/><path class="cls-1" d="M111.54,78.42h0a1.35,1.35,0,0,1-1.22.71c-1.09,0-1.26-.74-1.26-1.08,0-1.28,1.37-1.34,2.36-1.34h.09v-.2c0-.65-.23-1-.87-1a2,2,0,0,0-1.13.32v-.46a3.06,3.06,0,0,1,1.13-.26c.95,0,1.34.43,1.34,1.43v1.69a5,5,0,0,0,0,.8h-.47v-.63Zm-.05-1.31h-.14c-.82,0-1.79.08-1.79.92,0,.5.36.69.8.69,1.11,0,1.13-1,1.13-1.38v-.23Z"/><path class="cls-1" d="M113.32,78.64l2.3-3h-2.21v-.41h2.76v.41l-2.3,3h2.3v.41h-2.85v-.41Z"/><path class="cls-1" d="M118.07,74.19h-.47v-.63h.47Zm-.48,1h.47V79h-.47Z"/><path class="cls-1" d="M121.34,75.12a2,2,0,1,1-1.79,2A1.79,1.79,0,0,1,121.34,75.12Zm0,3.6c.83,0,1.27-.71,1.27-1.6s-.44-1.6-1.27-1.6-1.27.71-1.27,1.6S120.51,78.72,121.34,78.72Z"/><path class="cls-1" d="M124.6,76.11c0-.29,0-.59,0-.9H125v.68h0a1.21,1.21,0,0,1,1.24-.77c.95,0,1.31.63,1.31,1.47V79h-.47V76.71c0-.72-.25-1.19-.91-1.19-.86,0-1.13.76-1.13,1.4V79h-.47V76.11Z"/><path class="cls-1" d="M131.93,78.92a3,3,0,0,1-1.11.21c-1.27,0-1.74-.86-1.74-2s.65-2,1.61-2,1.52.87,1.52,1.9v.24h-2.62a1.29,1.29,0,0,0,1.26,1.46,2.32,2.32,0,0,0,1.07-.29v.48Zm-.24-2.07c0-.67-.27-1.33-1-1.33a1.25,1.25,0,0,0-1.13,1.33Z"/><path class="cls-1" d="M136.2,78.37a2,2,0,0,0,1.16.31,1,1,0,0,0,1.18-1.07c0-1-2.4-1.16-2.4-2.53a1.48,1.48,0,0,1,1.66-1.37,3.28,3.28,0,0,1,1,.17l-.08.47a2.09,2.09,0,0,0-.95-.2c-.54,0-1.13.23-1.13.9,0,1,2.4,1.06,2.4,2.59a1.54,1.54,0,0,1-1.72,1.48,3,3,0,0,1-1.19-.23Z"/><path class="cls-1" d="M142,79h-.56l-1.3-3.83h.52l1.06,3.31h0l1.11-3.31h.5Z"/><path class="cls-1" d="M145,74.19h-.47v-.63H145Zm-.47,1H145V79h-.47Z"/><path class="cls-1" d="M146.45,78.64l2.3-3h-2.21v-.41h2.76v.41l-2.3,3h2.3v.41h-2.85Z"/><path class="cls-1" d="M150.36,78.64l2.3-3h-2.21v-.41h2.76v.41l-2.3,3h2.3v.41h-2.85Z"/><path class="cls-1" d="M157.2,78.92a3,3,0,0,1-1.11.21c-1.27,0-1.74-.86-1.74-2s.65-2,1.61-2,1.52.87,1.52,1.9v.24h-2.62a1.29,1.29,0,0,0,1.26,1.46,2.32,2.32,0,0,0,1.07-.29v.48ZM157,76.85c0-.67-.27-1.33-1-1.33a1.25,1.25,0,0,0-1.13,1.33Z"/><path class="cls-1" d="M159,76.07a7,7,0,0,0,0-.86h.47V76h0a1.14,1.14,0,0,1,1-.83,1.57,1.57,0,0,1,.33,0v.5a1.29,1.29,0,0,0-.35,0c-.75,0-.95.84-.95,1.53V79H159v-3Z"/><path class="cls-1" d="M164.25,78.42h0a1.35,1.35,0,0,1-1.22.71c-1.09,0-1.26-.74-1.26-1.08,0-1.28,1.37-1.34,2.36-1.34h.09v-.2c0-.65-.23-1-.87-1a2,2,0,0,0-1.13.32v-.46a3.06,3.06,0,0,1,1.13-.26c.95,0,1.34.43,1.34,1.43v1.69a5,5,0,0,0,0,.8h-.47v-.63Zm0-1.31h-.14c-.82,0-1.79.08-1.79.92,0,.5.36.69.8.69,1.11,0,1.13-1,1.13-1.38v-.23Z"/><path class="cls-1" d="M78.47,84.73a2.75,2.75,0,0,0-1.17-.23,2.26,2.26,0,0,0,0,4.52,2.45,2.45,0,0,0,1.17-.23l0,.45a2.88,2.88,0,0,1-1.2.23,2.5,2.5,0,0,1-2.64-2.71,2.53,2.53,0,0,1,2.64-2.71,3.43,3.43,0,0,1,1.2.19Z"/><path class="cls-1" d="M81.72,85.47a2,2,0,1,1-1.79,2A1.79,1.79,0,0,1,81.72,85.47Zm0,3.6c.83,0,1.27-.71,1.27-1.6s-.44-1.6-1.27-1.6-1.27.71-1.27,1.6S80.89,89.07,81.72,89.07Z"/><path class="cls-1" d="M85,86.46c0-.29,0-.59,0-.9h.46v.68h0a1.21,1.21,0,0,1,1.24-.77c1,0,1.31.63,1.31,1.47v2.45h-.47V87.06c0-.72-.25-1.19-.91-1.19-.86,0-1.13.76-1.13,1.4v2.12H85V86.46Z"/><path class="cls-1" d="M90.06,86h-.77v-.41h.77v-.28c0-.8,0-1.61,1-1.61a1,1,0,0,1,.44.08l0,.41a.89.89,0,0,0-.38-.08c-.65,0-.58.7-.58,1.16v.33h.86V86h-.86V89.4h-.47V86Z"/><path class="cls-1" d="M95.39,89.27a3,3,0,0,1-1.11.21c-1.27,0-1.74-.86-1.74-2s.65-2,1.61-2,1.52.87,1.52,1.9v.24H93.05a1.29,1.29,0,0,0,1.26,1.46,2.32,2.32,0,0,0,1.07-.29v.48Zm-.23-2.07c0-.67-.27-1.33-1-1.33a1.25,1.25,0,0,0-1.13,1.33Z"/><path class="cls-1" d="M100.19,89.39h-.47v-.61h0a1.23,1.23,0,0,1-1.19.7c-1,0-1.58-.87-1.58-2s.45-2,1.58-2a1.27,1.27,0,0,1,1.19.74h0V83.77h.47Zm-1.6-.32c.84,0,1.13-.9,1.13-1.6s-.29-1.6-1.13-1.6-1.13.86-1.13,1.6S97.69,89.07,98.59,89.07Z"/><path class="cls-1" d="M104.49,89.27a3,3,0,0,1-1.11.21c-1.27,0-1.74-.86-1.74-2s.65-2,1.61-2,1.52.87,1.52,1.9v.24h-2.62a1.29,1.29,0,0,0,1.26,1.46,2.32,2.32,0,0,0,1.07-.29v.48Zm-.24-2.07c0-.67-.27-1.33-1-1.33a1.25,1.25,0,0,0-1.13,1.33Z"/><path class="cls-1" d="M106.26,86.42a7,7,0,0,0,0-.86h.47v.74h0a1.14,1.14,0,0,1,1-.83,1.57,1.57,0,0,1,.33,0V86a1.29,1.29,0,0,0-.35-.05c-.75,0-1,.84-1,1.53v1.89h-.47v-3Z"/><path class="cls-1" d="M111.54,88.77h0a1.35,1.35,0,0,1-1.22.71c-1.09,0-1.26-.74-1.26-1.08,0-1.28,1.37-1.34,2.36-1.34h.09v-.2c0-.65-.23-1-.87-1a2.1,2.1,0,0,0-1.13.31v-.46a3.06,3.06,0,0,1,1.13-.26c.95,0,1.34.43,1.34,1.43v1.69a5,5,0,0,0,0,.8h-.47v-.62Zm-.05-1.31h-.14c-.82,0-1.79.08-1.79.92,0,.5.36.69.8.69,1.11,0,1.13-1,1.13-1.38v-.23Z"/><path class="cls-1" d="M113.32,89l2.3-3h-2.21v-.41h2.76V86l-2.3,3h2.3v.41h-2.85V89Z"/><path class="cls-1" d="M118.07,84.54h-.47v-.63h.47Zm-.48,1h.47v3.83h-.47Z"/><path class="cls-1" d="M122.83,88.49c0,.29,0,.59,0,.9h-.46v-.68h0a1.22,1.22,0,0,1-1.24.77c-1,0-1.31-.63-1.31-1.47V85.56h.47v2.33c0,.72.26,1.19.91,1.19.86,0,1.13-.76,1.13-1.4V85.56h.47v2.93Z"/><path class="cls-1" d="M124.6,86.46c0-.29,0-.59,0-.9H125v.68h0a1.21,1.21,0,0,1,1.24-.77c.95,0,1.31.63,1.31,1.47v2.45h-.47V87.06c0-.72-.25-1.19-.91-1.19-.86,0-1.13.76-1.13,1.4v2.12h-.47V86.46Z"/><path class="cls-1" d="M131.66,88.83a2.3,2.3,0,0,0,1,.24c.45,0,.85-.25.85-.68,0-.91-1.84-.77-1.84-1.88,0-.76.62-1,1.25-1a3,3,0,0,1,1,.17l0,.41a2.27,2.27,0,0,0-.85-.18c-.49,0-.83.15-.83.64,0,.71,1.88.62,1.88,1.88,0,.81-.76,1.09-1.34,1.09a2.74,2.74,0,0,1-1.07-.18Z"/><path class="cls-1" d="M136.79,89.39h-.56l-1.3-3.83h.52l1.06,3.31h0l1.11-3.31h.5Z"/><path class="cls-1" d="M139.85,84.54h-.47v-.63h.47Zm-.47,1h.47v3.83h-.47Z"/><path class="cls-1" d="M141.28,89l2.3-3h-2.21v-.41h2.76V86l-2.3,3h2.3v.41h-2.85V89Z"/><path class="cls-1" d="M145.54,86.42a7,7,0,0,0,0-.86H146v.74h0a1.14,1.14,0,0,1,1-.83,1.57,1.57,0,0,1,.33,0V86A1.29,1.29,0,0,0,147,86c-.75,0-.95.84-.95,1.53v1.89h-.47v-3Z"/><path class="cls-1" d="M150.83,88.77h0a1.35,1.35,0,0,1-1.22.71c-1.09,0-1.26-.74-1.26-1.08,0-1.28,1.37-1.34,2.36-1.34h.09v-.2c0-.65-.23-1-.87-1a2.1,2.1,0,0,0-1.13.31v-.46a3.06,3.06,0,0,1,1.13-.26c1,0,1.34.43,1.34,1.43v1.69a5,5,0,0,0,0,.8h-.47v-.62Zm-.05-1.31h-.14c-.82,0-1.79.08-1.79.92,0,.5.36.69.8.69,1.11,0,1.13-1,1.13-1.38v-.23Z"/><path class="cls-1" d="M74.73,109.42a2,2,0,0,0,1.16.31,1,1,0,0,0,1.18-1.07c0-1-2.4-1.16-2.4-2.53a1.48,1.48,0,0,1,1.66-1.37,3.28,3.28,0,0,1,1,.17l-.08.47a2.09,2.09,0,0,0-1-.2c-.54,0-1.13.23-1.13.9,0,1.05,2.4,1.06,2.4,2.59a1.54,1.54,0,0,1-1.72,1.48,2.85,2.85,0,0,1-1.19-.23Z"/><path class="cls-1" d="M83.09,110.09h-.57l-1-3.31h0l-1,3.31h-.57l-1.23-3.83h.52l1,3.31h0l1.07-3.31h.57l1,3.31h0l1.06-3.31h.47Z"/><path class="cls-1" d="M86.06,105.24h-.47v-.63h.47Zm-.48,1h.47v3.83h-.47Z"/><path class="cls-1" d="M87.54,109.53a2.3,2.3,0,0,0,1,.24c.45,0,.85-.25.85-.68,0-.91-1.84-.77-1.84-1.88,0-.76.62-1,1.25-1a3,3,0,0,1,1,.17l0,.41a2.27,2.27,0,0,0-.85-.18c-.49,0-.83.15-.83.64,0,.71,1.88.62,1.88,1.88,0,.81-.76,1.09-1.34,1.09A2.74,2.74,0,0,1,87.5,110Z"/><path class="cls-1" d="M91.05,109.53a2.3,2.3,0,0,0,1,.24c.45,0,.85-.25.85-.68,0-.91-1.84-.77-1.84-1.88,0-.76.62-1,1.25-1a3,3,0,0,1,1,.17l0,.41a2.27,2.27,0,0,0-.85-.18c-.49,0-.83.15-.83.64,0,.71,1.88.62,1.88,1.88,0,.81-.76,1.09-1.34,1.09A2.74,2.74,0,0,1,91,110Z"/><path class="cls-1" d="M101.16,105.43a2.75,2.75,0,0,0-1.17-.23,2.26,2.26,0,0,0,0,4.52,2.45,2.45,0,0,0,1.17-.23l0,.45a2.88,2.88,0,0,1-1.2.23,2.5,2.5,0,0,1-2.64-2.71,2.53,2.53,0,0,1,2.64-2.71,3.43,3.43,0,0,1,1.2.19Z"/><path class="cls-1" d="M104.6,106.17a2,2,0,1,1-1.79,2A1.79,1.79,0,0,1,104.6,106.17Zm0,3.6c.83,0,1.27-.71,1.27-1.6s-.44-1.6-1.27-1.6-1.27.71-1.27,1.6S103.77,109.77,104.6,109.77Z"/><path class="cls-1" d="M107.86,107.16c0-.29,0-.59,0-.9h.46v.68h0a1.21,1.21,0,0,1,1.24-.77c1,0,1.31.63,1.31,1.47v2.45h-.47v-2.33c0-.72-.25-1.19-.91-1.19-.86,0-1.13.76-1.13,1.4v2.12h-.47v-2.93Z"/><path class="cls-1" d="M112.94,106.67h-.77v-.41h.77V106c0-.8,0-1.61,1-1.61a1,1,0,0,1,.44.08l0,.41a.89.89,0,0,0-.38-.08c-.64,0-.58.7-.58,1.16v.33h.86v.41h-.86v3.42h-.47v-3.43Z"/><path class="cls-1" d="M118.27,110a3,3,0,0,1-1.11.21c-1.27,0-1.74-.86-1.74-2s.65-2,1.61-2,1.52.87,1.52,1.9v.24h-2.62a1.29,1.29,0,0,0,1.26,1.46,2.32,2.32,0,0,0,1.07-.29V110ZM118,107.9c0-.67-.27-1.33-1-1.33a1.25,1.25,0,0,0-1.13,1.33Z"/><path class="cls-1" d="M123.07,110.09h-.47v-.61h0a1.23,1.23,0,0,1-1.19.7c-1.05,0-1.58-.87-1.58-2s.45-2,1.58-2a1.27,1.27,0,0,1,1.19.74h0v-2.45h.47Zm-1.6-.32c.84,0,1.13-.9,1.13-1.6s-.29-1.6-1.13-1.6-1.13.86-1.13,1.6S120.57,109.77,121.47,109.77Z"/><path class="cls-1" d="M127.36,110a3,3,0,0,1-1.11.21c-1.27,0-1.74-.86-1.74-2s.65-2,1.61-2,1.52.87,1.52,1.9v.24H125a1.29,1.29,0,0,0,1.26,1.46,2.32,2.32,0,0,0,1.07-.29V110Zm-.23-2.07c0-.67-.27-1.33-1-1.33A1.25,1.25,0,0,0,125,107.9Z"/><path class="cls-1" d="M129.13,107.12a7,7,0,0,0,0-.86h.47V107h0a1.14,1.14,0,0,1,1-.83,1.57,1.57,0,0,1,.33,0v.5a1.29,1.29,0,0,0-.35,0c-.75,0-.95.84-.95,1.53v1.89h-.47v-3Z"/><path class="cls-1" d="M134.42,109.47h0a1.35,1.35,0,0,1-1.22.71c-1.09,0-1.26-.74-1.26-1.08,0-1.28,1.37-1.34,2.36-1.34h.09v-.2c0-.65-.23-1-.87-1a2,2,0,0,0-1.13.32v-.47a3.06,3.06,0,0,1,1.13-.26c.95,0,1.34.43,1.34,1.43v1.69a5,5,0,0,0,0,.8h-.47v-.62Zm0-1.31h-.14c-.82,0-1.79.08-1.79.92,0,.5.36.69.8.69,1.11,0,1.13-1,1.13-1.38v-.23Z"/><path class="cls-1" d="M138.21,106.67h-.87v2.48c0,.35.13.63.51.63a1.19,1.19,0,0,0,.44-.09l0,.39a1.9,1.9,0,0,1-.58.1c-.84,0-.87-.58-.87-1.28v-2.24h-.75v-.41h.75v-.92l.47-.17v1.09h.87Z"/><path class="cls-1" d="M140.11,105.24h-.47v-.63h.47Zm-.47,1h.47v3.83h-.47Z"/><path class="cls-1" d="M143.38,106.17a2,2,0,1,1-1.79,2A1.79,1.79,0,0,1,143.38,106.17Zm0,3.6c.83,0,1.27-.71,1.27-1.6s-.44-1.6-1.27-1.6-1.27.71-1.27,1.6S142.56,109.77,143.38,109.77Z"/><path class="cls-1" d="M146.65,107.16c0-.29,0-.59,0-.9h.46v.68h0a1.21,1.21,0,0,1,1.24-.77c.95,0,1.31.63,1.31,1.47v2.45h-.47v-2.33c0-.72-.25-1.19-.91-1.19-.86,0-1.13.76-1.13,1.4v2.12h-.47v-2.93Z"/><path class="cls-2" d="M66.14,52.87a28.67,28.67,0,0,0-10.61-1.74h0a28.67,28.67,0,0,0-10.61,1.74s-.36,7.7,1.15,12.05a16.09,16.09,0,0,0,9.46,9.8h0A16.09,16.09,0,0,0,65,64.92C66.5,60.57,66.14,52.87,66.14,52.87Z"/><polygon class="cls-1" points="62.58 59.5 62.58 63.75 57.64 63.75 57.64 68.69 53.4 68.69 53.4 63.75 48.45 63.75 48.45 59.5 53.4 59.5 53.4 54.56 57.64 54.56 57.64 59.5 62.58 59.5"/></svg>