<?xml version="1.0" encoding="utf-8"?>
<!-- Generator: Adobe Illustrator 28.0.0, SVG Export Plug-In . SVG Version: 6.00 Build 0)  -->
<svg version="1.1" id="Ebene_1" xmlns="http://www.w3.org/2000/svg" xmlns:xlink="http://www.w3.org/1999/xlink" x="0px" y="0px"
	 viewBox="0 0 240 160" style="enable-background:new 0 0 240 160;" xml:space="preserve">
<style type="text/css">
	.st0{fill:#FFFFFF;}
	.st1{fill:none;stroke:#FFFFFF;stroke-miterlimit:10;}
	.st2{fill:url(#SVGID_1_);}
	.st3{fill:url(#SVGID_00000176763077333750893940000017863489878451692196_);}
	.st4{fill:#D9D9D9;}
	.st5{fill:#9C9B9B;}
</style>
<path class="st0" d="M62.5,87.5v-5.6H51.4v11h-4.9v-26h4.9v10.4h11.1V66.9h4.9v19.9c0,1.2,0.3,1.9,1.7,1.9c0.5,0,1.1-0.1,1.1-0.1
	v4.2c-0.4,0.2-1.4,0.3-2.5,0.3C64.7,93.1,62.5,91.6,62.5,87.5z M85.8,81.3c-0.2-2.8-1.1-4.7-4-4.7c-2.8,0-4.3,2.1-4.3,4.7H85.8z
	 M90.6,83c0,0,0,1.1-0.2,1.8h-13c0,2.7,1.6,5.1,4.7,5.1c2.1,0,3.5-0.9,4.6-2.2l3.4,2.3c-2,2.7-4.8,3.8-8,3.8
	c-6.4,0-9.4-4.8-9.4-10.5c0-5.6,3.2-10.7,9.2-10.7C87.9,72.7,90.6,77.3,90.6,83z M95.5,87.6V66.1h4.7V87c0,1.2,0.2,1.8,1.6,1.8
	c0.5,0,1.1-0.1,1.1-0.1v4.1c-0.4,0.2-1.4,0.2-2.4,0.2C97.6,93.1,95.5,91.7,95.5,87.6z M121.6,87.2c0,4.9-4.1,6.8-8.7,6.7
	c-4.1,0-6.7-1.7-7.6-2.5l2.5-3.4c0.9,0.8,3.2,1.9,5.6,1.9c1.9,0,3.6-0.7,3.6-2.4c0-1.2-0.8-1.8-2.2-2l-3.8-0.8
	c-1.4-0.3-2.2-0.6-2.9-1.1c-1.4-0.9-2.2-2.6-2.2-4.4c0-4.4,3.9-6.6,8-6.6c3.9,0,6.4,1.5,7.1,2.3l-2.6,3.3c-1.2-1.1-3.3-1.7-4.8-1.7
	c-1.7,0-3.2,0.6-3.2,2.3c0,1.5,0.8,1.8,2.2,2l3.4,0.6c1.2,0.3,2.4,0.7,3.3,1.3C120.9,83.6,121.6,85.3,121.6,87.2z M146.1,89.4v3.8
	c-0.5,0.3-1.3,0.5-2.9,0.5c-2.2,0-3.3-1.3-3.7-2.6c-0.9,1.4-2.9,2.8-5.9,2.8c-4.7,0-8.7-3.4-8.7-10.3c0-6,3.7-10.9,10.2-10.9
	c5.2,0,8.3,3,8.3,8.1v7.6c0,0.9,0.5,1.3,1.2,1.3C145.6,89.6,146.1,89.4,146.1,89.4z M138.7,87.9V81c0-2.7-1.2-4.3-3.9-4.3
	c-3.2,0-4.9,2.3-4.9,6.4c0,4.4,1.8,6.5,4.8,6.5C137.1,89.7,138.7,87.9,138.7,87.9z M154.9,75.1c1.3-2.3,4-3.2,6.3-3.2
	c4.2,0,6.9,3.2,6.9,7.3v13.7h-4.8V80.4c0-2.4-0.8-3.8-3.4-3.8c-1.8,0-3.8,1.1-4.5,2.6v14h-4.8V78.1c0-1.4-0.5-2-2-2
	c-0.3,0-0.8,0-0.8,0v-3.8c0.8-0.3,1.8-0.3,2.9-0.3C153.4,72,154.8,73.2,154.9,75.1z M193.5,89.4v3.8c-0.5,0.3-1.3,0.5-2.9,0.5
	c-2.2,0-3.3-1.3-3.7-2.6c-0.9,1.4-2.9,2.8-5.9,2.8c-4.7,0-8.7-3.4-8.7-10.3c0-6,3.7-10.9,10.2-10.9c5.2,0,8.3,3,8.3,8.1v7.6
	c0,0.9,0.5,1.3,1.2,1.3C192.9,89.6,193.5,89.4,193.5,89.4z M186.2,87.9V81c0-2.7-1.2-4.3-3.9-4.3c-3.2,0-4.9,2.3-4.9,6.4
	c0,4.4,1.8,6.5,4.8,6.5C184.6,89.7,186.2,87.9,186.2,87.9z"/>
</svg>
