<?xml version="1.0" encoding="utf-8"?>
<!-- Generator: Adobe Illustrator 26.0.1, SVG Export Plug-In . SVG Version: 6.00 Build 0)  -->
<svg version="1.1" id="Ebene_1" xmlns="http://www.w3.org/2000/svg" xmlns:xlink="http://www.w3.org/1999/xlink" x="0px" y="0px"
	 viewBox="0 0 300 49" style="enable-background:new 0 0 300 49;" xml:space="preserve">
<style type="text/css">
	.st0{fill:#FFFFFF;}
</style>
<g>
	<path class="st0" d="M22.9,18.3c0.5-1.5,0.8-3.3,0.8-5.5c0-4.2-1.3-7.4-3.8-9.7c-2.2-2-4.9-3-8.1-3S6,1,3.8,2.9
		C1.3,5.2,0,8.6,0,13.1S1.3,21,3.8,23.3c2.1,1.9,4.8,2.9,8,2.9c1.5,0,2.9-0.2,4-0.6c0.7-0.2,1.4-0.6,2.4-1.2l3,2.8l2.7-2.8L21,21.8
		C21.8,20.9,22.5,19.7,22.9,18.3z M18.2,16.3c-0.2,0.6-0.4,1.3-0.8,2.1L14.8,16l-2.7,2.8l2.5,2.4c-0.5,0.2-0.9,0.3-1.2,0.4
		c-0.5,0.1-1.1,0.2-1.7,0.2c-1.6,0-2.9-0.5-4.1-1.4C5.9,18.9,5,16.5,5,13.1C5.1,10.2,5.7,8,7,6.6s2.9-2.2,4.9-2.2
		c2.2,0,3.8,0.8,5,2.3s1.7,3.7,1.7,6.4C18.6,14.3,18.4,15.4,18.2,16.3z"/>
	<path class="st0" d="M38.1,17.2c0,1.2-0.2,2.1-0.5,2.8c-0.6,1.3-1.7,2-3.3,2c-1.3,0-2.1-0.5-2.6-1.4c-0.2-0.5-0.4-1.3-0.4-2.4v-11
		h-4.9v11c0,2.1,0.3,3.7,0.8,4.8c0.9,1.9,2.8,2.9,5.5,2.9c0.9,0,1.8-0.1,2.5-0.4c0.7-0.2,1.4-0.7,2.2-1.4c0.2-0.2,0.5-0.5,0.6-0.7
		c0.2-0.3,0.3-0.4,0.3-0.5v2.6H43V7.2h-4.9C38.1,7.2,38.1,17.2,38.1,17.2z"/>
	<path class="st0" d="M62.2,24.2C62,24,61.9,23.6,61.9,23c0-0.8,0-1.5,0-2.1v-8.4c0-2.2-0.8-3.7-2.3-4.5c-1.6-0.8-3.3-1.2-5.4-1.2
		c-3.1,0-5.3,0.8-6.5,2.4c-0.8,1-1.2,2.3-1.3,3.9H51c0.1-0.7,0.3-1.3,0.7-1.7c0.5-0.6,1.3-0.8,2.4-0.8c1,0,1.8,0.1,2.3,0.4
		c0.5,0.3,0.8,0.8,0.8,1.6c0,0.6-0.3,1.1-1,1.4c-0.4,0.2-1,0.3-1.9,0.4l-1.6,0.2c-1.9,0.2-3.3,0.6-4.2,1.2c-1.7,1-2.6,2.6-2.6,4.9
		c0,1.7,0.5,3.1,1.6,4s2.5,1.4,4.1,1.4c1.3,0,2.5-0.3,3.5-0.9c0.9-0.5,1.6-1.1,2.3-1.8c0,0.4,0.1,0.8,0.1,1.1c0.1,0.3,0.2,0.7,0.3,1
		H63v-0.7C62.6,24.7,62.3,24.5,62.2,24.2z M57.1,18.4c0,1.6-0.5,2.7-1.4,3.3c-0.9,0.6-1.8,0.9-2.9,0.9c-0.7,0-1.2-0.2-1.7-0.5
		c-0.5-0.4-0.7-1-0.7-1.8c0-0.9,0.4-1.6,1.1-2c0.4-0.3,1.2-0.5,2.2-0.7l1.1-0.2c0.5-0.1,1-0.2,1.3-0.3c0.3-0.1,0.6-0.3,0.9-0.5v1.8
		H57.1z"/>
	<path class="st0" d="M75.1,11.6c0.2,0,0.5,0,0.8,0.1V6.8c-0.2,0-0.3,0-0.4,0s-0.1,0-0.2,0c-1.4,0-2.6,0.4-3.5,1.1
		c-0.5,0.4-1.2,1.3-1.9,2.5V7.2h-4.6v18.3h4.8v-8.7c0-1.5,0.2-2.6,0.6-3.3c0.7-1.3,2-1.9,3.9-1.9C74.7,11.6,74.9,11.6,75.1,11.6z"/>
	<path class="st0" d="M93.3,24.2C93.1,24,93,23.6,93,23c0-0.8,0-1.5,0-2.1v-8.4c0-2.2-0.8-3.7-2.3-4.5c-1.6-0.8-3.3-1.2-5.4-1.2
		c-3.1,0-5.3,0.8-6.5,2.4c-0.8,1-1.2,2.3-1.3,3.9H82c0.1-0.7,0.3-1.3,0.7-1.7c0.5-0.6,1.3-0.8,2.4-0.8c1,0,1.8,0.1,2.3,0.4
		c0.5,0.3,0.8,0.8,0.8,1.6c0,0.6-0.3,1.1-1,1.4c-0.4,0.2-1,0.3-1.9,0.4l-1.6,0.2c-1.9,0.2-3.3,0.6-4.2,1.2c-1.7,1-2.6,2.6-2.6,4.9
		c0,1.7,0.5,3.1,1.6,4s2.5,1.4,4.1,1.4c1.3,0,2.5-0.3,3.5-0.9c0.9-0.5,1.6-1.1,2.3-1.8c0,0.4,0.1,0.8,0.1,1.1c0.1,0.3,0.2,0.7,0.3,1
		H94v-0.7C93.7,24.7,93.5,24.5,93.3,24.2z M88.2,18.4c0,1.6-0.5,2.7-1.4,3.3c-0.9,0.6-1.8,0.9-2.9,0.9c-0.7,0-1.2-0.2-1.7-0.5
		c-0.5-0.4-0.7-1-0.7-1.8c0-0.9,0.4-1.6,1.1-2c0.4-0.3,1.2-0.5,2.2-0.7l1.1-0.2c0.5-0.1,1-0.2,1.3-0.3c0.3-0.1,0.6-0.3,0.9-0.5
		L88.2,18.4L88.2,18.4z"/>
	<path class="st0" d="M107.7,12.2c0.3,0.5,0.4,1.3,0.4,2.2v11.1h4.9V13.2c0-2.3-0.6-3.9-1.8-4.9c-1.2-1-2.7-1.5-4.6-1.5
		c-1.5,0-2.7,0.4-3.7,1.1c-0.5,0.4-1.1,1.1-1.7,2V7.2h-4.6v18.3h4.8v-9.9c0-1.1,0.2-2.1,0.5-2.8c0.6-1.4,1.7-2.1,3.3-2.1
		C106.4,10.7,107.3,11.2,107.7,12.2z"/>
	<path class="st0" d="M117.5,22c0,1.1,0.3,2,0.8,2.5c0.8,0.9,2.4,1.3,4.6,1.2l2.3-0.1V22c-0.2,0-0.3,0-0.5,0s-0.3,0-0.5,0
		c-1,0-1.6-0.1-1.7-0.3c-0.2-0.2-0.3-0.7-0.3-1.4v-9.7h3V7.4h-3V2.3h-4.7v5.1h-2.6v3.4h2.6C117.5,10.8,117.5,22,117.5,22z"/>
	<rect x="127.6" y="0.6" class="st0" width="4.9" height="4.4"/>
	<rect x="127.6" y="7.2" class="st0" width="4.9" height="18.3"/>
	<path class="st0" d="M141.2,15.6c0-1.1,0.2-2.1,0.5-2.8c0.6-1.4,1.7-2.1,3.3-2.1c1.3,0,2.2,0.5,2.7,1.4c0.3,0.5,0.4,1.3,0.4,2.2
		v11.1h4.9V13.2c0-2.3-0.6-3.9-1.8-4.9s-2.7-1.5-4.6-1.5c-1.5,0-2.7,0.4-3.7,1.1c-0.5,0.4-1.1,1.1-1.7,2V7.2h-4.6v18.3h4.8v-9.9
		H141.2z"/>
	<path class="st0" d="M173.2,20.1h-4.9c-0.3,0.5-0.6,1-1,1.3c-0.7,0.6-1.6,0.8-2.7,0.8c-1,0-1.9-0.2-2.6-0.7c-1.2-0.7-1.8-2-1.9-3.9
		h13.3c0-1.6,0-2.8-0.2-3.6c-0.2-1.4-0.7-2.7-1.5-3.8c-0.8-1.2-1.9-2.1-3.2-2.7s-2.7-0.9-4.3-0.9c-2.7,0-4.9,0.8-6.5,2.5
		c-1.7,1.7-2.5,4.1-2.5,7.3c0,3.4,0.9,5.8,2.8,7.3c1.9,1.5,4,2.3,6.4,2.3c3,0,5.2-0.9,6.9-2.7C172.5,22.3,173,21.2,173.2,20.1z
		 M161.5,11.7c0.7-0.7,1.6-1,2.9-1c1.1,0,2.1,0.3,2.8,1c0.8,0.7,1.2,1.6,1.3,2.9h-8.2C160.4,13.3,160.8,12.4,161.5,11.7z"/>
	<polygon class="st0" points="173.5,5.1 180.9,5.1 180.9,25.5 186.1,25.5 186.1,5.1 193.5,5.1 193.5,0.8 173.5,0.8 	"/>
	<rect x="194.9" y="7.2" class="st0" width="4.9" height="18.3"/>
	<rect x="194.9" y="0.6" class="st0" width="4.9" height="4.4"/>
	<path class="st0" d="M228.7,8.9c-0.6-0.8-1.3-1.3-2.1-1.6c-0.8-0.3-1.6-0.5-2.4-0.5c-1.2,0-2.3,0.3-3.3,0.8
		c-0.9,0.5-1.7,1.3-2.3,2.4c-0.4-0.9-0.9-1.6-1.6-2.2c-0.9-0.6-2-0.9-3.4-0.9c-1.5,0-2.7,0.4-3.6,1.1c-0.5,0.4-1.1,1.1-1.7,2V7.2
		h-4.7v18.3h4.9v-11c0-1,0.1-1.7,0.4-2.2c0.5-0.9,1.4-1.3,2.8-1.3c1.2,0,2,0.4,2.4,1.3c0.2,0.5,0.3,1.3,0.3,2.4v10.9h4.8v-11
		c0-0.8,0.1-1.5,0.4-2.1c0.5-1.1,1.4-1.6,2.7-1.6c1.1,0,1.9,0.4,2.4,1.3c0.2,0.4,0.3,1,0.3,1.7v11.7h4.9V14.1c0-1.2-0.1-2.1-0.2-2.7
		C229.6,10.3,229.2,9.6,228.7,8.9z"/>
	<path class="st0" d="M250.2,14.1c-0.2-1.4-0.7-2.7-1.5-3.8c-0.8-1.2-1.9-2.1-3.2-2.7s-2.7-0.9-4.3-0.9c-2.7,0-4.9,0.8-6.5,2.5
		c-1.7,1.7-2.5,4.1-2.5,7.3c0,3.4,0.9,5.8,2.8,7.3c1.9,1.5,4,2.3,6.4,2.3c3,0,5.2-0.9,6.9-2.7c1.1-1.1,1.6-2.2,1.8-3.3h-4.9
		c-0.3,0.5-0.6,1-1,1.3c-0.7,0.6-1.6,0.8-2.7,0.8c-1,0-1.9-0.2-2.6-0.7c-1.2-0.7-1.8-2-1.9-3.9h13.3
		C250.3,16.1,250.3,14.9,250.2,14.1z M237.1,14.5c0.2-1.2,0.6-2.1,1.3-2.8s1.6-1,2.9-1c1.1,0,2.1,0.3,2.8,1c0.8,0.7,1.2,1.6,1.3,2.9
		h-8.3V14.5z"/>
	<path class="st0" d="M75.7,35.7c-0.6,0-1.1,0.1-1.5,0.4c-0.5,0.2-0.9,0.6-1.2,1v-4.6h-1.5v12.7h1.4V44c0.3,0.4,0.6,0.8,0.9,1
		c0.5,0.3,1.1,0.5,1.8,0.5c1.3,0,2.2-0.5,3-1.5c0.7-1,1.1-2.2,1.1-3.6c0-1.5-0.4-2.7-1.1-3.5S76.8,35.7,75.7,35.7z M77.3,43.1
		c-0.4,0.7-1.1,1-1.9,1c-1.1,0-1.9-0.5-2.3-1.5c-0.2-0.5-0.3-1.2-0.3-2.1c0-1.2,0.3-2.1,0.8-2.6s1.2-0.8,1.9-0.8
		c0.8,0,1.4,0.3,1.9,1c0.4,0.6,0.6,1.4,0.6,2.4C78,41.6,77.7,42.4,77.3,43.1z"/>
	<path class="st0" d="M84.3,43.5L81.8,36H80l3.4,9.5c-0.1,0.2-0.2,0.5-0.4,0.9c-0.2,0.4-0.3,0.7-0.3,0.7c-0.1,0.1-0.2,0.3-0.3,0.3
		c-0.1,0.1-0.3,0.1-0.6,0.1c-0.1,0-0.2,0-0.3,0c-0.1,0-0.3-0.1-0.6-0.1v1.4c0.2,0,0.3,0.1,0.4,0.1s0.3,0,0.5,0
		c0.9,0,1.5-0.3,1.9-0.8s1-2,1.9-4.3c0.4-1,0.9-2.3,1.4-3.9c0.8-2.1,1.2-3.5,1.5-4.1h-1.7L84.3,43.5z"/>
	<polygon class="st0" points="96.1,39.4 103.1,39.4 103.1,37.9 96.1,37.9 96.1,34 103.6,34 103.6,32.5 94.4,32.5 94.4,45.2 
		103.8,45.2 103.8,43.7 96.1,43.7 	"/>
	<path class="st0" d="M113.9,39.1c-0.5-0.3-1.1-0.6-1.9-0.8l-1.7-0.4c-1.2-0.3-1.9-0.5-2.2-0.7c-0.5-0.3-0.8-0.7-0.8-1.4
		c0-0.6,0.2-1.1,0.6-1.5s1.1-0.6,2.1-0.6c1.2,0,2.1,0.3,2.6,1c0.3,0.4,0.4,0.9,0.5,1.6h1.6c0-1.4-0.5-2.4-1.4-3.1
		c-0.9-0.6-2-1-3.3-1c-1.4,0-2.5,0.4-3.3,1.1c-0.8,0.7-1.2,1.7-1.2,2.8s0.4,1.8,1.2,2.4c0.5,0.3,1.2,0.6,2.3,0.8l1.7,0.4
		c0.9,0.2,1.6,0.5,2,0.8s0.6,0.8,0.6,1.5c0,0.9-0.5,1.6-1.5,1.9c-0.5,0.2-1.1,0.3-1.7,0.3c-1.4,0-2.4-0.4-2.9-1.3
		c-0.3-0.4-0.5-1-0.5-1.8h-1.6c0,1.4,0.4,2.5,1.3,3.3s2.1,1.2,3.6,1.2c1.3,0,2.5-0.3,3.5-0.9c1-0.6,1.5-1.6,1.5-3
		C115.1,40.5,114.7,39.6,113.9,39.1z"/>
	<polygon class="st0" points="119,39.4 126,39.4 126,37.9 119,37.9 119,34 126.5,34 126.5,32.5 117.3,32.5 117.3,45.2 126.7,45.2 
		126.7,43.7 119,43.7 	"/>
	<path class="st0" d="M139.2,43.2l-3.6-10.7h-2.5v12.7h1.6v-7.5c0-0.3,0-0.8,0-1.4c0-0.6,0-1.1,0-1.4v-0.4l3.7,10.7h1.7l3.6-10.7
		c0,0.7,0,1.3,0,1.9c0,0.6,0,1,0,1.3v7.5h1.6V32.5h-2.4L139.2,43.2z"/>
	<path class="st0" d="M155.1,39c-0.1-0.6-0.3-1.2-0.6-1.6c-0.3-0.5-0.8-0.9-1.4-1.2c-0.6-0.3-1.2-0.5-1.9-0.5
		c-1.3,0-2.3,0.5-3.1,1.4s-1.2,2.1-1.2,3.6s0.4,2.7,1.2,3.5s1.8,1.3,2.9,1.3c0.5,0,0.9,0,1.3-0.1c0.7-0.2,1.3-0.5,1.7-0.9
		c0.3-0.3,0.5-0.6,0.8-1c0.2-0.4,0.4-0.8,0.4-1.1h-1.5c-0.1,0.4-0.3,0.8-0.6,1.1c-0.5,0.5-1.1,0.8-1.9,0.8c-0.9,0-1.5-0.3-1.9-0.9
		c-0.4-0.6-0.6-1.3-0.7-2.3h6.7C155.2,40.1,155.2,39.4,155.1,39z M148.5,39.8c0-0.8,0.3-1.4,0.8-2c0.5-0.5,1.1-0.8,1.8-0.8
		c1,0,1.7,0.4,2.1,1.1c0.2,0.4,0.4,0.9,0.4,1.6h-5.1V39.8z"/>
	<path class="st0" d="M162.8,37.1c-0.4-0.4-0.7-0.7-0.9-0.9c-0.5-0.3-1.1-0.4-1.8-0.4c-1.3,0-2.3,0.5-2.9,1.5c-0.7,1-1,2.2-1,3.5
		c0,1.4,0.4,2.6,1.1,3.5c0.8,0.9,1.6,1.3,2.7,1.3c0.6,0,1.2-0.1,1.7-0.4c0.5-0.3,0.9-0.7,1.3-1.2v1.3h1.4V32.5h-1.5v4.6H162.8z
		 M162.2,43.2c-0.5,0.6-1.1,0.9-1.8,0.9c-0.9,0-1.6-0.3-2-1s-0.6-1.5-0.6-2.5c0-1.2,0.2-2,0.7-2.6s1.1-0.9,1.9-0.9
		c0.7,0,1.3,0.3,1.8,0.8c0.5,0.6,0.7,1.4,0.7,2.6C162.9,41.7,162.7,42.6,162.2,43.2z"/>
	<rect x="166.3" y="36" class="st0" width="1.6" height="9.2"/>
	<rect x="166.3" y="32.5" class="st0" width="1.6" height="1.8"/>
	<path class="st0" d="M177.7,44.1c-0.2,0-0.4,0-0.4-0.1c-0.1-0.1-0.1-0.2-0.1-0.4v-5.3c0-0.9-0.3-1.5-1-1.9s-1.6-0.6-2.6-0.6
		c-0.9,0-1.8,0.2-2.5,0.7c-0.7,0.4-1.1,1.2-1.1,2.4h1.5c0.1-0.5,0.2-0.8,0.4-1.1c0.3-0.4,0.9-0.7,1.7-0.7c0.7,0,1.2,0.1,1.6,0.4
		c0.4,0.2,0.6,0.6,0.6,1.2c0,0.3,0,0.5-0.1,0.6c-0.1,0.3-0.4,0.4-0.7,0.4l-2.5,0.3c-0.9,0.1-1.6,0.4-2.1,0.9s-0.8,1.1-0.8,2
		c0,0.8,0.3,1.4,0.8,2c0.5,0.5,1.2,0.8,2.1,0.8c0.7,0,1.4-0.2,2-0.5s1-0.7,1.4-1.1c0.1,0.4,0.1,0.7,0.3,0.9c0.2,0.4,0.6,0.6,1.2,0.6
		c0.2,0,0.4,0,0.5,0s0.3-0.1,0.6-0.1v-1.1c-0.1,0-0.2,0-0.3,0C177.8,44.1,177.8,44.1,177.7,44.1z M175.6,41.7c0,1-0.4,1.6-1.3,2.1
		c-0.5,0.3-1,0.4-1.6,0.4c-0.4,0-0.8-0.1-1.2-0.4c-0.3-0.3-0.5-0.6-0.5-1.1c0-0.6,0.2-1,0.7-1.3c0.3-0.2,0.7-0.3,1.3-0.4h1
		c0.3,0,0.6-0.1,0.9-0.2c0.3-0.1,0.5-0.2,0.7-0.3L175.6,41.7L175.6,41.7z"/>
</g>
</svg>
