<?xml version="1.0" encoding="utf-8"?>
<!-- Generator: Adobe Illustrator 28.0.0, SVG Export Plug-In . SVG Version: 6.00 Build 0)  -->
<svg version="1.1" id="Ebene_1" xmlns="http://www.w3.org/2000/svg" xmlns:xlink="http://www.w3.org/1999/xlink" x="0px" y="0px"
	 viewBox="0 0 119.1 39.7" style="enable-background:new 0 0 119.1 39.7;" xml:space="preserve">
<style type="text/css">
	.st0{opacity:0.9;fill-rule:evenodd;clip-rule:evenodd;fill:#FFFFFF;fill-opacity:0.9;enable-background:new    ;}
	.st1{opacity:3.000000e-02;fill-rule:evenodd;clip-rule:evenodd;fill:#161823;enable-background:new    ;}
	.st2{opacity:0.9;}
	.st3{opacity:0.9;fill-rule:evenodd;clip-rule:evenodd;fill:#FFFFFF;enable-background:new    ;}
	.st4{opacity:9.000000e-02;fill-rule:evenodd;clip-rule:evenodd;fill:url(#SVGID_1_);enable-background:new    ;}
	
		.st5{opacity:0.1;fill-rule:evenodd;clip-rule:evenodd;fill:url(#SVGID_00000078022816593363522840000006884853495555131293_);enable-background:new    ;}
	.st6{opacity:0;fill-rule:evenodd;clip-rule:evenodd;fill:none;}
</style>
<g>
	<g>
		<g>
			<path class="st0" d="M12.3,3.8c5,0,7.5,3.3,7.5,3.3s2.5-3.3,7.5-3.3c5.8,0,10,4.6,10,10.4c0,6.7-5.4,12.6-10.4,17.1
				c-3.1,2.8-5.4,4.6-7.1,4.6s-4.1-1.8-7.1-4.6C7.9,26.8,2.3,20.9,2.3,14.2C2.3,8.4,6.5,3.8,12.3,3.8z"/>
		</g>
		<path class="st1" d="M3.8,20.4c2,4.2,5.6,7.9,8.9,10.9c3,2.7,5.4,4.6,7.1,4.6c1.7,0,4-1.8,7.1-4.6c5-4.5,10.4-10.4,10.4-17.1
			c0-0.1,0-0.3,0-0.4c-3.2,9-14.7,17.1-17.9,17.1C17,30.9,9.2,26.4,3.8,20.4z"/>
	</g>
	<g>
		<g class="st2">
			<path class="st3" d="M61.2,8.2c0-1.1,1.3-1.6,2-0.9L75,18.6c1,1,1,2.6-0.1,3.6L63.2,32.4c-0.8,0.7-2,0.1-2-0.9v-4.6
				c0,0-12.6-2.3-16.6,5.1c-0.4,0.7-1.8,0.9-1.5-2.5c1.2-6.3,3.8-16.2,18.1-16.2V8.2z"/>
		</g>
		<path class="st1" d="M69.9,13.7l2.3,4.7c0.4,0.8,0.2,1.8-0.5,2.4l-10.4,9.1c0,0-0.5,2.5,1,2.5c1.5,0,13.6-11.1,13.6-11.1
			s0.5-1.5-1-3S69.9,13.7,69.9,13.7z"/>
		
			<radialGradient id="SVGID_1_" cx="-134.296" cy="536.0343" r="1" gradientTransform="matrix(-6.2943 -14.7953 -14.5439 6.1873 7012.3887 -5268.165)" gradientUnits="userSpaceOnUse">
			<stop  offset="0" style="stop-color:#000000"/>
			<stop  offset="0.9955" style="stop-color:#000000;stop-opacity:1.000000e-02"/>
			<stop  offset="1" style="stop-color:#000000;stop-opacity:1.000000e-02"/>
		</radialGradient>
		<path class="st4" d="M61.2,13.7v13.1c0,0-12-1.7-15.8,4c-3.6,5.5-3.3-6.2,2.2-12.1C53,13,61.2,13.7,61.2,13.7z"/>
	</g>
	<g>
		<g class="st2">
			<path class="st3" d="M110.9,30.2c3.4-3.4,5.3-6.9,5.3-11c0-8.3-7.6-15.1-17-15.1c-9.4,0-17,6.7-17,15.1c0,8.3,7.9,14,17.2,14V36
				c0,0.9,0.9,1.4,1.7,1C103.5,35.8,108,33.1,110.9,30.2z M91,17.2c1.3,0,2.4,1.1,2.4,2.4c0,1.3-1.1,2.4-2.4,2.4
				c-1.3,0-2.4-1.1-2.4-2.4C88.5,18.3,89.6,17.2,91,17.2z M101.6,19.6c0-1.3-1.1-2.4-2.4-2.4c-1.3,0-2.4,1.1-2.4,2.4
				c0,1.3,1.1,2.4,2.4,2.4C100.6,22,101.6,21,101.6,19.6z M107.5,17.2c1.3,0,2.4,1.1,2.4,2.4c0,1.3-1.1,2.4-2.4,2.4
				c-1.3,0-2.4-1.1-2.4-2.4C105,18.3,106.1,17.2,107.5,17.2z"/>
		</g>
		
			<linearGradient id="SVGID_00000053520721610946487270000014932140987548062852_" gradientUnits="userSpaceOnUse" x1="104.6123" y1="204.7852" x2="105.9566" y2="200.5609" gradientTransform="matrix(1 0 0 -1 0 233.1432)">
			<stop  offset="0" style="stop-color:#000000"/>
			<stop  offset="1" style="stop-color:#000000;stop-opacity:1.000000e-02"/>
		</linearGradient>
		
			<path style="opacity:0.1;fill-rule:evenodd;clip-rule:evenodd;fill:url(#SVGID_00000053520721610946487270000014932140987548062852_);enable-background:new    ;" d="
			M99.6,31.8c0,0,8.1-0.6,11.5-5c-3.4,4.8-6.8,7.4-9.8,8.3C98.4,36,99.6,31.8,99.6,31.8z"/>
	</g>
	<rect x="79.4" class="st6" width="39.7" height="39.7"/>
	<rect x="39.7" class="st6" width="39.7" height="39.7"/>
	<rect class="st6" width="39.7" height="39.7"/>
</g>
</svg>
