<svg id="_5d8a185e115d024e753d7adb_ese-kunden_lyrics" data-name="5d8a185e115d024e753d7adb_ese-kunden_lyrics" xmlns="http://www.w3.org/2000/svg" width="99.385" height="33.152" viewBox="0 0 99.385 33.152">
  <path id="Path_552" data-name="Path 552" d="M134.193,81.049h-.426v1.562h.426c.5,0,.639-.355.639-.781.071-.5-.142-.852-.639-.781m-5.608.071-.355,1.136h.639Zm-4.756-.142h-.639v.71h.639c.213,0,.355-.071.355-.355s-.142-.355-.355-.355m-27.26.071h-.426v1.562h.426c.5,0,.639-.355.639-.781,0-.5-.142-.852-.639-.781m-2.7.071-.355,1.136h.639Zm-7.241-.142h-.5v.781H86.7a.409.409,0,0,0,.426-.426.473.473,0,0,0-.5-.355m-3.762.781c0,.426.142.852.639.852s.639-.426.639-.852-.142-.852-.639-.852a.751.751,0,0,0-.639.852m-5.04-.781h-.5v.781H77.9a.409.409,0,0,0,.426-.426.473.473,0,0,0-.5-.355m17.96-12.21c0-.284,0-.994-1.207-.994H91.316l-.71,3.266h3.053a2.09,2.09,0,0,0,2.13-2.272m43.942-1.7-4.4,2.769-.284-.426a3.889,3.889,0,0,0-3.478-1.775c-.852,0-2.13.568-2.13,1.349,0,.426.781.639,1.491.781.213.071.5.071.781.142,2.485.426,6.176.994,6.176,4.33a6.3,6.3,0,0,1-.142,1.065,8.146,8.146,0,0,1-2.2,3.975l-.142.142H122.835l-.142-.142A9.242,9.242,0,0,1,121.628,78l-.071-.071a9.486,9.486,0,0,1-1.491,1.42l-.142.071H108.992l-.142-.142a7.365,7.365,0,0,1-1.562-4.756,12,12,0,0,1,.213-2.13c1.065-5.253,5.253-8.874,10.151-8.874a6.122,6.122,0,0,1,6.318,4.543l.142.426L119.569,70.4l-.071-.639a2.287,2.287,0,0,0-2.272-1.988c-3.265,0-4.259,3.266-4.543,4.685a5.569,5.569,0,0,0-.142,1.562c0,1.917.923,2.911,2.7,2.911a4.432,4.432,0,0,0,3.336-2.059l.284-.426,3.833,2.059-.142.213,3.265-1.846.284.284A4.655,4.655,0,0,0,129.934,77c.994,0,2.911-.5,2.911-1.633,0-.213-.142-.426-1.136-.639a14.685,14.685,0,0,1-1.562-.284c-.568-.142-1.136-.142-1.7-.284-2.769-.5-4.188-1.917-4.188-3.975a7.08,7.08,0,0,1,.142-1.136c.781-3.62,3.975-5.892,8.235-5.892a8.074,8.074,0,0,1,6.886,3.336Zm-31.377-3.337L105.088,79.2H99.976l3.266-15.476Zm-7.383,4.33a6.443,6.443,0,0,1-4.33,6.176l1.775,5.04H92.807l-1.42-4.188H89.612l-.852,4.188H83.72l3.124-14.766-7.88,8.59-1.349,6.176H72.5l1.349-6.318L69.309,63.8h5.963l2.059,5.04,4.188-5.04H95.575c3.478-.071,5.4,1.491,5.4,4.259m-33.933-4.33-2.7,12.707h6.247L70.019,79.2H58.661l3.265-15.476Zm5.4,16.753h.639v.994h1.065v-.994h.639v2.627h-.639V81.972h-.994v1.136H72.5V80.481Zm2.911,0h.639v2.627h-.639Zm1.278-.071H77.97a.878.878,0,0,1,.994.923c0,.355-.213.923-1.136.923h-.5v.852h-.639C76.621,83.108,76.621,80.41,76.621,80.41Zm2.7.071h.639v.994h.994v-.994h.639v2.627h-.639V81.972h-.994v1.136h-.639Zm2.84,1.278a1.351,1.351,0,1,1,1.349,1.42,1.323,1.323,0,0,1-1.349-1.42m3.195-1.349H86.7a.878.878,0,0,1,.994.923c0,.355-.213.923-1.136.923h-.5v.852h-.639v-2.7Zm3.833.071h.994l.5,1.988.5-1.988h.994v2.627h-.639V81.049l-.5,2.059h-.568L89.9,81.049v2.059h-.639V80.481Zm3.337,2.627.994-2.627h.71l.994,2.627h-.71l-.142-.426h-.994l-.142.426Zm3.053-2.627h.994a1.232,1.232,0,0,1,1.349,1.349,1.2,1.2,0,0,1-1.349,1.349h-.994Zm2.84-.071H100.4v.5H99.125v.5h1.207v.5H99.125v.639h1.42v.5H98.486l-.071-2.627Zm3.62.071h.639v2.627h-.639Zm1.278,0h.639l.994,1.7v-1.7h.639v2.627h-.639l-.994-1.7v1.7h-.639Zm3.833,2.13.5-.355a1.14,1.14,0,0,0,.781.355c.142,0,.5-.071.5-.284,0-.142-.071-.213-.284-.213l-.568-.071c-.5-.071-.781-.355-.781-.71,0-.639.5-.923,1.136-.923a1.557,1.557,0,0,1,1.207.5l-.5.355a.874.874,0,0,0-.71-.355c-.142,0-.426.071-.426.284q0,.213.426.213l.284.071c.5.071.994.213.994.781,0,.781-.71.994-1.207.994a1.757,1.757,0,0,1-1.349-.639m2.556-2.13h.639l.426,1.917.5-1.917h.639l.5,1.917.426-1.917h.639l-.71,2.627h-.71l-.5-1.846-.5,1.846h-.639Zm4.117,0h.639v2.627h-.639Zm1.065-.071h2.059v.5h-.71v2.2h-.639v-2.2h-.71Zm2.343,2.2,1.491-1.633h-1.349v-.5h2.2v.5l-1.491,1.633h1.491v.5H117.3l-.071-.5ZM120,80.41h1.988v.5h-1.278v.5h1.207v.5h-1.207v.568h1.42v.5H120Zm2.485,0h1.349c.568,0,.994.284.994.852a.705.705,0,0,1-.5.71l.639,1.065h-.781l-.5-.994h-.426v.923h-.71V80.41Zm2.84.071h.639V82.54h.994v.568h-1.7V80.481Zm1.917,2.627.994-2.627h.71l.994,2.627h-.71l-.142-.426h-.994l-.142.426Zm3.053-2.627h.639l.994,1.7v-1.7h.639v2.627h-.639l-.994-1.7v1.7h-.639Zm2.84,0h.994a1.349,1.349,0,1,1,0,2.7h-.994ZM149.385,56.7H50V89.852h99.385Z" transform="translate(-50 -56.7)" fill="#fff"/>
</svg>
