<svg id="layer1_1_" xmlns="http://www.w3.org/2000/svg" width="112.022" height="20.587" viewBox="0 0 112.022 20.587">
  <path id="polygon3036_1_" d="M59.934,85.732v-11.5l-4.9,11.429h-2.7l-4.9-11.429V85.661H42.4V65.855h6.815L53.9,77.071l4.827-11.216h6.247V85.661l-5.04.071Zm8.945,0V65.855h4.33a.839.839,0,0,1,.781.781V85.661l-5.111.071ZM88.046,74.3h6.46a.826.826,0,0,1,.781.923V85.448a39.565,39.565,0,0,1-6.744.639c-7.383,0-11.287-3.549-11.287-10.293,0-6.034,3.9-10.293,10.364-10.293a12.858,12.858,0,0,1,6.957,1.846l-1.988,3.407a12.424,12.424,0,0,0-4.614-1.065c-3.762,0-5.466,2.485-5.466,6.034,0,3.833,1.988,6.176,5.75,6.176a11.106,11.106,0,0,0,2.2-.142V78.278H87.975V74.3h.071Zm18.6-4.614h-2.485v4.969h2.485a2.41,2.41,0,0,0,2.627-2.7C109.272,70.114,108.065,69.688,106.645,69.688Zm3.691,16.044-2.343-5.466c-.5-1.136-.781-1.633-1.846-1.633H104.09v7.1H99.12V66.707a.839.839,0,0,1,.781-.781h7.028c3.833,0,7.1.781,7.1,5.75,0,2.2-1.207,4.472-3.549,4.9,1.136.355,2.272,1.846,2.911,3.407l2.272,5.75Zm16.4-16.044c-2.7,0-4.543,1.917-4.543,6.034,0,4.188,1.917,6.105,4.543,6.105,2.272,0,4.188-1.917,4.188-6.105C130.924,71.605,129.007,69.688,126.735,69.688Zm0,16.4c-6.46,0-9.938-4.614-9.938-10.293S120.2,65.5,126.735,65.5c6.105,0,9.513,4.614,9.513,10.293S132.769,86.087,126.735,86.087Zm19.238,0a15.889,15.889,0,0,1-7.88-2.13l2.272-3.975a12.593,12.593,0,0,0,5.963,1.917c1.278,0,2.911-.213,2.911-1.633,0-1.349-1.775-1.775-4.188-2.414-2.84-.852-6.176-1.988-6.176-5.821,0-4.117,3.691-6.46,8.448-6.46a10.148,10.148,0,0,1,6.886,2.343l-2.769,3.124a8.715,8.715,0,0,0-4.33-1.42c-1.846,0-2.911.71-2.911,1.775,0,.994,1.349,1.562,3.053,2.059,3.053.923,7.17,1.917,7.17,5.892C154.492,83.247,151.227,86.087,145.973,86.087Z" transform="translate(-42.4 -65.5)" fill="#fff" fill-rule="evenodd"/>
</svg>
